<svg xmlns="http://www.w3.org/2000/svg" xmlns:xlink="http://www.w3.org/1999/xlink" version="1.1" x="0px" y="0px" viewBox="0 0 100 125" enable-background="new 0 0 100 100" xml:space="preserve">
  <style>
    path {
    fill: #601d51;
    }
  </style>
  <g>
    <path d="M69.497,92.965c-1.61,0-5.144-1.204-13.792-6.273c-8.354-4.896-16.621-10.711-22.681-15.952l-0.661-0.573   l0.002-0.002c-7.304-6.424-15.381-15.251-15.381-27.151C16.985,25.913,30.898,12,48,12s31.015,13.913,31.015,31.015   c0,8.493-3.447,16.232-10.246,23.005l-0.361,0.469c-0.379,0.495-9.211,12.266,0.141,20.748c1.521,1.38,3.821,3.465,2.375,5.097   C70.674,92.616,70.365,92.965,69.497,92.965z M66.482,64.062c6.325-6.231,9.532-13.312,9.532-21.047C76.015,27.567,63.447,15,48,15   S19.985,27.567,19.985,43.015c0,10.978,7.582,19.028,14.999,25.455l0.003,0.003C45.033,77.16,58.93,85.473,65.676,88.631   c-8.735-8.976-2.007-20.475-0.105-23.317"/>
    <path d="M36.275,32.209c-4.486,0-8.122,3.636-8.122,8.122s3.636,8.122,8.122,8.122s8.122-3.636,8.122-8.122   S40.761,32.209,36.275,32.209z M32.963,42.356c-1.735,0-3.142-1.407-3.142-3.142c0-1.735,1.406-3.142,3.142-3.142   c1.735,0,3.142,1.406,3.142,3.142C36.104,40.949,34.698,42.356,32.963,42.356z M40.446,43.936c-1.018,0-1.844-0.826-1.844-1.844   c0-1.018,0.826-1.844,1.844-1.844c1.018,0,1.844,0.826,1.844,1.844C42.29,43.111,41.464,43.936,40.446,43.936z"/>
    <path d="M60.207,32.126c-4.486,0-8.122,3.636-8.122,8.122s3.636,8.122,8.122,8.122s8.122-3.636,8.122-8.122   S64.693,32.126,60.207,32.126z M56.895,42.273c-1.735,0-3.142-1.407-3.142-3.142c0-1.735,1.406-3.142,3.142-3.142   c1.735,0,3.142,1.406,3.142,3.142C60.037,40.866,58.63,42.273,56.895,42.273z M64.378,43.853c-1.018,0-1.844-0.826-1.844-1.844   c0-1.018,0.826-1.844,1.844-1.844c1.018,0,1.844,0.826,1.844,1.844C66.222,43.028,65.397,43.853,64.378,43.853z"/>
    <path d="M48.241,62.309L48.241,62.309c-2.404,0-4.371-1.967-4.371-4.371v-0.505c0-2.404,1.967-4.371,4.371-4.371h0   c2.404,0,4.371,1.967,4.371,4.371v0.505C52.612,60.342,50.645,62.309,48.241,62.309z"/>
  </g>

</svg>
