<?xml version="1.0" encoding="utf-8"?>
<!-- Generator: Adobe Illustrator 21.0.2, SVG Export Plug-In . SVG Version: 6.00 Build 0)  -->
<svg version="1.1" id="Ebene_1" xmlns="http://www.w3.org/2000/svg" xmlns:xlink="http://www.w3.org/1999/xlink" x="0px" y="0px"
	 viewBox="0 0 172 110" style="enable-background:new 0 0 172 110;" xml:space="preserve">
<style type="text/css">
	.st0{fill:#FFFFFF;}
	.st1{fill:#ED1E79;}
</style>
<g>
	<path class="st0" d="M39.6,11.7l-5.8,26.6h-5.8l-3.7-18.5l-3.8,18.5h-5.8L9,11.7h5.1L17.7,32l4.1-20.3h4.6L30.7,32l3.7-20.3H39.6z"
		/>
	<path class="st0" d="M55.9,33.1h-10l-1.5,5.2H39l9-26.6h5.7l9.1,26.6h-5.3L55.9,33.1z M54.6,28.8l-3.7-12.2l-3.7,12.2H54.6z"/>
	<path class="st0" d="M87.1,11.7v26.6h-5V26.2H70.6v12.1h-5V11.7h5v10.1h11.4V11.7H87.1z"/>
	<path class="st0" d="M97.8,33.8h10.6v4.5H92.8V11.7h5V33.8z"/>
	<path class="st0" d="M11.2,43.1h9.5c2.3,0,5.1,0.1,7.9,2.1c4.4,3.1,5.1,8.5,5.1,11.5c0,4.6-1.5,9.2-5.5,11.5
		c-2.6,1.5-5.4,1.6-8.6,1.6h-8.5V43.1z M16.2,47.7v17.6h2.1c3.8,0,5.1-0.2,6.2-0.6c1.9-0.8,4-2.4,4-8c0-2.5-0.4-6.6-4.1-8.3
		c-1.4-0.6-2.2-0.7-5.6-0.7H16.2z"/>
	<path class="st0" d="M51.2,64.5h-10l-1.5,5.2h-5.3l9-26.6H49l9.1,26.6h-5.3L51.2,64.5z M49.9,60.2L46.3,48l-3.7,12.2H49.9z"/>
	<path class="st0" d="M75.6,47.7h-7.3v22.1h-5V47.7h-7.2v-4.5h19.5V47.7z"/>
	<path class="st0" d="M83.6,47.6v6.3h12.8v4.3H83.6v7.1h15v4.5H78.7V43.1h18.9v4.4H83.6z"/>
	<path class="st0" d="M118.1,43.1h4.9v26.6h-4.3L107,51.1l0.3,18.7h-4.9V43.1h4.5l11.8,18.8L118.1,43.1z"/>
	<path class="st0" d="M33,74.5v26.6h-5V89H16.6v12.1h-5V74.5h5v10.1H28V74.5H33z"/>
	<path class="st0" d="M43.6,79v6.3h12.8v4.3H43.6v7.1h15v4.5H38.7V74.5h18.9V79H43.6z"/>
	<path class="st0" d="M67.4,96.6H78v4.5H62.4V74.5h5V96.6z"/>
	<path class="st0" d="M86.1,85.6h11.1v4.3H86.1v11.3h-4.9V74.5h17.6V79H86.1V85.6z"/>
	<path class="st0" d="M106.6,79v6.3h12.8v4.3h-12.8v7.1h15v4.5h-19.9V74.5h18.9V79H106.6z"/>
	<path class="st0" d="M125.4,74.5h8.5c3.5,0,5.9,0,8.3,1.9c1.7,1.4,2.9,3.5,2.9,6.6c0,5.1-3.7,6.9-5.2,7.3l5.9,10.8h-5.7l-5.3-9.9
		h-4.4v9.9h-4.9V74.5z M130.3,78.8v8.3h1.7c1.7,0,2.3,0,3.3-0.1c1.1,0,4.7-0.2,4.7-4.1c0-0.6,0-2.5-2.1-3.6
		c-1.1-0.5-2.3-0.6-5.3-0.6H130.3z"/>
</g>
<rect x="114" y="11.7" class="st1" width="52.3" height="26.6"/>
<rect x="128.9" y="43.1" class="st1" width="37.4" height="26.6"/>
<rect x="151.3" y="74.6" class="st1" width="15" height="26.6"/>
</svg>
