<?xml version="1.0" encoding="utf-8"?>
<!-- Generator: Adobe Illustrator 22.0.1, SVG Export Plug-In . SVG Version: 6.00 Build 0)  -->
<svg version="1.1" id="Ebene_1" xmlns="http://www.w3.org/2000/svg" xmlns:xlink="http://www.w3.org/1999/xlink" x="0px" y="0px"
	 viewBox="0 0 75 77.5" style="enable-background:new 0 0 75 77.5;" xml:space="preserve">
<g transform="scale(1 -1)">
	<g transform="translate(0 -75)">
		<g>
			<path fill='#FFFFFF' marker-start="none" marker-end="none" d="M44.6,1.6c-0.2,0-0.3,0.1-0.5,0.1c0,0,0,0,0,0c0,0,0,0,0,0c-0.1,0-0.2,0-0.2,0.1
				c-0.2,0.1-0.5,0.1-0.7,0.2c0,0-0.1,0.1-0.1,0.1c-0.1,0.1-0.2,0.1-0.3,0.2c-0.2,0.1-0.3,0.2-0.4,0.3c-0.1,0-0.3,0.1-0.4,0.1
				c-0.7,0.2-1.4,0.4-1.8,1C40,3.8,40,3.9,39.9,4c0,0.1-0.1,0.3-0.1,0.4c0,0.1,0.1,0.3,0.2,0.3c0,0,0,0,0.1,0c0,0.2,0,0.4,0,0.6
				c0,0.1,0.1,0.1,0.1,0.2c0.1,0.1,0.2,0.1,0.3,0.2c0.6,0.2,1.1-0.1,1.6-0.3c0.1,0,0.1,0,0.2-0.1c0.7,0.1,1.4,0.3,2.1,0.1
				c0,0,0.1,0.1,0.1,0.1c0.1,0,0.1,0.1,0.2,0l0,0l0,0.1c0.1,0.1,0.3,0.1,0.4-0.1c0-0.1,0.1-0.1,0.1-0.2c0.1-0.2,0.2-0.3,0.2-0.5
				c0-0.1,0-0.2,0-0.3c0-0.2,0-0.3-0.2-0.4c0,0-0.1,0-0.1-0.1c0-0.1,0-0.1,0-0.2c0-0.1,0-0.4,0-0.5c0.1-0.4,0.1-0.9,0.1-1.3
				c0-0.3,0-0.6-0.5-0.5C44.8,1.5,44.7,1.6,44.6,1.6z M59.7,1.6c-0.2,0-0.3,0.1-0.5,0.2c0,0,0,0-0.1,0c-0.3,0-0.5,0.1-0.8,0.2
				c-0.1,0-0.2,0-0.2,0.1c-0.1-0.1-0.2-0.1-0.3-0.1C57.5,2,57.2,2.1,57,2.3c-0.1,0.1-0.2,0.2-0.2,0.4c0,0-0.1,0-0.1,0
				c0,0-0.1,0.1,0,0.2c0,0,0-0.1,0-0.1c-0.1,0.2-0.1,0.4-0.2,0.6c0,0,0,0,0,0c-0.1,0.1-0.2,0.2-0.3,0.2c-0.3,0.3-0.7,0.5-1,0.8
				c-0.1,0.1-0.3,0.2-0.5,0.3c-0.1,0.1-0.2,0.1-0.3,0.2c-0.1,0.1-0.2,0.1-0.3,0.2l0,0.1c0.2-0.1,0.4-0.2,0.6-0.3
				c0.5-0.3,1-0.7,1.4-1c0.1-0.1,0.2-0.2,0.3-0.2c0,0.1,0,0.1,0,0.2c0,0.2-0.1,0.3-0.1,0.4l-0.1,0.2l-0.1,0.1c0,0-0.1,0.1-0.2,0.1
				c-0.1,0.1-0.3,0.1-0.4,0.2c-0.1,0.1-0.3,0.2-0.4,0.2c-0.1,0.1-0.3,0.2-0.3,0.3c0,0.1,0,0.3,0,0.4c0,0,0,0.1,0,0.1
				c0,0.2,0,0.4,0.1,0.5c0,0.1,0.2,0.2,0.3,0.2l0,0c0,0,0,0,0,0.1c0,0,0,0-0.1,0.1C55.1,6.9,55,7,55,7.1c-0.1,0.1-0.2,0.1-0.2,0.2
				c-0.1,0.1-0.3,0.1-0.5,0.2c-0.5,0.3-1,0.6-1.3,1.1c0,0,0,0.1,0,0.1c-0.8,0.7-1.3,1.5-1.5,2.6c0,0,0,0.1,0,0.1
				c-0.1,0.3-0.1,0.6-0.1,0.8c0,0.5-0.1,1.2-0.3,1.6l-0.2,0.3l-0.3,0.2c-0.1,0.1-0.2,0.1-0.3,0.1c-0.3,0.1-0.6,0.2-0.9,0.3
				c-0.2,0.1-0.4,0.2-0.6,0.3c-0.4,0.2-0.7,0.5-1,0.8c-0.5,0.5-1,1-1.5,1.6c0,0-0.1,0.1-0.1,0.1c0,0,0,0,0,0
				c-0.2,0.2-0.5,0.5-0.7,0.8c-0.4,0.4-0.7,0.8-1.1,1.2c0,0-0.1,0.1-0.1,0.1c-0.2,0-0.4,0.1-0.6,0.2c-0.2,0.2-0.4,0.5-0.5,0.7l0,0
				l-0.8,0.2c-0.3,0.1-0.5,0.2-0.7,0.4l-0.1,0.1l0,0c-0.2-0.1-0.4-0.3-0.5-0.6c0-0.1-0.1-0.2-0.1-0.4c0-0.1,0-0.2,0-0.3
				c0-0.1,0-0.1,0-0.2c0-0.1,0-0.1,0-0.2c0-0.2,0-0.4,0.1-0.5l0.1-0.1l0,0c0,0,0.1-0.1,0.1-0.1c0.1-0.1,0.3-0.2,0.4-0.3
				c0.2-0.1,0.5-0.2,0.7-0.4c0.3-0.2,0.7-0.4,0.9-0.7c0.1-0.1,0.1-0.3,0.1-0.5c0-0.1,0-0.3,0-0.4c0,0,0-0.1,0-0.1
				c0.1-0.5,0.2-0.8,0.5-1.2l0.2-0.2l0.3-0.3c0.1-0.1,0.2-0.2,0.4-0.3c0.4-0.2,0.8-0.3,1.2-0.5c0.1-0.1,0.6-0.3,0.6-0.4
				c0-0.1,0.1-0.1,0-0.2c0.2-0.3,0.6-0.5,0.9-0.7c0.2-0.1,0.4-0.2,0.7-0.3c0.1-0.1,0.3-0.1,0.4-0.2c0.3-0.1,0.8-0.4,1-0.6
				c0,0,0.1-0.1,0.1-0.1c0.5-0.4,1-0.8,1.1-1.4c0-0.3-0.1-0.6-0.2-0.8c0-0.2,0-0.4-0.1-0.5c0,0-0.2-0.1-0.3-0.1c-0.1,0-0.2,0-0.3,0
				c-0.1,0-0.1,0-0.2,0c0,0-0.1,0-0.1,0c-0.1,0-0.1,0-0.2,0c-0.2,0.1-0.5,0.2-0.7,0.3L48.5,9l0-0.5l0,0c0.1-0.1,0.2-0.2,0.2-0.3
				c0-0.1,0.1-0.3,0.1-0.4c0-0.4-0.1-0.7-0.3-1.1c0-0.1,0-0.1,0-0.2c0-0.1-0.2-0.2-0.3-0.4c-0.2-0.3-0.4-0.6-0.6-0.9
				c-0.1-0.2-0.4-0.7-0.6-0.8c-0.1,0-0.2,0-0.2,0c-0.1,0-0.3,0-0.4,0.1c-0.1,0-0.2,0-0.2,0.1c-0.1,0-0.1,0.1-0.2,0.2
				c-0.2,0.3-0.2,0.7,0,1C46,6,46.1,6.2,46.2,6.4c0,0.1,0.1,0.3,0.1,0.5l0,0.2l-0.2,0.6c0,0,0,0.1,0,0.1c-0.1,0.1-0.2,0.2-0.4,0.3
				c-0.1,0.1-0.3,0.2-0.4,0.3c-0.3,0.2-0.6,0.5-0.9,0.7c-0.3,0.2-0.6,0.5-1,0.8c-0.5,0.4-1,0.8-1.5,1.2c-0.2,0.1-0.3,0.3-0.5,0.4
				l-0.1,0c-0.2,0.1-0.4,0.3-0.6,0.4c0,0,0,0,0,0l-0.5,0.3c-0.2,0.2-0.5,0.4-0.7,0.7l0.1-0.1c-0.1,0.1-0.2,0.2-0.3,0.4
				c-0.1,0.2-0.3,0.4-0.4,0.6c-0.1,0.2-0.2,0.4-0.3,0.5l-0.3,0.5c-0.1,0.3-0.3,0.6-0.4,0.9c-0.2,0.3-0.3,0.7-0.5,1
				c-0.5,0.6-1,1.1-1.5,1.7l0,0l0,0c-0.1,0-0.2,0.1-0.3,0.1c-0.3,0.1-0.8,0.1-1.1,0c-0.3-0.1-0.5-0.1-0.8-0.2
				c-0.1-0.1-0.2-0.2-0.2-0.2c-0.3-0.2-0.5-0.4-0.8-0.6c0,0,0,0,0,0c0,0,0,0-0.1,0c0,0,0,0,0,0c-0.3-0.2-0.7-0.3-1.1-0.4
				c-0.1,0-0.3,0-0.4,0c-0.2,0-0.4,0-0.6,0c-0.1,0-0.2,0-0.3,0c-0.1,0-0.3,0-0.4,0c-0.1,0-0.2,0.1-0.3,0.1c-0.4,0.2-0.7,0.4-1.1,0.6
				c-0.1,0.1-0.5,0.2-0.6,0.2c0,0-0.1,0-0.1,0c-0.1,0-0.2,0-0.3,0l-0.4-0.1l-0.1-0.1c0,0-0.1,0-0.1-0.1c0.1-0.1,0.2-0.2,0.3-0.3
				c0,0,0-0.1,0-0.1c0,0-0.1,0-0.1,0c-0.1,0.1-0.2,0.2-0.3,0.3c-0.1-0.1-0.1-0.2-0.1-0.2c-0.1-0.1-0.1-0.3-0.1-0.4
				c-0.1-0.3-0.1-0.5-0.2-0.8c0.1-0.1,0.3-0.2,0.5-0.2c0.1,0,0.2,0,0.2-0.1c0,0-0.3,0-0.3,0.1c-0.1,0.1-0.3,0.1-0.4,0.2c0,0,0,0,0,0
				c0,0,0,0,0,0c0,0,0,0,0,0c0-0.1,0-0.2-0.1-0.2c0,0,0,0,0,0c-0.1-0.2-0.2-0.4-0.4-0.5c-0.1-0.1-0.2-0.2-0.3-0.2
				c-0.4-0.2-0.9-0.5-1.3-0.6c-0.1,0-0.2-0.1-0.4-0.2c-0.1,0-0.1,0-0.2-0.1c-0.3-0.3-0.7-0.5-1.1-0.7c-0.4-0.3-0.9-0.6-1.3-0.7
				c0,0-0.1,0-0.1,0c0.1,0,0.2-0.1,0.3-0.1c0,0,0.1-0.1,0-0.1c0,0-0.1-0.1-0.1,0c-0.1,0.1-0.3,0.1-0.4,0.2l0,0l-0.2-0.1
				c-0.1,0-0.2-0.1-0.3-0.1c-0.2-0.1-0.4-0.1-0.6-0.3c-0.2-0.1-0.2-0.2-0.3-0.4c0.1,0,0.2-0.1,0.3-0.1c0,0,0,0,0-0.1c0,0,0,0-0.1,0
				c-0.1,0-0.2,0.1-0.3,0.2c0,0,0,0,0,0c-0.1-0.1-0.1-0.2-0.2-0.2c-0.1-0.1-0.2-0.1-0.2-0.2l-0.1-0.3l0-0.3c0-0.1,0.1-0.2,0.1-0.3
				c0-0.1,0.1-0.2,0.1-0.2c0.1-0.1,0.2-0.5,0.2-0.7c0-0.2,0-0.4-0.1-0.5c0,0-0.1-0.1-0.2-0.1c-0.4-0.1-0.7-0.2-1-0.2
				c-0.4-0.1-0.9-0.1-1.3-0.2c-0.1,0-0.2,0-0.3,0c0,0,0,0,0,0c0,0-0.1,0-0.1,0c0,0,0,0,0,0l-0.3-0.1L15,8c-0.6-0.5-1.2-1-1.9-1.2
				c0,0,0,0-0.1,0c-0.4-0.2-1.1-0.2-1.6-0.1c-0.5,0.1-1,0.1-1.5,0.2C9.6,7,9.3,7.1,9,7.1L8.2,7.3L7.7,7.2C7.5,7.1,7.3,7.1,7.1,7
				C6.9,7,6.8,7,7,7C6.9,7,6.8,7,6.7,7c-0.1,0-0.2,0-0.3,0.1C6.2,7.2,6,7.4,5.8,7.5C5.7,7.6,5.5,7.8,5.5,8c0,0.1-0.1,0.1-0.1,0.2
				c0,0.1,0,0.1-0.1,0.2C5.2,8.6,5.1,9,5.1,9.3C5,9.6,5,9.9,4.9,10.1c0,0.1-0.1,0.2-0.1,0.2l-0.1,0.2l-0.4,0.3
				c-0.1,0.1-0.3,0.2-0.4,0.2c-0.1,0.1-0.2,0.1-0.3,0.1c-0.1,0.1-0.3,0.2-0.5,0.2c-0.1,0-0.2,0.1-0.3,0.1c-0.2,0-0.4,0.1-0.5,0.1
				c-0.1,0-0.2,0-0.3,0c-0.1,0-0.2,0-0.2,0c-0.2,0.1-0.2,0.2-0.2,0.4c0,0.1,0,0.2,0,0.3c0,0.1,0.1,0.2,0.2,0.2l0,0
				c0,0.1,0.1,0.2,0.1,0.3c0,0.1,0.1,0.2,0.2,0.3c0.2,0.3,0.4,0.6,0.5,1c0,0,0,0.1,0,0.1c0.1,0.2,0.1,0.3,0.2,0.5
				c0.1,0.2,0.2,0.3,0.3,0.5c0.2,0.4,0.5,0.7,0.7,1.1l1.5,2.4l0,0.1c0,0.2,0.2,0.6,0.2,0.7c0,0,0,0.1,0.1,0.2l0.1,0.1l0.1,0.1
				c0.1,0.1,0.1,0.3,0.1,0.5c0,0.1,0,0.1,0,0.2c-0.1,1-0.2,2.1,0.5,2.9c0.1,0.1,0.2,0.1,0.2,0.2c0.1,0,0.1,0.1,0.2,0.1
				c0.1,0.1,0.1,0.1,0.2,0.2C6.8,24,6.9,24.1,7,24.2c0,0,0.1,0.1,0.1,0.1c0,0.1,0.2,0.2,0.2,0.2c0,0,0.1,0,0.1,0
				c0.2,0.1,0.5,0,0.7,0c0.4,0,0.8-0.1,1.3-0.1c0.6-0.1,1.2-0.2,1.9-0.3c0.1,0,0.2-0.1,0.3-0.1c0,0,0.1-0.1,0.2-0.1
				c0.2-0.1,0.5-0.2,0.7-0.3c0.2-0.1,0.4-0.2,0.5-0.3c0.2-0.1,0.4-0.2,0.5-0.3c0.1,0,0.2-0.1,0.3-0.1c0.1,0,0.1-0.1,0.2-0.1l0.1-0.1
				l0.1,0c0.1,0,0.2,0,0.4-0.1l0.1,0l0.1,0c0.2,0,0.5-0.2,0.7-0.3c0.4-0.2,0.8-0.5,1.3-0.7c0.4-0.2,0.8-0.2,1.2-0.1l0.2,0
				c0.1,0.1,0.2,0.1,0.2,0.2c0.1,0,0.1,0,0.2,0c0.1,0,0.1,0.1,0.2,0.2c0.1,0.1,0.1,0.2,0.1,0.2c0.2,0.4,0.3,0.8,0.4,1.2
				c0,0.1,0.1,0.2,0.1,0.4c0,0.1,0,0.2,0.1,0.4c0,0.1,0.1,0.3,0.1,0.4c0,0,0,0.1,0.1,0.1c0,0,0,0,0,0.1c0,0.2,0.1,0.4,0.1,0.5
				c0,0.4,0.1,0.8,0.2,1.2c0,0.1,0.1,0.2,0.1,0.4c0,0,0,0,0,0.1c0,0.2,0,0.4,0.1,0.6l0,0.6c0,0-0.1,0.1-0.1,0.1
				c-0.3,0.3-0.7,0.5-1,0.8c-0.2,0.2-0.4,0.3-0.6,0.5l0,0.1l0.1,0c0.1-0.2,0.4-0.4,0.6-0.5c0.3-0.2,0.6-0.5,1-0.7
				c-0.2,0.3-0.6,0.6-0.9,0.9c-0.3,0.3-0.6,0.5-0.9,0.8c-0.4,0.4-0.8,0.7-1,1.2c0,0-0.1,0.1-0.1,0.1c-0.1,0.1,0,0.2,0,0.2
				c0,0.1,0,0.3,0,0.4c0,0.1,0.1,0.1,0.1,0.2c0.1,0.2,0.4,0.4,0.6,0.6c0,0,0.1,0.1,0.1,0.1c0.1,0,0.5,0,0.6,0c0.1,0,0.1,0,0.2-0.1
				c0.4,0.1,0.8,0.1,1.2,0c0.2,0,0.4-0.1,0.6-0.1c0.1,0,0.2,0,0.3,0c0.1,0,0.3,0,0.4,0.1c0.1,0.1,0.1,0.3,0.1,0.4
				c0,0.2,0.2,0.3,0.4,0.3c0,0,0,0,0,0c0.2,0.3,0.3,0.5,0.7,0.6c0.5,0.1,1-0.4,1.3-0.8l0.2-0.3l0.3,0.1c0.2,0.1,0.3,0.1,0.4,0.2
				c0,0.1,0,0.1,0,0.2c0.1,0.1,0.2,0.3,0.3,0.3c0.2,0.1,0.4,0.1,0.7,0.1c0.4,0.3,0.7,0.5,1.2,0.5l0.8,0.7c0.1,0.1,0.3,0.2,0.4,0.3
				c0.1,0,0.2,0.1,0.3,0.1c0,0,0.1,0,0.2,0.1c0.1,0,0.1,0,0.2,0.1c0.1,0,0.2,0.1,0.4,0.1c0,0,0.1,0,0.1,0.1c0,0,0,0,0,0
				c-0.1,0.1-0.2,0.2-0.4,0.3c0,0,0,0.1,0,0.1c0,0,0.1,0,0.1,0c0.1-0.1,0.3-0.2,0.4-0.3c0,0,0,0,0,0c0.1,0.1,0.2,0.1,0.3,0.2
				c0.3,0.1,0.5,0.3,0.8,0.4l0,0c-0.1,0.1-0.3,0.3-0.4,0.4l0,0.1l0.1,0c0.1-0.2,0.3-0.3,0.4-0.5c0.2,0.3,0.4,0.6,0.5,0.9
				c0,0.1,0.1,0.2,0.2,0.3c0,0-0.1,0.1-0.1,0.1c0,0,0,0.1,0,0.1c0,0,0.1,0,0.1,0c0,0,0,0,0.1-0.1c0.1,0.1,0.2,0.2,0.2,0.3
				c0.1,0.1,0.2,0,0.3,0c0,0,0,0,0,0c0.1,0.2,0.2,0.3,0.3,0.5c0.2,0.2,0.6,0.4,0.8,0.4c0.1,0,0.1,0,0.2,0c0.1,0,0.2,0,0.3,0
				c0.1,0.1,0.3,0.2,0.4,0.3c0.2,0.1,0.5,0.2,0.8,0.1c0,0,0,0,0,0c0,0,0,0,0,0c0,0,0,0,0,0c-0.1,0-0.1,0.2-0.1,0.2
				c0,0.1,0.2,0.1,0.2,0.1c0,0,0.1-0.1,0.1-0.1c0,0,0.1,0,0.1,0.1c-0.1,0.1-0.2,0.2-0.4,0.3l0,0c0.1-0.1,0.2-0.2,0.3-0.3
				c0,0,0,0,0,0c0,0,0.1,0.1,0.1,0.1c0.1,0.1,0.4,0.1,0.5,0c0.1-0.1,0.1-0.3,0-0.4c0.1,0,0.1,0,0.1,0c0,0,0,0,0,0.1
				c0.1,0.1,0.2,0.2,0.4,0.1l0,0l0,0l0,0.2c0,0.4,0.1,0.7,0.2,1c-0.2,0.2-0.5,0.5-0.6,0.8c0,0,0,0.1,0,0.1s0.1,0,0.1,0
				c0.2-0.2,0.3-0.5,0.6-0.7c0,0,0,0.1,0,0.1c0.1,0.2,0.5,0.6,0.7,0.7l0,0l0,0c0,0.2-0.1,0.4-0.1,0.6c0,0,0,0,0,0
				c-0.1,0.1-0.2,0.4-0.2,0.6c0,0.1,0,0.3,0,0.4c0.1,0.6,0.3,1.3,0.6,1.8c0.1,0.1,0.2,0.3,0.2,0.4c0.1,0.1,0.1,0.2,0.2,0.3
				c0,0.1,0.1,0.1,0.1,0.2c0.4,0.6,1.2,1.1,1.9,0.7c0.1-0.1,0.2-0.2,0.3-0.3c0-0.1,0.1-0.1,0.1-0.2c0.2-0.5,0.2-1.2,0.2-1.7
				c0-0.2,0-0.4,0-0.6l0-0.1c0.1-0.3,0.2-0.5,0.4-0.8c0.1,0,0.1-0.1,0.2-0.1c0.4-0.2,0.6-0.6,0.5-1.1c0-0.1,0-0.2-0.1-0.3
				c-0.1-0.2-0.4-0.1-0.5-0.2c-0.2-0.1-0.4-0.1-0.6-0.3c0-0.2,0-0.5,0.1-0.7l0.1-0.1l0.2-0.1l0.1,0c0.1,0.1,0.4,0.3,0.4,0.4
				c0.1,0.1,0.2,0.2,0.3,0.3c0.2,0.2,0.3,0.4,0.5,0.5c0.1,0.1,0.4,0.3,0.6,0.3c0.1,0,0.1,0,0.2-0.1c0.1,0,0.1,0,0.2,0l0,0
				c0.2-0.1,0.3-0.4,0.4-0.6c0.2-0.1,0.5-0.3,0.7-0.5c0.2-0.2,0.5-0.4,0.7-0.4c0,0,0.1,0,0.1,0c-0.4,0.4-0.8,0.8-1.1,1.2l0,0.1
				l0.1,0c0.3-0.5,0.7-0.9,1.2-1.3c0.1,0,0.2,0,0.3,0l0.5,0.2l0.5,0.3c-0.1,0.1-0.2,0.2-0.3,0.4c-0.2,0.2-0.4,0.4-0.6,0.6
				c0,0,0,0.1,0,0.1c0,0,0.1,0,0.1,0c0.2-0.3,0.5-0.5,0.8-0.7c0.1-0.1,0.1-0.1,0.2-0.2l0.1,0.1c0.9,0.5,2.1,1.1,3.2,1.1
				c0.1,0,0.2,0,0.3,0c0.1,0,0.2,0,0.2,0c0.3-0.1,0.6-0.3,0.9-0.5c0.1-0.1,0.3-0.2,0.4-0.3c-0.2,0.2-0.4,0.4-0.5,0.6
				c0,0,0,0.1,0,0.1c0,0,0.1,0,0.1,0c0.1-0.2,0.3-0.4,0.5-0.6c0.1-0.1,0.2-0.2,0.3-0.3c0.1,0,0.2,0,0.2,0c0.1,0,0.1,0.1,0.2,0.2l0,0
				c0,0.2,0,0.4,0,0.6l0,0.5l-0.1,0.2c-0.1,0.1-0.2,0.3-0.4,0.4c-0.3,0.1-0.8,0.2-1,0.4c-0.2,0.2-0.2,0.4-0.2,0.6
				c-0.1,0.1-0.2,0.2-0.2,0.3c0,0.1,0,0.4,0,0.6c0.1,0.3,0.2,0.6,0.4,0.8c0,0,0,0,0,0.1c0,0,0,0,0,0c0,0,0.1,0.1,0.1,0.1
				c0,0.1,0.1,0.2,0.1,0.3c0.1,0.3,0.2,0.7,0.4,1c0.1,0.3,0.4,0.6,0.7,0.8c0,0,0,0,0.1,0c0,0,0,0,0,0c0,0,0,0,0,0c0,0,0.1,0,0.1,0
				c0.3,0.1,0.6-0.1,0.8-0.2c0.2-0.1,0.4-0.2,0.6-0.2l0.1,0l0,0.1c0,0.1,0,0.2,0,0.3c-0.1,0.3-0.4,0.4-0.7,0.5
				c-0.1,0-0.2,0.1-0.3,0.1c-0.1,0-0.3,0.1-0.4,0.1c-0.1,0-0.3,0-0.4,0.1c-0.2,0.1-0.7,0.2-0.9,0.4c0,0.1,0,0.2,0,0.3
				c0,0.2,0.2,0.5,0.4,0.7c0.2,0.3,0.5,0.7,0.7,1c-0.2,0.3-0.5,0.6-0.7,0.9c0,0,0,0.1,0,0.1c0,0,0.1,0,0.1,0
				c0.2-0.3,0.4-0.6,0.7-0.9c0,0,0.1,0.1,0.1,0.2c0.1,0.1,0.1,0.3,0.2,0.4c0,0.1,0.1,0.2,0.1,0.2l-0.1,0.2l-0.5,0.3
				c-0.4,0.2-0.9,0.3-1.2,0.6c-0.3,0.3-0.5,0.9-0.7,1.3c-0.1,0.4-0.2,0.8-0.3,1.3c0,0.2,0,0.4-0.1,0.6c0,0.2,0,0.4,0,0.7
				c0,0.4,0,0.7,0.1,1.1c0,0.1,0,0.2,0.1,0.2c0.1,0.2,0.2,0.4,0.3,0.6c0.1,0.2,0.2,0.4,0.3,0.6c0,0-0.1,0-0.1,0c0,0,0,0.1,0,0.1
				c0,0,0.1,0,0.1,0c0,0,0.1,0,0.1,0c0.1,0.2,0.2,0.3,0.3,0.5c0.3,0.6,0.7,1.2,0.6,1.9l-0.1,0.3l-0.1-0.2c-0.2-0.2-0.4-0.5-0.6-0.7
				c0,0,0,0,0,0c0.1,0.1,0.2,0,0.2-0.1c0.1-0.2,0-0.4-0.2-0.4c-0.1,0-0.3-0.1-0.4-0.2c-0.2-0.1-0.3-0.2-0.5-0.3
				c-0.5-0.5-0.8-1.1-0.9-1.8c0-0.4-0.1-0.7-0.2-1.1c0-0.1,0-0.2-0.1-0.3c0-0.1,0-0.2-0.1-0.2c-0.2-0.4-0.4-0.8-0.7-1.1
				c-0.1-0.2-0.2-0.3-0.3-0.5l-0.2-0.5l0-0.1c0-0.1,0-0.1,0-0.2c0-0.2,0-0.5,0.1-0.7c0.1-0.4,0.2-0.8,0.2-1.2c0-0.1,0.1-0.1,0.1-0.2
				c0,0,0-0.1,0.1-0.1c0,0,0.1,0.1,0.2,0.1c0,0.1,0.1,0.1,0.2,0c0.1,0,0.1-0.1,0-0.2c0-0.2,0-0.4-0.1-0.5c0,0,0,0,0-0.1
				c0.1-0.3,0.2-0.7,0.2-1c0-0.2-0.1-0.5-0.2-0.7c-0.1-0.2-0.2-0.4-0.3-0.6c-0.1-0.1-0.2-0.3-0.3-0.4c-0.1-0.1-0.1-0.2-0.2-0.3
				c0-0.1,0-0.1,0-0.2c0.1-0.1,0.2-0.2,0.3-0.3c0,0,0-0.1,0-0.2c0,0-0.1,0-0.2,0c-0.1,0.1-0.2,0.1-0.2,0.2c0-0.2-0.1-0.4-0.1-0.6
				c0-0.1,0-0.2-0.1-0.3c0.1-0.1,0.2-0.2,0.3-0.2c-0.1,0.1-0.2,0.1-0.3,0.2c0-0.3-0.1-0.5-0.1-0.8c-0.1-0.5-0.2-1-0.4-1.5
				c-0.1-0.3-0.3-0.5-0.5-0.7c0,0,0,0,0,0c0-0.1-0.1-0.2-0.1-0.3c0,0-0.1,0-0.1,0c-0.3,0-0.6,0-0.9,0.1c-0.1,0-0.2,0-0.3,0l-0.1-0.1
				l-0.2-0.2c-0.1-0.1-0.1-0.2-0.2-0.4c0,0,0.1-0.1,0.1-0.1c0,0,0-0.1,0-0.1c0,0-0.1,0-0.1,0c0,0-0.1,0-0.1,0.1
				c0-0.1-0.1-0.3-0.1-0.4c0,0,0,0,0,0c0-0.1,0-0.1,0-0.1c0-0.1-0.1-0.2-0.2-0.2c0,0-0.1-0.1-0.1-0.1c-0.2-0.1-0.5,0-0.7,0.1
				c-0.3,0-0.7,0.2-0.9,0.4c-0.1,0.1-0.1,0.1-0.1,0.2c0,0,0,0.1-0.1,0.1c-0.1,0.1-0.1,0.1-0.1,0.2c-0.1,0.2-0.1,0.4-0.1,0.6
				c0,0.3,0,0.5,0,0.8l0,0.6c-0.1,0.1-0.1,0.1-0.2,0.2c-0.1,0.1-0.3,0.3-0.4,0.4c-0.2,0.1-0.3,0.3-0.5,0.5c-0.1,0.1-0.2,0.2-0.3,0.2
				c-0.1,0.1-0.2,0.1-0.2,0.2c-0.1,0.1-0.2,0.1-0.3,0.2c0,0,0,0.1,0,0.1c0,0,0.1,0,0.1,0c0.1-0.1,0.2-0.1,0.3-0.2
				c0.1-0.1,0.2-0.1,0.3-0.2c0.1-0.1,0.2-0.1,0.3-0.2c0.3-0.2,0.6-0.5,0.9-0.8c0,0,0.1-0.1,0.1-0.1v0l0,0l-0.1,0.4
				c-0.2,0.4-0.5,0.8-0.8,1.2c-0.4,0.6-0.9,1.3-0.8,2.1c-0.1,0.2-0.3,0.4-0.4,0.7l0,0.1c-0.1,0-0.1,0-0.2-0.1
				c-0.1,0-0.2-0.1-0.3-0.1c-0.1,0-0.2-0.1-0.4-0.1l0,0l-0.1-0.1c0-0.1-0.1-0.1-0.1-0.2c-0.5-0.7-0.8-1.5-1.7-1.7
				c-0.2,0-0.4,0-0.6,0c-0.2,0.1-0.3,0.2-0.5,0.3c0,0,0,0,0,0c-0.2,0-0.3,0-0.5,0.1c-0.3,0.3-0.5,0.6-0.5,1c0,0,0,0.1,0,0.1
				c0,0.1,0,0.1,0,0.2c0,0.1,0,0.2,0,0.3c0,0,0,0.1,0,0.1c0,0.1,0,0.2,0,0.2c0,0.6,0,1.1,0.1,1.7c0,0.2,0,0.3,0,0.5l0,0.2l0,0.3
				c-0.1,0.8-0.3,1.6-0.1,2.4c0,0.2,0.1,0.5,0.2,0.7c0,0.1,0,0.1,0.1,0.2c0,0,0,0,0,0c0,0,0,0.1,0,0.1c0,0.1,0.1,0.1,0.1,0.2
				c0.1,0.1,0.2,0.2,0.2,0.2c0.3,0.2,0.5,0.4,0.8,0.6c0.2,0.1,0.4,0.2,0.6,0.2c0.1,0.2,0.3,0.4,0.5,0.4c0,0,0.1,0,0.2,0l0.1,0
				l0.8,0.6c0.8,0.6,1.5,1.3,2.2,1.9c0.1,0.1,0.3,0.1,0.4,0c0.1,0.2,0.3,0.3,0.4,0.5c0.1,0.1,0.1,0.2,0.1,0.3c0,0.1,0.1,0.4,0.2,0.4
				l0,0.1c0,0,0,0.2,0,0.2c0,0.1,0,0.1,0,0.2c0,0,0.1,0.2,0.1,0.2l0,0c0,0,0,0.1,0,0.1c0,0.1,0,0.2,0.1,0.3l0.1,0.2l0.3,0.8
				c0.1,0.3,0.1,0.6,0.2,0.9c0.1,0.4,0.2,0.8,0.3,1.2c0,0.1,0.1,0.2,0.1,0.3c0.1,0.1,0.1,0.2,0.2,0.4c0.2,0.3,0.4,0.5,0.7,0.8
				c0.2,0.1,0.3,0.3,0.5,0.4l0.1,0.2l0.3,0.8c0,0.1,0,0.2,0.1,0.2c0.1,0.2,0.1,0.4,0.1,0.6c0,0.1,0,0.2,0,0.2c0,0.1,0.2,0.3,0.3,0.4
				c0.3,0.2,0.6,0.3,1,0.4c0.1,0.1,0.2,0.2,0.3,0.2c0.2,0,0.4,0,0.6-0.1c0.1,0,0.2,0,0.3,0.1l0,0l0.1,0.1c0,0.1,0.1,0.2,0.1,0.3
				c0,0.1,0,0.2,0,0.3c0,0.2,0,0.5,0.1,0.7c0.2,0.2,0.4,0.4,0.7,0.5c0.3,0.2,0.8,0.4,1.1,0.5c0.1,0,0.3,0.1,0.5,0.1c0,0,0,0,0,0l0,0
				c0,0,0,0,0,0c1.1,0.4,2,0.6,3.2,0.6c0.3,0,0.6-0.1,0.9-0.1c0.6-0.1,1.1-0.3,1.6-0.4c0.1-0.1,0.3-0.1,0.4-0.2
				c0.1-0.1,0.2-0.2,0.4-0.3l0.2-0.1l0,0c0.1,0,0.1,0,0.2,0l1.7-0.2l0.2,0c0.1,0,0.3,0,0.5-0.1c0,0,0,0,0,0c0.2,0,0.5,0,0.7,0
				c0.1,0,0.2,0,0.3,0c0,0,0.1,0,0.2,0c0.1,0,0.2-0.1,0.4-0.1c0.1,0,0.3,0,0.4-0.1c0.1,0,0.1,0,0.2-0.1c0.1,0,0.3-0.1,0.4-0.2
				c0.3-0.1,0.6-0.3,0.8-0.5c0.2-0.2,0.4-0.4,0.6-0.6c0.2-0.3,0.4-0.6,0.4-0.9c0-0.1,0.1-0.4,0.1-0.5c0-0.1,0-0.3,0-0.4
				c0-0.1-0.1-0.3-0.1-0.4c-0.2-0.5-0.6-1-1-1.3c-0.4-0.3-0.8-0.4-1.2-0.3c-0.3-0.1-0.5-0.2-0.8-0.3c-0.1,0-0.3-0.1-0.4-0.1l-0.1,0
				L60,66l0,0c0-0.1,0-0.2,0-0.3c0-0.2-0.1-0.4-0.1-0.5c0.1-0.2,0.2-0.5,0.4-0.6c0.2-0.3,0.4-0.6,0.7-0.8c0.2,0,0.5-0.1,0.7-0.1
				c0.2,0,0.4-0.1,0.6-0.1l0.3-0.1l0,0.2c-0.1,0.1-0.3,0.2-0.4,0.2c-0.1,0.1-0.3,0.2-0.3,0.3c0,0.1,0,0.2,0,0.3
				c0.1,0.2,0.2,0.4,0.5,0.5c0,0,0,0.1,0.1,0.1c0.1,0.1,0.3,0.1,0.5,0.1c0.2,0,0.5,0,0.7-0.1c0.3,0,0.6-0.1,0.8-0.2l0,0l0.1,0
				c0,0.1-0.1,0.2-0.1,0.2c-0.1,0.1-0.2,0.3-0.3,0.4c-0.2,0.4-0.4,0.9-0.3,1.3c0,0.6,0.5,1,1,1.2c0.1,0.1,0.3,0.1,0.5,0.2l0,0l0,0.1
				c0,0.2,0,0.3,0,0.5c0,0.1,0,0.1,0,0.2c0,0.1,0,0.1,0,0.2c0,0.1,0.1,0.2,0.1,0.2c0.1,0.1,0.2,0.2,0.3,0.2h0.5l0.2,0l-0.2,0.3
				c-0.2,0.3-0.4,0.7-0.4,1.1c0,0.1,0,0.2,0,0.3c0.1,0.2,0.3,0.3,0.4,0.4c0.2,0.1,0.4,0.1,0.5-0.1c0.1-0.2,0.1-0.4-0.1-0.5l-0.2-0.1
				l0-0.1c0-0.2,0.2-0.5,0.3-0.6c0.1-0.3,0.3-0.5,0.4-0.8c0-0.1,0-0.2,0.1-0.3c0.1-0.2-0.1-0.5-0.4-0.4c-0.2,0-0.4,0.1-0.6,0.1
				c0,0-0.1,0-0.1,0l-0.1,0l0,0c0-0.1,0-0.2,0-0.2c0-0.2,0-0.5,0-0.7c0-0.1-0.1-0.1-0.1-0.2c-0.1-0.1-0.3-0.2-0.4-0.2c0,0,0,0,0-0.1
				c0-0.1-0.1-0.2-0.2-0.3c-0.1-0.2-0.5-0.4-0.7-0.5c0,0.1,0,0.1,0,0l0-0.2l0,0l0,0c0.1-0.3,0.2-0.5,0.4-0.7c0,0,0-0.1,0.1-0.1
				c0.1-0.1,0.1-0.2,0.2-0.3c0-0.1,0.1-0.1,0-0.3c0,0,0,0,0,0c0,0,0-0.1,0-0.2c0,0,0,0,0-0.1c0-0.1,0-0.1,0-0.2c0-0.1,0-0.1,0-0.2
				c0-0.1-0.1-0.2-0.1-0.2c0,0-0.1-0.1-0.1-0.1c-0.1,0-0.1,0-0.2,0c-0.4,0-0.6,0.1-0.9,0.3c-0.2,0-0.4,0-0.5,0c-0.1,0-0.1,0-0.2,0
				l0.2-0.4c0,0,0,0,0,0c0,0,0.1,0,0.1-0.1c0.1,0,0.2-0.2,0.3-0.3c0-0.1,0-0.2,0-0.3c0-0.1,0-0.2,0-0.2c0-0.1-0.1-0.1-0.2-0.2
				c-0.1,0-0.1-0.1-0.1-0.1c0,0,0,0,0,0c-0.1-0.1-0.2-0.1-0.3,0c0,0,0,0,0,0c0,0-0.1,0-0.1,0c0,0,0-0.1,0-0.1
				c-0.1-0.2-0.2-0.2-0.4-0.2c-0.1,0-0.1,0.1-0.2,0.1c-0.1,0-0.2,0.1-0.2,0.1c-0.2,0.1-0.3,0.1-0.5,0.1c-0.4,0.1-1,0.3-1.3,0.6
				c0,0,0,0,0,0c-0.3,0.1-0.7,0.3-0.9,0.6c-0.1,0.1-0.1,0.2-0.2,0.3c-0.1,0.1-0.1,0.3-0.1,0.4c0,0.3,0.2,0.8,0.4,1.2
				c-0.1,0.4-0.1,0.9,0.3,1.2c0.1,0.1,0.2,0.1,0.4,0.2c0.2,0.1,0.6,0.1,0.8,0.1c0.1,0,0.2,0,0.3,0c0,0,0.1,0,0.1,0
				c0.1,0.1,0.2,0.1,0.3,0c0,0,0,0,0,0c0.1,0.1,0.2,0.1,0.4,0.2c0.1,0.1,0.2,0.2,0.3,0.2c0.2,0.2,0.6,0.5,0.6,0.8c0,0.1,0,0.2,0,0.2
				c0,0.1,0,0.2,0,0.3c0,0.1,0,0.1-0.1,0.2l-0.1,0.2l-0.1,0.1l0,0c0,0-0.1,0-0.1,0c-0.1,0-0.2,0-0.3,0c-0.3,0-0.5,0-0.8,0
				c-0.1,0-0.1,0.1-0.2,0.1c0,0-0.1,0-0.1,0.1c-0.2,0.1-0.3,0.2-0.5,0.4c-0.3,0.3-0.6,0.6-0.9,0.9c-0.1,0.1-0.2,0.1-0.2,0.2
				c0,0-0.1,0-0.1,0.1h0l-1.3,0.1c-0.2,0-0.4,0.1-0.6,0.1c-0.2,0-0.3,0.1-0.5,0.1c0,0,0,0,0,0c-0.1,0-0.2,0-0.4,0
				c-1.1,0.1-2.1,0.2-3.2,0.2c-0.4,0-0.8,0-1.2-0.1c-0.2,0-0.3,0-0.5-0.1c-0.5-0.1-1.1-0.2-1.6-0.5l-0.4-0.2c0-0.1-0.1-0.3-0.1-0.3
				c-0.1-0.2-0.2-0.8-0.4-0.9c-0.4-0.3-0.9-0.2-1.3-0.2c-0.2,0-0.4,0-0.6,0.1l-0.1,0l-0.2-0.1c-0.3-0.3-0.4-0.8-0.5-1.1
				c-0.1-0.3-0.2-0.5-0.3-0.8c-0.1-0.2-0.4-0.5-0.6-0.6c-0.1-0.1-0.1-0.1-0.2-0.2c-0.1-0.3-0.3-0.5-0.4-0.8c-0.3-0.5-0.6-1-0.9-1.5
				c-0.1-0.2-0.3-0.4-0.4-0.6c-0.1-0.1-0.2-0.3-0.2-0.4c0-0.2-0.1-0.3-0.1-0.5c-0.1-0.3-0.2-0.6-0.2-0.9c0-0.1,0-0.2-0.1-0.3
				c-0.2-0.5-0.3-1-0.6-1.4c-0.6-1-1.4-1.7-2.4-2.1c-0.2-0.1-0.4-0.3-0.6-0.4c-0.2-0.1-0.4-0.3-0.6-0.4c-0.1-0.1-0.2-0.2-0.4-0.3
				l-0.1,0l0,0c-0.1-0.1-0.3-0.2-0.4-0.2c0,0-0.1,0-0.1-0.1l0-0.1c-0.1-0.1-0.1-0.2-0.2-0.3c-0.2-0.3-0.9-0.6-1.2-0.7
				c-0.1,0-0.2-0.1-0.3-0.2l0,0l0,0c0-0.1-0.1-0.3-0.1-0.4c0-0.1,0-0.3,0-0.4c0-0.1,0-0.3,0.1-0.4c0.1-0.3,0.1-0.7,0.2-1
				c0.1-0.3,0.2-0.7,0.2-1c0-0.1,0-0.1,0-0.2c0-0.4-0.2-0.8-0.3-1.2l-0.4-1.1l0,0c0-0.2,0-0.3,0-0.5c0.1-0.3,0.4-0.5,0.5-0.7
				c0,0,0,0,0,0c0.1,0,0.1,0,0.2,0c0.1,0,0.3,0,0.4,0l0.4,0.1l0.2,0.3c0.1,0.2,0.2,0.6,0.4,0.7c0.2,0.2,0.5,0.3,0.8,0.5
				c0.4,0.2,0.9,0.4,1.4,0.5c0.2,0.1,0.7,0.1,0.9,0c0.1,0,0.1-0.1,0.2-0.2c0.1,0,0.2,0,0.2,0c0.1-0.1,0.2-0.2,0.1-0.4
				c0,0-0.1-0.1-0.1-0.1c0,0,0,0,0-0.1c0.2-0.1,0.3-0.2,0.5-0.3c0.7-0.6,1.2-1.3,1.8-1.9c0.2-0.2,0.4-0.5,0.6-0.7
				c0.5-0.6,1.2-1.2,1.8-1.6c0.1,0,0.1-0.1,0.2-0.1c0,0.4,0,0.9,0.1,1.3c-0.7,0.4-1.3,1-1.8,1.6c-0.1,0.1-0.3,0.3-0.4,0.4
				c-0.2,0.2-0.4,0.5-0.6,0.7c-0.5,0.5-0.9,1.1-1.4,1.6c-0.2,0.2-0.5,0.5-0.7,0.7c0,0,0,0.1,0,0.1h0.1c0.4-0.4,0.8-0.8,1.1-1.2
				c0.8-0.9,1.6-1.9,2.5-2.7c0.4-0.4,0.8-0.7,1.3-1c0,0.1,0.1,0.3,0.1,0.4c0,0.1,0.1,0.2,0.1,0.3c0.1,0.2,0.1,0.3,0.2,0.5
				c-0.2,0.1-0.3,0.3-0.5,0.4c-0.8,0.8-1.5,1.6-2.2,2.4c-0.4,0.5-0.9,1-1.3,1.5l0,0c0.3-0.4,0.6-0.7,0.9-1.1c0.4-0.5,0.8-1,1.3-1.5
				c0.2-0.2,0.5-0.5,0.7-0.7c0.3-0.4,0.7-0.7,1.1-1.1c0.1,0.1,0.2,0.3,0.3,0.4c0.1,0.1,0.1,0.2,0.2,0.3c-1,1-1.9,2.1-2.8,3.3
				c-0.5,0.6-0.9,1.3-1.3,1.9c0,0,0,0.1,0,0.1c0,0,0.1,0,0.1,0c0.6-0.9,1.3-1.8,2-2.7c0.6-0.8,1.4-1.6,2.1-2.4
				c0,0.2,0.1,0.3,0.1,0.5c0.1,0.4,0.1,0.7,0.2,1.1c0,0.1,0.1,0.2,0.1,0.4c0,0.2,0.1,0.4,0.2,0.6c0,0,0,0,0,0.1
				c-0.3,0.6-0.7,1.2-0.8,1.8c-0.1,0.4-0.1,0.8,0,1.2c0,0.2,0.1,0.3,0.2,0.5c0.1,0.2,0.2,0.5,0.2,0.7l0.1,0.4l0.1,0.4
				c0.1,0.4,0.1,0.7,0.2,1.1c0.1,0.6,0.3,1.3,0.6,1.9c0.3,0.6,0.8,1,1.3,1.5c0.2,0.2,0.4,0.4,0.6,0.6c0.2,0.2,0.4,0.4,0.6,0.7
				c0,0.1,0.1,0.1,0.1,0.2c0,0.1,0.1,0.2,0.1,0.2c0,0,0.1,0.1,0.1,0.1c0.1,0,0.5,0,0.7,0c0.1,0,0.1-0.1,0.2-0.2
				c0.3-0.6,0.4-1.3,0.1-1.9c-0.2-0.6-0.5-1.1-0.8-1.6c0.5-0.3,1-0.8,1.4-1.3c1.1-1.3,2-2.9,3.5-3.8c0.1,0,0.1-0.1,0-0.2
				s-0.1-0.1-0.2,0c-0.2,0.1-0.5,0.3-0.6,0.5c-0.7,0.6-1.1,1.2-1.7,1.9c-0.7,0.9-1.4,1.9-2.3,2.6c-0.1,0-0.1,0.1-0.2,0.1
				c-0.1-0.2-0.2-0.4-0.4-0.6c-0.1-0.2-0.2-0.3-0.2-0.5l-0.1-0.2l-0.1-0.6c0-0.2,0-0.4,0-0.6c0-0.1,0-0.2,0-0.3
				c0.1,0.2,0.3,0.3,0.4,0.5c0-0.2,0.1-0.4,0.1-0.6c0-0.2,0-0.3,0-0.5c0-0.3,0.2-0.8,0.4-1c0.2-0.3,0.3-0.5,0.6-0.7
				c0.3-0.3,0.6-0.6,0.8-0.9c0.2-0.2,0.4-0.4,0.5-0.7c0.1-0.1,0.1-0.2,0.2-0.3c0.1-0.1,0.1-0.2,0.1-0.4c0,0,0-0.1,0-0.1
				c0.1-0.3,0-0.6-0.2-0.8c-0.1-0.1-0.3-0.2-0.4-0.3c0,0,0,0,0,0c0.1-0.1,0.2-0.2,0.3-0.3c1.3-1.6,2.8-2.9,4.6-3.9c0,0,0,0,0-0.1
				c0,0,0,0-0.1,0c-1.1,0.4-2.1,1.1-3,1.9h0c0,0,0-0.1,0-0.1c0.1-0.2,0.1-0.3,0-0.5c0-0.5-0.6-1-1-1c0,0,0,0-0.1,0
				c0.5-0.6,1.1-1.2,1.6-1.8c0.2-0.2,0.4-0.4,0.6-0.6c0.3-0.3,0.7-0.5,1.1-0.8c0.1,0,0.1-0.1,0-0.2s-0.1-0.1-0.2,0
				c-0.3,0.2-0.5,0.3-0.7,0.5c-0.2,0.2-0.4,0.3-0.6,0.5c-0.3,0.3-0.7,0.7-0.9,1c-0.4,0.4-0.7,0.9-1.1,1.3c-0.3,0-0.6,0.2-0.9,0.3
				l-0.2,0.1l0-0.1c0-0.1-0.1-0.2-0.2-0.2l-0.2-0.1l-0.1-0.1c0.4-0.2,0.7-0.5,1-0.8c0.6-0.6,1.1-1.2,1.7-1.8
				c0.1-0.1,0.2-0.3,0.4-0.4c0.1-0.1,0.3-0.2,0.4-0.4c0.2-0.1,0.3-0.3,0.5-0.4c0,0,0-0.1,0-0.1c0,0-0.1,0-0.1,0
				c-0.8,0.5-1.4,1.3-2,2c-0.4,0.5-0.9,1.1-1.4,1.5c-0.2,0.1-0.3,0.2-0.5,0.3l-0.2-0.2c-0.1-0.1-0.1-0.2-0.2-0.2
				c-0.1-0.2-0.1-0.4-0.2-0.6c0.9-1,2-1.9,3-2.7c0.5-0.4,0.9-0.8,1.3-1.1c0.1-0.1,0.1-0.2,0-0.2s-0.2-0.1-0.2,0
				c-0.2,0.2-0.4,0.4-0.6,0.5c-0.6,0.5-1.1,1-1.7,1.4c-0.4,0.4-0.8,0.7-1.2,1.1c-0.2,0.2-0.5,0.5-0.7,0.7c0-0.1,0-0.1,0-0.2
				c0-0.1,0-0.2,0-0.4c0,0,0.1,0,0.1-0.1c0.2-0.1,0.3-0.3,0.5-0.4c0.1,0,0.1-0.1,0.2-0.2c0,0,0,0,0,0c0.4-0.1,0.8-0.4,1-0.8
				c0-0.1,0.1-0.1,0.1-0.2c0-0.2,0-0.4,0-0.6c0-0.2-0.1-0.5-0.1-0.7c0-0.1-0.1-0.2-0.2-0.3c0,0,0,0,0,0c0-0.2,0-0.5-0.1-0.7
				c0.6-0.5,1.2-1,1.8-1.5c0,0,0-0.1,0-0.1c0,0-0.1,0-0.1,0c-0.4,0.3-0.7,0.6-1.1,0.9c-0.2,0.2-0.4,0.3-0.6,0.5c0,0,0-0.1,0-0.1
				c-0.2-0.3-0.7-0.1-1-0.1c-0.1,0-0.2,0.1-0.2,0.1c-0.1,0-0.2,0.1-0.2,0.1c0,0-0.1,0-0.1,0c0.6-0.6,1.3-1.2,2-1.8
				c0.4-0.4,0.9-0.8,1.4-1.2c-0.9,0.6-1.7,1.3-2.5,2c-0.4,0.4-0.8,0.7-1.2,1.1c-0.6,0.3-1.3,0.5-1.9,0.6c-0.1,0-0.3,0-0.5,0
				c0.7-0.9,1.6-1.8,2.5-2.5c0,0,0-0.1,0-0.1c0,0-0.1,0-0.1,0c-0.2,0.2-0.5,0.4-0.7,0.6c-0.7,0.6-1.3,1.3-1.9,2c-0.1,0-0.2,0-0.3,0
				l-0.4-0.1l-0.2-0.1c-0.1-0.1-0.3-0.2-0.4-0.3c0.2-0.2,0.5-0.5,0.7-0.7c0.4-0.4,0.8-0.7,1.2-1c0.2-0.2,0.5-0.4,0.7-0.5
				c-0.1,0.1-0.3,0.1-0.4,0.2c-0.2,0.1-0.3,0.2-0.5,0.3c-0.1,0.1-0.2,0.2-0.3,0.3c-0.3,0.2-0.5,0.5-0.8,0.7
				c-0.2,0.2-0.5,0.5-0.7,0.7c0,0,0,0,0,0c-0.1-0.1-0.2-0.2-0.3-0.3c-0.1-0.1-0.4-0.3-0.5-0.4c0.1-0.1,0.2-0.2,0.3-0.2
				c0.4-0.3,0.8-0.5,1.1-0.8c0.2-0.1,0.4-0.3,0.6-0.4c0,0,0-0.1,0-0.1s-0.1,0-0.1,0c-0.2,0.2-0.5,0.3-0.7,0.5
				c-0.4,0.3-0.9,0.6-1.3,0.9c0,0-0.1,0-0.1,0.1c-0.1,0-0.3,0.1-0.4,0.1c-0.3,0.1-0.6,0.1-0.9,0.2c-0.3,0.1-0.5,0.1-0.8,0.1
				c-0.1,0-0.3,0-0.4,0c-0.1,0-0.2,0.2-0.2,0.2c-0.2,0.2-0.2,0.4-0.3,0.7c0,0,0,0,0,0c0,0-0.1,0-0.1,0.1l-0.5,0.2l-0.1,0
				c-0.1,0-0.1,0-0.2-0.1c0.9-0.8,1.8-1.6,2.7-2.3c0.3-0.2,0.5-0.4,0.8-0.6c0.2-0.2,0.4-0.3,0.7-0.5c0,0,0-0.1,0-0.1
				c0,0-0.1,0-0.1,0c-0.3,0.2-0.7,0.5-1,0.7c-0.6,0.4-1.1,0.9-1.7,1.4c-0.5,0.5-1,0.9-1.5,1.4h0c-0.2,0-0.3-0.1-0.4-0.2
				c-0.1-0.1-0.3-0.2-0.4-0.4c-0.1-0.1-0.2-0.2-0.4-0.3c0.2-0.1,0.3-0.2,0.5-0.4c0.5-0.4,0.9-0.7,1.4-1.1c0.3-0.2,0.6-0.5,0.9-0.7
				c0.4-0.3,0.8-0.6,1.1-0.8c0,0,0,0,0-0.1c0,0,0,0-0.1,0c-0.4,0.2-0.8,0.5-1.2,0.7c-0.2,0.2-0.5,0.3-0.7,0.5
				c-0.5,0.4-1.1,0.9-1.6,1.3c-0.2,0.2-0.4,0.3-0.6,0.5c0,0-0.1,0-0.2,0c0.2-0.1,0.3-0.2,0.5-0.3c0,0,0-0.1,0-0.1c0,0-0.1,0-0.1,0
				c-0.1,0.1-0.2,0.1-0.3,0.2c-0.1,0.1-0.2,0.1-0.3,0.2c-0.1,0-0.1,0-0.2,0c-0.2,0.1-0.3,0.2-0.5,0.3c0,0-0.1,0.1-0.1,0.1
				c-0.2,0.2-0.3,0.4-0.3,0.6c-0.1,0.1-0.2,0.1-0.2,0.2c0,0,0,0,0,0.1s0,0,0.1,0c0.1,0,0.1-0.1,0.2-0.1c0,0,0,0,0,0
				c0,0-0.1,0.1-0.1,0.1c-0.2,0.3-0.4,0.5-0.6,0.8c-0.1,0.1-0.2,0.3-0.3,0.4c-0.1,0.1-0.3,0.3-0.4,0.4c-0.1,0.1-0.2,0.2-0.3,0.2
				c0,0-0.1,0.1-0.2,0.1c0-0.1,0-0.1,0-0.1c0,0,0.1-0.1,0.1-0.1c0.1-0.1,0.1-0.1,0.1-0.2c0.1-0.2,0.1-0.6,0.1-0.8
				c0-0.1-0.1-0.1-0.1-0.1c0,0,0-0.1-0.1-0.1c0.1-0.1,0.2-0.2,0.3-0.3c0.5-0.4,0.9-1.1,1.2-1.6c0.1-0.2,0.3-0.4,0.4-0.6
				c0.3-0.3,0.5-0.6,0.9-0.9c0.1-0.1,0.2-0.1,0.3-0.2c0,0,0-0.1,0-0.1c0,0-0.1,0-0.1,0C40,38,39.5,38.8,39,39.5
				c-0.1,0.2-0.3,0.4-0.4,0.7c-0.2,0.4-0.6,0.7-0.9,1c0,0-0.1,0.1-0.1,0.1c-0.3-0.2-0.5-0.4-0.7-0.6l0-0.2c0,0,0,0,0-0.1
				c0.3-0.3,0.7-0.6,1.1-0.9c0.2-0.2,0.4-0.3,0.6-0.5c0.1-0.1,0.3-0.3,0.4-0.4c0.2-0.2,0.3-0.3,0.5-0.5c0,0,0-0.1,0-0.1
				c0,0-0.1,0-0.1,0c-0.1,0.1-0.1,0.2-0.2,0.2c-0.1,0.1-0.1,0.2-0.2,0.2c-0.3,0.3-0.6,0.6-0.9,0.9c-0.3,0.3-0.7,0.6-1,0.9
				c0-0.1,0-0.1,0-0.2c0-0.2,0-0.4,0-0.6c0-0.1-0.1-0.2-0.2-0.3c0,0-0.1,0-0.1-0.1c0,0-0.1,0-0.1-0.1c-0.2-0.1-0.4-0.1-0.5-0.1
				c0-0.1-0.1-0.1-0.2-0.1c0.4-0.5,0.9-1,1.5-1.4c0,0,0-0.1,0-0.1c0,0-0.1,0-0.1,0c-0.1,0-0.1,0.1-0.2,0.1c-0.1,0.1-0.2,0.2-0.3,0.3
				c-0.4,0.3-0.6,0.7-0.9,1.1c0,0,0,0-0.1,0c0,0-0.1,0-0.1,0c-0.1,0-0.2,0-0.2-0.1c-0.2,0-0.3-0.1-0.5,0c0,0-0.1,0-0.1,0
				c-0.3-0.1-0.5-0.2-0.7-0.3c-0.1,0-0.2,0-0.3,0c-0.1-0.1-0.3-0.2-0.4-0.4c-0.4-0.3-0.7-0.5-1.1-0.6c-0.1-0.1-0.1-0.3-0.2-0.5
				c0.2-0.2,0.4-0.4,0.6-0.6c0,0,0-0.1,0-0.1c0,0-0.1,0-0.1,0c-0.2,0.2-0.4,0.4-0.6,0.6c0,0,0-0.1-0.1-0.1c-0.1-0.1-0.2-0.3-0.2-0.4
				c-0.1-0.1-0.3-0.1-0.4-0.2c-0.1,0-0.2,0-0.2-0.1c0,0,0,0,0,0c0.3-0.3,0.6-0.5,1-0.8c0.2-0.1,0.4-0.3,0.6-0.4
				c0.3-0.2,0.5-0.4,0.7-0.6c0,0,0-0.1,0-0.1s-0.1,0-0.1,0c-0.1,0.1-0.3,0.2-0.4,0.3c-0.2,0.2-0.5,0.4-0.7,0.6
				c-0.4,0.3-0.8,0.6-1.2,0.9c-0.1-0.1-0.1-0.2-0.2-0.2c-0.1-0.1-0.1-0.1-0.2-0.2c0,0-0.1-0.1-0.2-0.1c-0.1-0.1-0.2-0.1-0.4-0.2
				c0,0,0,0,0,0c0.2-0.2,0.3-0.4,0.5-0.5c0.4-0.4,0.9-1,1.4-1.3c0,0,0-0.1,0-0.1s-0.1,0-0.1,0c-0.3,0.2-0.8,0.6-1,0.8
				c-0.2,0.2-0.4,0.4-0.6,0.6c-0.1,0.1-0.2,0.3-0.3,0.4c-0.2-0.1-0.4-0.1-0.6-0.2l-0.2,0L28.8,35c-0.1-0.1-0.1-0.1-0.2-0.2
				c0,0-0.1-0.1-0.1-0.1c-0.1-0.1-0.1-0.2-0.2-0.4c0.8-0.7,1.8-1.2,2.6-1.8c0,0,0.1-0.1,0-0.1c0,0-0.1-0.1-0.1,0
				c-0.3,0.2-0.6,0.4-0.9,0.6c-0.6,0.4-1.1,0.8-1.7,1.2c0,0,0,0,0,0c-0.1-0.1-0.2-0.1-0.2-0.2c-0.2-0.2-0.5-0.3-0.8-0.4
				c0,0,0.1-0.1,0.1-0.1c0.7-0.7,1.4-1.1,2.2-1.5c0.3-0.2,0.6-0.4,0.9-0.6c0,0,0-0.1,0-0.1s-0.1,0-0.1,0c-0.3,0.2-0.6,0.4-0.8,0.6
				c-0.4,0.2-0.8,0.5-1.2,0.7c-0.4,0.3-0.9,0.6-1.2,1c0,0,0,0-0.1,0.1c-0.2,0-0.5-0.1-0.7-0.1c-0.1,0-0.1,0-0.2,0
				c-0.2-0.1-0.4-0.3-0.6-0.4c-0.2-0.1-0.4-0.3-0.7-0.3c0,0,0-0.1,0-0.1c-0.1-0.2-0.3-0.3-0.5-0.4c0.2-0.1,0.4-0.2,0.6-0.4
				c0.4-0.2,0.7-0.4,1.1-0.6c0.1-0.1,0.2-0.1,0.3-0.2c0,0,0.1-0.1,0.1-0.1c0,0,0.1-0.1,0.1-0.1c0,0-0.1,0.1-0.2,0.2
				c-0.1,0.1-0.3,0.3-0.5,0.4c-0.3,0.2-0.6,0.3-0.9,0.5c-0.2,0.1-0.5,0.3-0.7,0.4c0,0-0.1,0-0.1,0c-0.1,0-0.1,0-0.2,0
				c-0.1,0-0.1,0-0.2,0c-0.5,0.1-0.9,0.6-1.3,0.9c-0.1,0.1-0.1,0.1-0.2,0.2l-0.1-0.1L22,32.8c0,0,0-0.1-0.1-0.1
				c0.1-0.1,0.1-0.1,0.2-0.2c0.9-0.8,1.8-1.6,2.9-2.1c0,0,0,0-0.1,0c-0.8,0.3-1.6,0.9-2.2,1.5c-0.2,0.2-0.4,0.4-0.6,0.5
				c-0.1,0.1-0.2,0.2-0.3,0.3c-0.1-0.1-0.2-0.2-0.2-0.3c0,0-0.1-0.1-0.1-0.1c-0.1-0.1-0.1-0.1-0.2-0.2c-0.1-0.1-0.4-0.2-0.5-0.3
				c0,0,0,0-0.1,0c0.6-0.6,1.3-1,1.9-1.7l0-0.1l-0.1,0c-0.2,0.2-0.3,0.4-0.5,0.5c-0.5,0.4-1,0.7-1.4,1.2c0,0-0.1,0-0.1,0
				c-0.6-0.1-1.2,0-1.7,0.2l-0.4,0.2c-0.1,0-0.1,0-0.2-0.1c-0.1,0-0.2,0-0.2,0c-0.1-0.1-0.3-0.1-0.4-0.2c0,0-0.1-0.1-0.1-0.2l0-0.1
				c0,0,0,0,0-0.1l0.2-0.1c0.4-0.3,0.7-0.6,1-0.9c0.4-0.4,0.8-0.8,1.2-1.3c0.2-0.3,0.7-0.8,0.7-1.2c0-0.2,0-0.3,0-0.4
				c0.1-0.1,0.2-0.1,0.2-0.2c0.2-0.1,0.3-0.3,0.5-0.5c0,0,0-0.1,0-0.1c0,0-0.1,0-0.1,0c-0.1,0.1-0.2,0.2-0.3,0.3
				c-0.1,0.1-0.2,0.1-0.2,0.2c0,0,0,0-0.1,0.1c0-0.1,0-0.3-0.1-0.4c0,0,0,0,0,0c-0.1-0.9-0.2-1.9-0.4-2.8c0,0,0,0,0,0c0,0,0,0,0,0
				c0-0.1,0-0.1,0-0.2c-0.1-0.3-0.1-0.5-0.2-0.8c0-0.2-0.1-0.3-0.2-0.5c-0.1-0.2-0.2-0.4-0.2-0.6c0-0.1-0.1-0.1-0.1-0.2
				c0,0,0-0.1-0.1-0.1c0-0.1-0.2-0.3-0.2-0.4c-0.2-0.3-0.4-0.4-0.6-0.5l0,0C18.3,21,18.2,21,18.2,21c-0.1-0.1-0.2-0.1-0.4-0.1
				c-0.5-0.1-1,0-1.5,0.2c-0.4,0.1-0.8,0.3-1.1,0.5c-0.3,0.1-0.5,0.3-0.8,0.4c-0.4,0.2-0.8,0.4-1.2,0.6c-0.2,0.1-0.4,0.2-0.6,0.3
				c-0.1,0-0.2,0.1-0.3,0.1L12,23.1l0,0c-0.1,0-0.2,0-0.3,0c-0.2,0-0.5,0.1-0.7,0.1c-0.4,0-0.9,0.1-1.3,0.1c-0.2,0-0.4,0-0.5,0
				c0,0-0.1,0-0.2,0.1c-0.1,0-0.3,0-0.4,0c-0.3,0-0.7,0-1,0c-0.2,0-0.3,0-0.5,0c-0.2-0.2-0.4-0.5-0.6-0.7l-0.1-0.2l-0.1-0.3
				c0-0.6,0-1.2,0-1.7c0-0.2,0-0.3-0.1-0.5c0-0.1,0-0.2,0-0.3c-0.1-1.1-0.9-2.1-1.7-3c0,0-0.1-0.1-0.1-0.1c-0.3-0.4-0.6-0.9-0.9-1.3
				l-0.3-0.5l-0.3-0.8c-0.1-0.2-0.1-0.4-0.2-0.6c-0.1-0.1-0.1-0.3-0.2-0.5c0-0.1-0.1-0.2-0.2-0.3c0.2-0.1,0.4-0.2,0.6-0.3
				c0,0,0,0,0,0c0.7-0.2,1.5-0.5,2-0.9c0.2-0.2,0.6-0.5,0.7-0.8c0-0.1,0.1-0.3,0.1-0.4c0-0.2,0-0.3,0.1-0.5c0.5-0.4,1-0.8,1.5-1.2
				l0-0.1l-0.1,0c-0.5,0.4-1,0.8-1.4,1.2c0-0.1,0-0.2,0-0.3c0-0.1,0-0.3,0-0.5l0-0.1l0.1-0.2c0.1-0.2,0.3-0.3,0.4-0.4
				c0,0,0.1-0.1,0.1-0.1l0.1-0.1l0.1,0c0.3,0,0.6,0.1,0.9,0.2c0.1,0,0.3,0.1,0.4,0.1c0.2,0,0.4,0,0.6,0C9,8,9.2,8,9.3,8
				C8.9,8.2,8.5,8.5,8.2,8.8C7.7,9.3,7.1,10,6.5,10.4c-0.1,0.1-0.3,0.2-0.4,0.2c-0.1,0-0.2,0.1-0.3,0.1c-0.1,0-0.2,0-0.3,0.1l0,0.1
				c0.1,0,0.2,0,0.3-0.1c0.2-0.1,0.4-0.2,0.6-0.3c0.2-0.1,0.3-0.2,0.5-0.3c0.3-0.2,0.6-0.6,0.9-0.9c0.5-0.5,1.1-1.1,1.7-1.4
				c0,0,0.1,0,0.1,0c0.6-0.1,1.2-0.2,1.8-0.3l0.9-0.2l0.3,0c0.2,0,0.3,0.1,0.5,0.1c0.2,0.2,0.4,0.5,0.6,0.7c0.1,0.1,0.2,0.2,0.3,0.2
				C13,9,12.2,9.7,11.3,10.6c-0.3,0.3-0.6,0.6-0.8,0.8l0,0c0.2-0.2,0.5-0.5,0.7-0.7c0.2-0.2,0.4-0.4,0.5-0.5
				c0.7-0.7,1.5-1.3,2.4-1.7c0.1,0,0.2,0.1,0.3,0.1l0.2,0.1l0.2,0.1c0.1,0.1,0.2,0.1,0.3,0.1c0.1,0.1,0.3,0.2,0.4,0.2
				c-1.2,0.8-2.3,1.6-3.3,2.5c-0.5,0.5-1.1,0.9-1.6,1.4c0,0,0,0.1,0,0.1c0,0,0.1,0,0.1,0c1.2-1.2,2.6-2.2,3.9-3.2
				c0.4-0.3,0.7-0.5,1.1-0.7c0.2,0.1,0.5,0.1,0.7,0.2c0.3,0,0.5,0.1,0.8,0.1c0.1,0,0.2,0.1,0.3,0.2c-0.4,0.2-0.8,0.5-1.1,0.7
				c-0.6,0.4-1.1,0.7-1.6,1.1c-1.1,0.8-2.2,1.6-3.1,2.5c-0.2,0.2-0.4,0.4-0.6,0.6c0,0,0,0.1,0,0.1c0,0,0.1,0,0.1,0
				c0.3-0.4,0.7-0.7,1-1c0.3-0.2,0.5-0.5,0.8-0.7c1.1-0.9,2.3-1.6,3.5-2.4c0.3-0.2,0.6-0.4,0.9-0.6c0.1-0.1,0.2-0.1,0.3-0.2
				c0,0,0.1,0.1,0.1,0.1l0.1,0l0,0.1c0,0.2-0.1,0.6-0.2,0.7c0,0.1-0.1,0.1-0.1,0.2c-1,0.7-1.9,1.6-2.8,2.4c-0.4,0.4-0.9,0.9-1.4,1.2
				c-0.1,0.1-0.2,0.2-0.3,0.2c-0.1,0.1-0.2,0.2-0.4,0.3c0,0,0,0,0,0.1s0,0,0.1,0c0.2-0.2,0.5-0.3,0.7-0.5c1-0.8,1.8-1.7,2.7-2.5
				c0.4-0.4,0.8-0.7,1.3-1c0,0.1,0,0.1,0,0.2c0.1,0.1,0.2,0.3,0.4,0.4c0,0,0,0,0,0c0,0.1,0.1,0.2,0.1,0.2c0.1,0.2,0.2,0.3,0.3,0.5
				c-1,0.7-1.8,1.6-2.6,2.5c-0.3,0.3-0.7,0.6-1,0.9l0,0.1l0.1,0c0.4-0.3,0.8-0.6,1.2-1c0.8-0.8,1.6-1.7,2.5-2.3c0,0,0,0,0,0
				c0.3,0.4,0.7,0.7,1.2,1c-1.3,0.8-2.6,1.8-3.7,2.9c0,0,0,0.1,0,0.1c0,0,0.1,0,0.1,0c0.2-0.2,0.4-0.3,0.5-0.5
				c0.5-0.4,1-0.9,1.6-1.3c0.5-0.4,1.1-0.8,1.7-1.1c0.1,0,0.1,0.1,0.2,0.1c0.2,0.1,0.5,0.3,0.7,0.4c0.8,0.4,1.6,0.7,2.4,1.1
				c-0.1,0-0.2,0.1-0.3,0.1c-0.6,0.3-1.1,0.6-1.7,0.9c-0.6,0.4-1.2,0.7-1.7,1.2c-0.4,0.3-0.8,0.6-1.1,0.9c0,0,0,0.1,0,0.1
				c0,0,0.1,0,0.1,0c0.6-0.6,1.3-1.1,2-1.5c0.4-0.2,0.8-0.5,1.2-0.7c0.5-0.2,0.9-0.5,1.4-0.7c0.1,0,0.2-0.1,0.3-0.2
				c0.3,0.1,0.6,0.2,0.9,0.4c0,0,0,0,0.1,0c0.2,0.1,0.4,0.3,0.6,0.4c-0.2,0.1-0.3,0.2-0.5,0.2c-1.1,0.4-2.2,0.6-3,1.4
				c-0.2,0.2-0.3,0.4-0.5,0.6c-0.1,0.2-0.2,0.4-0.3,0.7c0,0,0,0.1,0,0.1c0,0,0.1,0,0.1,0c0-0.2,0.1-0.4,0.2-0.5
				c0.2-0.4,0.5-0.7,0.8-1c0.8-0.5,1.6-0.7,2.5-1.1c0.3-0.1,0.5-0.2,0.8-0.4c0,0,0.1,0,0.1,0.1c0,0,0,0,0,0l0,0l0.1,0.1
				c-0.1,0.1-0.1,0.2,0,0.3c0,0.1,0.1,0.2,0.1,0.3c0,0,0,0,0,0.1c-0.5,0.4-0.9,0.8-1.3,1.2c-0.2,0.2-0.4,0.3-0.6,0.5
				c-0.1,0-0.2,0.1-0.2,0.1c-0.2,0.1-0.4,0.2-0.6,0.3l0,0c0.3-0.1,0.5-0.3,0.8-0.4c0.2-0.1,0.4-0.3,0.6-0.5c0.4-0.3,0.8-0.7,1.2-1
				c0,0,0,0,0.1-0.1c0.1,0.2,0.2,0.5,0.3,0.7c0.1,0.2,0.2,0.4,0.4,0.6c-0.5,0.4-1.1,0.8-1.6,1.1c-0.3,0.2-0.7,0.5-1,0.7
				c-0.2,0.2-0.5,0.4-0.7,0.6l0,0.1l0.1,0c0.7-0.6,1.5-1.1,2.3-1.7c0.3-0.2,0.6-0.4,1-0.6c0,0,0.1-0.1,0.1-0.1
				c0.1,0.1,0.3,0.3,0.4,0.4c0.1,0.1,0.3,0.2,0.5,0.2c-0.9,0.7-1.8,1.4-2.7,2.2c-0.3,0.3-0.7,0.6-1,0.9l0,0c0.3-0.4,0.7-0.7,1.1-1
				c0.9-0.8,1.8-1.4,2.7-2.1c0.2,0,0.5,0,0.7,0c0.2,0,0.3-0.1,0.4-0.1c0.2-0.1,0.5-0.2,0.7-0.3c0.3-0.1,0.6-0.3,0.8-0.4
				c0,0,0.1,0,0.1-0.1c0,0.1,0.2,0.2,0.3,0.1c0.2,0,0.4,0,0.7,0c0.1,0,0.2,0,0.3,0c0.1,0,0.1,0,0.2,0c-0.4,0.3-0.8,0.5-1.2,0.8
				c-1.7,1.3-3.3,2.7-4.7,4.3c0,0,0,0.1,0,0.1c0,0,0.1,0,0.1,0c0.3-0.4,0.7-0.8,1.1-1.1c1.2-1.3,2.6-2.4,4.1-3.4
				c0.3-0.2,0.5-0.4,0.8-0.6c0.3,0.1,0.6,0.2,0.9,0.3c0.1,0.1,0.3,0.1,0.4,0.2c0.1,0.1,0.2,0.1,0.3,0.2c-0.7,0.4-1.3,0.9-1.9,1.4
				c-0.3,0.3-0.6,0.6-0.9,0.8c-0.4,0.4-0.8,0.8-1.2,1.2c-0.3,0.3-0.6,0.6-0.9,0.9c0,0,0,0.1,0,0.1c0,0,0.1,0,0.1,0
				c0.2-0.2,0.4-0.4,0.7-0.6c0.5-0.5,1-0.9,1.5-1.4c0.9-0.8,1.8-1.7,2.9-2.3c0,0,0.1,0,0.1,0.1c0,0,0,0,0,0c0.1,0.1,0.2,0.2,0.4,0.3
				c0.1,0.1,0.2,0.2,0.4,0.2c0.1,0,0.1,0,0.2,0.1c0,0,0.1,0,0.2,0c-1.3,1.2-2.8,2.3-3.8,3.8c0,0,0,0.1,0,0.1s0.1,0,0.1,0
				c0.1-0.2,0.2-0.4,0.4-0.5c0.3-0.4,0.6-0.7,0.9-1.1c0.4-0.4,0.9-0.8,1.4-1.2c0.2-0.2,0.4-0.4,0.6-0.5c0.2-0.2,0.3-0.3,0.5-0.5
				c0,0,0,0,0,0c0.2,0,0.3-0.1,0.5-0.1c0.1,0,0.2,0,0.2,0c0.1,0,0.3-0.1,0.4-0.1c0.1,0,0.2-0.1,0.3-0.1c0.1-0.1,0.3-0.2,0.4-0.3
				c0.1-0.1,0.3-0.3,0.4-0.4c0.1-0.1,0.2-0.2,0.3-0.4c0.3-0.5,0.6-1,0.8-1.5c0.1-0.2,0.2-0.5,0.3-0.7c0-0.1,0.1-0.2,0.1-0.3
				c0.1-0.1,0.1-0.3,0.2-0.4c0,0,0.1-0.1,0.1-0.1c0.6-0.6,1.2-1.2,1.9-1.8c0.6-0.5,1.1-1,1.7-1.5c0.4-0.3,0.8-0.7,1.1-1
				c0.6-0.4,1.2-0.7,1.7-1.2c0.1-0.1,0.3-0.3,0.4-0.4c0.1-0.1,0.1-0.1,0.2-0.2c0.2-0.2,0.4-0.4,0.5-0.6c0.1-0.2,0.2-0.3,0.3-0.5
				C46.7,8,46.8,7.9,47,7.7c0,0,0-0.1,0-0.1c0,0-0.1,0-0.1,0c0,0-0.1,0-0.1,0.1c0.1-0.1,0.1-0.3,0.1-0.4c0,0,0,0,0-0.1
				c0-0.1,0-0.1,0-0.2c0-0.2,0-0.5-0.1-0.8c0-0.2,0-0.5,0-0.7c0.3,0.4,0.7,0.7,1,1.2c0.1,0.1,0.2,0.2,0.2,0.4l0,0.1l0,0.9
				c-0.1,0.1-0.2,0.1-0.2,0.2c-0.1,0.2-0.1,0.5,0,0.6c0,0.1,0,0.2,0.1,0.3c0,0,0,0.1,0,0.1c-2.4,1.1-4.2,3-6.1,4.7
				c-0.5,0.4-1,0.8-1.5,1.2c-0.4,0.3-0.7,0.5-1.1,0.7l0,0.1c0.4-0.2,0.8-0.5,1.1-0.7c0.4-0.3,0.8-0.7,1.3-1c2-1.7,3.8-3.7,6.3-4.8
				c0,0,0,0,0,0c0.1,0.1,0.2,0.2,0.4,0.3c-1.1,0.5-1.9,1.1-2.8,1.9c-0.6,0.5-1.1,1-1.6,1.5c-0.6,0.6-1.2,1.1-1.8,1.7
				c-0.4,0.4-0.9,0.8-1.4,1.1c-0.2,0.1-0.4,0.2-0.6,0.3c-0.1,0-0.2,0.1-0.3,0.1c-0.1,0-0.2,0.1-0.3,0.1c0,0-0.1,0.1,0,0.1
				c0,0,0.1,0.1,0.1,0c0.3-0.1,0.6-0.3,0.8-0.4c0.8-0.5,1.6-1.2,2.3-1.8c1-0.9,1.9-1.8,2.8-2.7c0.2-0.2,0.4-0.3,0.5-0.5
				c0.7-0.6,1.4-1.1,2.2-1.5c0.1,0,0.2,0,0.3,0c0.3,0,0.5-0.2,0.7-0.4c0.1-0.1,0.3-0.3,0.4-0.3l0.1,0l0,0c0.1,0.1,0.2,0.2,0.2,0.3
				c0,0.1,0,0.2,0,0.4c0,0.1,0,0.1,0,0.2c0,0.1-0.1,0.2-0.1,0.2c0,0.1-0.1,0.1-0.1,0.2c-0.2,0.2-0.5,0.4-0.7,0.5
				c-0.2,0.1-0.4,0.2-0.7,0.4c-0.2,0.1-0.4,0.2-0.6,0.3c-0.2,0.1-0.3,0.2-0.5,0.3c-0.1,0-0.2,0.1-0.3,0.2c-0.2,0.1-0.4,0.1-0.6,0.2
				c-0.6,0.2-1.1,0.4-1.7,0.7c-0.3,0.2-0.5,0.3-0.7,0.5c-0.1,0-0.1,0.1-0.2,0.2c-0.4,0.4-0.7,0.8-0.9,1.3c-0.1,0.2-0.2,0.5-0.2,0.6
				c0,0,0,0,0,0c-0.1,0.1-0.3,0.2-0.4,0.4c-0.3,0.2-0.5,0.4-0.8,0.7c-0.6,0.5-1.2,1-1.7,1.5l0,0.1c0.4-0.4,0.9-0.8,1.3-1.1
				c0.5-0.4,1-0.9,1.6-1.3c0,0,0,0.1,0,0.1c0,0.2-0.1,0.3-0.1,0.5l-0.2,0.6l-0.2,0.2c-0.3,0.2-0.6,0.3-0.9,0.5
				c-0.1,0.1-0.2,0.1-0.3,0.2c-0.2,0.2-0.4,0.5-0.5,0.9c-0.1,0.1-0.1,0.2-0.2,0.3c-0.2,0.5-0.1,0.9,0,1.4c0,0.1,0.1,0.3,0.2,0.4
				c0,0.1,0.1,0.1,0.2,0.2c0,0,0,0,0,0c0,0.1,0.1,0.3,0.2,0.4c0.1,0.1,0.2,0.1,0.3,0.2c0.1,0.1,0.3,0.1,0.4,0.1c0.1,0,0.1,0,0.2,0
				c0.1,0,0.3,0,0.4,0c0.1,0,0.3-0.1,0.4-0.1c0.1,0,0.1-0.1,0.2-0.1c0,0,0.2-0.1,0.2-0.1c0.3-0.2,0.4-0.3,0.6-0.6l0.1-0.1l0,0
				c0,0,0,0,0,0c0.1-0.1,0.1-0.2,0.2-0.3l0.1-0.2l0,0l0-0.1l0.1,0c0,0,0,0,0.1,0c0.2,0,0.3,0,0.5-0.1c0.3,0,0.5,0,0.8-0.2
				c0,0,0.1-0.1,0.1-0.1c0,0,0.1-0.1,0.1-0.1c0.1-0.1,0.2-0.2,0.2-0.4c0.1-0.1,0.1-0.3,0.2-0.4c0.2-0.4,0.3-0.9,0.6-1.2
				c0.2-0.2,0.4-0.4,0.6-0.6c0.2-0.3,0.5-0.5,0.8-0.8l0.8-0.7l0.9-0.4c0.3-0.1,0.6-0.2,0.9-0.3c0.1-0.1,0.2-0.1,0.3-0.1c0,0,0,0,0,0
				c0,0,0,0,0,0c0.1-0.1,0.3-0.2,0.4-0.3c0,0,0,0,0-0.1c0.8-0.7,1.6-1.3,2.4-2c0.9-0.8,1.9-1.5,2.9-2.2c0.3-0.2,0.6-0.4,0.8-0.6
				c0.4-0.3,0.7-0.5,1.1-0.7c0,0.1,0,0.3,0.1,0.4l0,0c-0.1,0.1-0.2,0.2-0.3,0.3C58.2,9.7,58,9.8,58,10c0,0.1-0.1,0.2-0.1,0.3
				c0,0-0.1,0.1-0.1,0.1c0,0.1-0.1,0.1-0.1,0.2c-0.6,0.4-1.1,0.9-1.6,1.3c-0.8,0.8-1.6,1.6-2.3,2.4c-0.9,0.9-1.7,1.7-2.9,2.2
				c0,0,0,0.1,0,0.1s0.1,0,0.1,0c0.2-0.1,0.4-0.2,0.5-0.3c0.3-0.2,0.5-0.3,0.8-0.5c0.5-0.4,1-0.9,1.5-1.4c0.5-0.5,1-1,1.5-1.5
				c0.7-0.7,1.5-1.5,2.4-2.1c0,0.2,0,0.5,0.2,0.7c0.2,0.2,0.5,0.3,0.9,0.3c-1.4,1.1-2.8,2.2-4.2,3.4c-0.8,0.7-1.6,1.4-2.3,2.1l0,0.1
				c0.8-0.7,1.5-1.4,2.3-2.1c0.8-0.7,1.7-1.4,2.5-2.1c0.6-0.5,1.2-0.9,1.8-1.4c0.4-0.1,0.7-0.2,1-0.3c0,0,0.1,0,0.2-0.1
				c0,0.1,0.1,0.1,0.2,0.1l0.1,0l0,0c0,0.1,0,0.2,0,0.3c0,0,0,0.1,0,0.1c0,0,0,0.1,0,0.1c0,0.1-0.1,0.3,0,0.4c0,0,0,0,0,0
				c-0.2,0.1-0.5,0.3-0.7,0.4c-0.4,0.2-0.7,0.5-1.1,0.7c-0.4,0.3-0.8,0.6-1.3,0.9c-1.2,0.9-2.3,1.8-3.1,3l0,0.1l0.1,0
				c0.3-0.3,0.5-0.6,0.8-0.9c0.6-0.6,1.3-1.2,2-1.7c0.5-0.4,1-0.7,1.6-1.1c0.6-0.4,1.2-0.8,1.8-1.2c0,0,0,0,0,0
				c0.2,0.1,0.4,0.1,0.5,0.2c0.1,0,0.1,0,0.2,0l0,0c0,0,0.1,0.1,0.1,0.1c0.1,0,0.1,0,0.2,0h0.1c0,0,0.1,0,0.1,0c0,0,0,0,0,0
				c0,0,0,0,0,0c0.1,0.1,0.2,0.1,0.4,0.1c-0.5,0.3-0.9,0.6-1.4,0.9c-0.4,0.2-0.7,0.5-1.1,0.7c-1.4,0.9-2.9,1.8-4.1,3
				c-0.5,0.4-0.8,0.9-1.2,1.4c0,0,0,0.1,0,0.1c0,0,0.1,0,0.1,0c0.2-0.3,0.5-0.6,0.8-0.9c1.1-1.2,2.6-2.2,4-3c1.1-0.7,2.2-1.3,3.2-2
				c0,0,0,0,0,0c0.1,0,0.2,0,0.3,0c0,0,0.1,0,0.2-0.1c0,0,0.1,0,0.1,0c0,0,0,0,0,0c0.1,0,0.2-0.1,0.4-0.1c0,0,0,0,0,0
				c0.1,0,0.1,0,0.2,0c0,0,0.1,0,0.1,0l-0.1,0l0.1,0c0,0,0.1,0.1,0.1,0.1l0,0l0,0.1c0.1,0.2,0.4,0.3,0.7,0.3l0.3,0l0,0.2
				c0,0,0,0,0,0c-1.9,1.2-3.6,2.6-5.4,3.9c-0.8,0.6-1.6,1.2-2.4,1.7c-0.4,0.3-0.8,0.5-1.2,0.8l0,0.1c0.2-0.1,0.4-0.3,0.6-0.4
				c0.2-0.1,0.4-0.3,0.6-0.4c0.3-0.2,0.6-0.4,0.9-0.6c0.4-0.3,0.9-0.6,1.3-0.9c1-0.7,2-1.5,3-2.2c0.8-0.6,1.7-1.2,2.6-1.6
				c0.1,0.1,0.2,0.1,0.3,0.2c0.2,0.1,0.5,0.2,0.7,0.2c0.2,0.1,0.4,0.1,0.6,0.1c0.2,0,0.3,0.1,0.5,0.1c-0.2,0.1-0.4,0.3-0.6,0.4
				c-0.5,0.4-1.1,0.7-1.6,1.1c-1.3,0.9-2.5,1.9-3.8,2.9c-0.7,0.6-1.4,1.1-2.2,1.7c-0.4,0.3-0.9,0.6-1.3,1l0,0.1l0.1,0
				c0.7-0.5,1.4-1,2.1-1.6c1-0.8,2-1.6,3.1-2.3c1-0.7,2-1.5,3-2.2c0.5-0.3,1-0.7,1.5-1c0,0,0,0,0-0.1c0.4,0,0.8,0,1.1-0.2
				c0.2-0.1,0.4-0.4,0.5-0.6c0-0.1,0.1-0.2,0.1-0.3c0-0.1,0-0.2-0.1-0.3c0.1-0.1,0.3-0.2,0.4-0.3c0.1-0.1,0.3-0.2,0.4-0.3
				c0.1-0.1,0.2-0.2,0.3-0.3c0,0,0-0.1,0-0.1c0,0-0.1,0-0.1,0c-0.1,0.1-0.2,0.3-0.4,0.4c-0.1,0.1-0.2,0.2-0.3,0.3
				c-0.1,0.1-0.2,0.2-0.4,0.3c-0.3-0.4-0.8-0.5-1.3-0.6c0.2-0.1,0.4-0.3,0.6-0.4c0.6-0.5,1.2-1,1.8-1.5c0.3-0.2,0.6-0.4,0.9-0.6
				c0,0,0.1-0.1,0-0.1c0,0-0.1-0.1-0.1,0c-0.1,0.1-0.3,0.2-0.4,0.3c-0.4,0.2-0.7,0.6-1.1,0.9c-0.4,0.3-0.8,0.7-1.2,1
				c-0.2,0.2-0.5,0.4-0.7,0.5c0,0,0,0,0,0c-0.3-0.1-0.7-0.3-1-0.4c-0.2-0.1-0.5-0.2-0.8-0.4c-0.1-0.1-0.2-0.1-0.3-0.1
				c0,0-0.1,0-0.1,0c0,0,0,0,0,0c0,0-0.1-0.1-0.1-0.1c0-0.1,0-0.2,0-0.3c0-0.1,0-0.1-0.1-0.2l-0.1-0.2l0.1-0.2c-0.1,0.1-0.1,0,0-0.1
				c0.1-0.1,0.2-0.2,0.3-0.3c0.1-0.1,0.3-0.2,0.5-0.3C66.5,9.6,66.8,9.4,67,9C67,8.8,67,8.6,67.1,8.4c0.5-0.6,1.1-1.2,1.7-1.6
				c0.4-0.3,0.9-0.7,1.3-1c0.3-0.2,0.5-0.5,0.7-0.7l0-0.1l-0.1,0c-0.1,0.1-0.2,0.2-0.3,0.2c-0.1,0.1-0.1,0.1-0.2,0.2
				c-0.1,0.1-0.2,0.1-0.3,0.2c-0.3,0.2-0.6,0.5-0.9,0.7c-0.7,0.6-1.5,1.2-2,1.9c0,0,0-0.1,0-0.1c0-0.3,0-0.7,0.1-1.1
				c0-0.1,0-0.2,0-0.3l0-0.2c0.1-0.1,0.2-0.1,0.2-0.1c0.2-0.2,0.5-0.3,0.7-0.5c0.6-0.4,1.2-0.7,1.8-1.1c0.2-0.1,0.4-0.2,0.6-0.3
				c0,0,0.1,0,0.1-0.1l0.1,0l0.2,0c0,0,0,0,0.1,0c0.3,0.1,0.6,0.2,0.9,0.2c0.2,0,0.4-0.1,0.4-0.3c0-0.2-0.1-0.4-0.3-0.4
				c-0.1,0-0.1,0-0.2,0c-0.1,0-0.2,0-0.2,0c-0.2,0-0.3-0.1-0.5-0.1c0,0,0,0-0.1,0c0,0,0,0,0,0c0,0,0,0,0,0c-0.3,0-0.7-0.1-1,0.1
				c-0.2,0.1-0.3,0.2-0.4,0.3c-0.1,0.1-0.2,0.2-0.3,0.3c-0.1,0-0.1,0.1-0.2,0.2l-0.2,0.1l-0.2,0.1c-0.1,0-0.3,0.1-0.4,0.1
				c-0.8,0.2-1.5,0.2-1.9,1c-0.2,0.3-0.4,0.9-0.4,1.2c0,0.1,0,0.3,0,0.4c0,0.1,0,0.2,0,0.3c0,0.2,0,0.4,0,0.6c0,0.1,0,0.1,0,0.2
				l0,0.2L65.8,9c0,0-0.1,0.1-0.1,0.1c-0.1,0.1-0.2,0.2-0.3,0.3c-0.4,0.3-0.9,0.7-1.1,1.2c-0.1,0.3-0.1,0.6,0,1
				c0,0.1,0.1,0.2,0.2,0.2c0.1,0.1,0.2,0.1,0.3,0.1c0.1,0,0.2,0,0.2,0c0.1,0,0.2,0.3,0.3,0.4c0.2,0.2,0.3,0.3,0.5,0.4
				c0.1,0,0.2,0.1,0.3,0.1c0.3,0,0.6,0.1,0.9,0.1c0.2,0,0.3,0,0.5,0.1c0.2,0.1,0.3,0.2,0.5,0.3l0.1,0.1l-0.3,0.1
				c-0.5,0.1-1-0.1-1.5-0.2c0,0,0.1-0.1,0-0.1c0,0-0.1-0.1-0.1,0c-0.1,0-0.1,0.1-0.2,0.1l-0.1,0l-0.1-0.2c0,0,0,0-0.1-0.1
				c0-0.1,0-0.1-0.1-0.1c0,0,0,0,0,0c-0.1-0.2-0.2-0.3-0.4-0.4c-0.1-0.1-0.4-0.1-0.6-0.1c-0.3,0-0.5,0-0.8,0c0,0,0,0,0,0
				c0,0,0-0.1,0-0.1c0-0.1-0.1-0.1-0.2,0c0,0-0.1,0.1-0.1,0.1c-0.2,0-0.4,0-0.5,0c-0.5,0-0.9-0.1-1.4-0.1c-0.1,0-0.2,0-0.3,0
				c0.1-0.1,0.2-0.1,0.2-0.2c0.2-0.2,0.4-0.3,0.6-0.5l0-0.1l-0.1,0c-0.3,0.2-0.6,0.4-1,0.6l0-0.1c0.1-0.2,0.4-0.6,0.3-0.9
				c-0.1-0.1-0.2-0.2-0.3-0.2c0,0-0.1,0-0.2,0l-0.1,0c0-0.1-0.1-0.1-0.2-0.2c-0.1,0-0.1,0-0.2,0c0,0,0,0,0,0c0,0,0-0.1,0-0.1
				c0,0-0.1,0-0.1,0c0,0-0.1,0-0.1,0.1c0,0,0,0,0,0c-0.1-0.1-0.1-0.1-0.2-0.2c-0.1,0-0.2-0.1-0.3-0.1c-0.4,0-0.7,0.2-1,0.5
				c-0.1,0.1-0.1,0.1-0.2,0.1l-0.1-0.2c0,0,0,0,0-0.1c0.2-0.2,0.4-0.3,0.6-0.5c0,0,0.1,0,0.1,0c0.1,0,0.1-0.1,0.1-0.1c0,0,0,0,0,0
				c0,0,0,0,0,0c0-0.1,0.1-0.2,0.1-0.2c0,0,0,0,0,0c0.1-0.1,0.2-0.2,0.3-0.3c0.1-0.1,0.2-0.6,0.3-0.8c0-0.1,0.1-0.3,0.1-0.3l0-0.1
				L60.3,8c0.1-0.1,0.2-0.1,0.3-0.1c0.1,0,0.1-0.1,0.2-0.1c0.6-0.3,1.1-0.6,1.4-1.2c0.1-0.2,0.2-0.6,0.1-0.8
				c-0.1-0.1-0.2-0.2-0.3-0.2c-0.2,0-0.3,0-0.4,0c0,0,0,0-0.1,0c0-0.1-0.1-0.1-0.1-0.2c0-0.1,0-0.2,0-0.3c0,0,0-0.1-0.1-0.1
				c-0.1-0.1-0.2-0.1-0.3-0.1c-0.2-0.2-0.3-0.5-0.5-0.7c-0.1-0.2-0.4-0.6-0.7-0.8l0,0l0,0C59.9,3.2,60,3.1,60,3
				c0.1-0.1,0.1-0.3,0.2-0.4c0-0.1,0-0.1,0.1-0.2c0.1-0.2,0.1-0.4,0.1-0.6C60.3,1.5,60,1.5,59.7,1.6z M44.7,2.2l0,0.2
				c0,0.1,0,0.3,0,0.4c-0.1-0.2-0.1-0.4-0.2-0.5c0,0,0,0,0,0L44.7,2.2z M44,2.3l0.1,0.1c0.1,0.3,0.2,0.6,0.2,0.8c0,0.1,0,0.2,0,0.4
				c0,0.3,0.1,0.7,0.3,1l0,0l-0.1,0.1c0,0,0,0-0.1,0c-0.5-0.3-1.1-0.5-1.7-0.4c0,0,0,0,0,0c0,0,0,0,0,0C43,4.2,43.1,4,43.3,3.8V3.8
				h-0.1c-0.2,0.2-0.4,0.4-0.6,0.6c0,0-0.1,0.1-0.1,0.1c-0.3,0.1-0.5,0.2-0.8,0.3c0,0,0,0,0,0c0,0-0.1,0-0.1,0
				c-0.1,0-0.2,0.1-0.2,0.1c-0.1,0-0.1,0.1-0.2,0.1C41.2,5,41.1,5,41,5l-0.1,0c0,0-0.1,0-0.1,0l-0.1,0l0,0l0-0.1c0-0.1,0-0.1,0-0.2
				c0-0.1,0.1-0.2,0.1-0.3c0.2-0.2,0.4-0.4,0.6-0.5c0.1,0,0.3-0.1,0.4-0.2c0.1,0,0.2-0.1,0.3-0.2c0,0,0.1-0.1,0.2-0.1
				c0.2-0.1,0.3-0.3,0.5-0.4c0,0,0.1-0.1,0.1-0.1c0.4-0.1,0.7-0.3,1-0.5L44,2.3C44,2.4,44,2.3,44,2.3z M59.3,3C59.3,3,59.3,3,59.3,3
				c-0.1,0.1-0.1,0.3-0.1,0.4c0,0.1,0,0.1,0,0.2c0,0.1,0,0.4,0.1,0.5c0,0,0,0,0,0c0,0,0,0,0,0c-0.7,0.3-1.2,0.8-1.8,1.3
				c-0.3,0.3-0.6,0.5-0.9,0.8c-0.1,0.1-0.3,0.3-0.5,0.4c0.1-0.2,0.1-0.5,0-0.6C56,6,55.9,6,55.7,5.9c0.2-0.2,0.3-0.3,0.5-0.5
				c0.1,0,0.2-0.1,0.3-0.1c0.1-0.1,0.2-0.2,0.2-0.4c0.2-0.2,0.4-0.3,0.6-0.5c0.4-0.3,0.8-0.7,1.3-1c0.1-0.1,0.3-0.2,0.4-0.3
				C59.1,3.1,59.2,3,59.3,3c0-0.1,0-0.1,0-0.2c0,0-0.1,0-0.1,0c-0.8,0.6-1.6,1.2-2.4,1.9c0,0,0,0,0,0c0,0,0-0.1,0-0.1
				c0.2-0.3,0.2-0.7,0.3-1c0-0.2,0.1-0.4,0.2-0.6c0.1-0.1,0.2-0.2,0.4-0.2c0,0.1,0.1,0.2,0.1,0.3c0.2,0.2,0.6,0.2,0.9,0.1
				c0.2-0.1,0.3-0.3,0.4-0.4c0.1-0.1,0.2-0.2,0.4-0.3l0,0l0,0C59.4,2.6,59.4,2.8,59.3,3z M58.6,2.4L58.6,2.4l-0.1,0.2l-0.1,0l-0.1,0
				l0-0.1C58.4,2.5,58.5,2.5,58.6,2.4z M41,4.1C41,4,41,4,41,4.1L41,4.1L41,4.1C41,4,41,4,41,4.1z M59.3,4.2c0.1,0,0.2,0.1,0.3,0.1
				l0.2,0l-0.1,0.1c0,0.1-0.1,0.2-0.1,0.3c0,0.1,0,0.2,0.1,0.3c-0.2,0.1-0.3,0.2-0.5,0.3c-0.4,0.2-0.7,0.5-1.1,0.7
				c-1.4,1-2.8,2.1-4.1,3.2c0,0,0,0.1,0,0.1c0,0,0.1,0,0.1,0c0.6-0.4,1.1-0.9,1.7-1.3c0.3-0.3,0.7-0.5,1-0.8
				c0.2-0.2,0.5-0.3,0.7-0.5c0.2-0.1,0.3-0.2,0.5-0.3c0.4-0.3,0.8-0.5,1.2-0.8c0.2-0.1,0.4-0.3,0.7-0.4c0,0,0,0,0,0
				c0.1,0,0.2,0,0.2,0.1c0.2,0.1,0.3,0.1,0.5,0.1l0.2,0l0,0c0,0.2-0.1,0.5,0.1,0.6c0.1,0.1,0.2,0.1,0.3,0.1c0,0,0,0.1,0,0.1
				c0,0.1,0.2,0.2,0.3,0.2c0,0,0,0,0,0c-0.1,0.1-0.1,0.2-0.2,0.2c-0.3,0.2-0.6,0.4-0.9,0.6c-0.1,0.1-0.3,0.1-0.4,0.2
				c-0.1,0.1-0.2,0.1-0.2,0.2c-0.1,0.1-0.2,0.1-0.2,0.2C59.4,7.9,59.2,8,59,8.1c-0.1,0.1-0.2,0.2-0.3,0.2c-0.1,0.1-0.1,0.2-0.1,0.3
				c-1.9,1.2-3.7,2.7-5.4,4.1c-0.5,0.4-1,0.8-1.5,1.2c0.2-0.4,0.3-0.8,0.3-1.2c0-0.3,0-1.1,0.2-1.4c0.1-0.2,0-0.3-0.1-0.4
				c0-0.1,0-0.1,0.1-0.2c0.4-1,1.1-1.6,1.9-2.2c0.2-0.2,0.5-0.4,0.7-0.5c0.4-0.3,0.9-0.7,1.2-1.1c0,0,0,0,0,0
				c0.3-0.3,0.6-0.6,0.9-0.9C57.6,5.4,58.4,4.7,59.3,4.2C59.3,4.3,59.3,4.3,59.3,4.2C59.3,4.2,59.3,4.2,59.3,4.2z M60.3,4.7
				L60.3,4.7L60.3,4.7c-0.1-0.1-0.1-0.1-0.1-0.1C60.3,4.6,60.3,4.7,60.3,4.7z M55.7,5.8c-0.1,0-0.1-0.1-0.1-0.1l0,0l0.2-0.2
				c0.1,0,0.1-0.1,0.2-0.1c0.1,0,0.1,0,0.2,0C55.9,5.5,55.8,5.7,55.7,5.8z M58.7,6.3c-0.7,0.5-1.3,0.9-2,1.5c-0.8,0.7-1.6,1.4-2.5,2
				c-0.3,0.2-0.6,0.5-0.8,0.7c-0.4,0.3-0.8,0.6-1.1,0.9c0,0,0,0.1,0,0.1c0,0,0.1,0,0.1,0c0.7-0.5,1.3-1.1,2-1.6
				c1-0.8,2.1-1.7,3.1-2.5c0.4-0.3,0.7-0.5,1.1-0.8c0.5-0.3,1-0.7,1.6-1c0,0,0.1-0.1,0-0.1c0,0-0.1-0.1-0.1,0
				C59.6,5.7,59.1,6,58.7,6.3z M55.2,10.1C54.1,11.1,53,12,52,13.1v0.1H52c1-1,2.1-2,3.2-2.9c0.3-0.2,0.5-0.4,0.8-0.6
				c0.3-0.2,0.5-0.4,0.8-0.6c0.2-0.2,0.5-0.3,0.7-0.5C58.3,8,59.2,7.4,60,6.9c0,0,0.1-0.1,0-0.2c0-0.1-0.1-0.1-0.2,0
				C58.3,7.8,56.7,8.9,55.2,10.1z M69.8,7.6c-0.7,0.5-1.3,1-1.9,1.5c-0.6,0.5-1.2,1-1.8,1.5c0,0,0,0.1,0,0.1s0.1,0,0.1,0
				C67.7,9.4,69.3,8.1,71,7c0,0,0.1-0.1,0-0.1c0,0-0.1-0.1-0.1,0C70.5,7.1,70.1,7.4,69.8,7.6z M33.2,7.4C33.1,7.5,33,7.7,33,7.8
				c-0.1,0-0.1,0.1-0.1,0.2c0,0.1,0,0.1,0,0.2c0,0,0.1,0.1,0.1,0.1c0,0,0,0.1,0.1,0.1c0,0.1,0.1,0.2,0.1,0.3c0,0.1,0.1,0.3,0.1,0.4
				c0,0.1,0,0.1,0,0.2c0,0,0,0.1,0,0.1c0,0.2-0.1,0.4-0.1,0.6c0,0.1-0.1,0.2-0.1,0.3c-0.1,0.1-0.2,0.2-0.2,0.3c0,0,0,0.2,0,0.3
				c-0.1,0.2-0.2,0.4-0.2,0.6c0,0.1,0,0.2,0.1,0.2s0.2,0,0.2-0.1c0-0.1,0.1-0.2,0.1-0.4c0,0,0,0,0.1,0.1c0,0.1,0.1,0.1,0.1,0.2
				c0,0,0.1,0.1,0.1,0.1c0,0,0,0.1,0,0.1c0,0.1,0.1,0.3,0.1,0.4c0.1,0.1,0.2,0.2,0.3,0.2c0,0.1,0.1,0.2,0.2,0.2c0.1,0,0.1,0,0.2,0.1
				c0.2,0,0.4,0,0.6,0c0.1,0,0.1,0,0.2,0c0.1,0,0.2,0,0.2,0c0,0,0,0,0,0c0.1,0,0.1,0,0.2-0.1c0.1,0,0.3-0.1,0.4-0.2
				c0.1-0.1,0-0.3,0-0.4c0-0.2,0-0.5,0-0.7c0-0.5,0-0.9,0.1-1.4c0-0.2,0-0.4,0-0.6c0-0.1,0-0.1,0-0.2c0-0.2-0.1-0.4-0.1-0.5
				c0-0.1-0.1-0.3-0.2-0.4c-0.1-0.2-0.3-0.2-0.5-0.2l-0.6,0l0,0c-0.1-0.1-0.2-0.2-0.3-0.2c0,0-0.1-0.1-0.1-0.1c0,0-0.1,0-0.1-0.1
				C33.7,7.4,33.4,7.3,33.2,7.4z M8.9,10.3c-0.5,0.4-0.9,0.8-1.4,1.2l0,0c0.5-0.4,0.9-0.8,1.3-1.2c1.1-1,2.3-2.1,3.8-2.7l0-0.1
				l-0.1,0C11.1,8.3,10,9.3,8.9,10.3z M10,8.3C9.7,8.6,9.3,8.9,8.9,9.2c-0.5,0.4-1,0.8-1.4,1.2c-0.3,0.3-0.6,0.6-0.9,0.8l0,0
				c0.3-0.3,0.6-0.5,0.9-0.8c0.2-0.1,0.3-0.3,0.5-0.4c0.3-0.3,0.6-0.5,0.9-0.8C9.2,9,9.6,8.7,10,8.3c0.2-0.1,0.5-0.3,0.7-0.4l0-0.1
				l-0.1,0C10.5,8,10.3,8.1,10,8.3z M70.5,8.6c-0.4,0.3-0.8,0.7-1.2,1c-0.5,0.4-1,0.9-1.6,1.3c-0.2,0.2-0.4,0.3-0.6,0.4
				c-0.1,0.1-0.2,0.2-0.3,0.2c-0.1,0-0.2,0.1-0.2,0.1c0,0,0,0.1,0,0.1s0.1,0,0.1,0c0,0,0.1-0.1,0.2-0.1c0.1,0,0.2-0.2,0.3-0.2
				c0.3-0.2,0.6-0.4,0.9-0.7c0.6-0.5,1.2-1,1.8-1.5c0.2-0.2,0.4-0.3,0.6-0.5c0.1-0.1,0.1-0.1,0.2-0.2c0.1-0.1,0.3-0.3,0.4-0.4
				c0,0,0-0.1,0-0.1c0,0-0.1,0-0.1,0C70.8,8.3,70.7,8.5,70.5,8.6z M12.3,8.5c-0.3,0.1-0.5,0.3-0.7,0.5c-0.5,0.4-1,0.9-1.5,1.4
				c-0.4,0.4-0.8,0.8-1.2,1.2c-0.1,0.1-0.3,0.3-0.5,0.4l0,0c0.2-0.2,0.5-0.4,0.7-0.7c0.4-0.4,0.8-0.8,1.2-1.2
				c0.7-0.7,1.5-1.4,2.4-1.8c0,0,0,0,0-0.1s0,0-0.1,0C12.7,8.3,12.5,8.4,12.3,8.5z M33.7,8.4L33.7,8.4L33.7,8.4
				c0.2,0.1,0.4,0.1,0.6,0.1c0.1,0,0.2,0,0.3,0l0.2,0l0,0.1c0,0.1,0,0.3,0,0.4c0,0.5,0.1,0.9,0.2,1.4c-0.4,0.4-0.8,0.8-1.2,1.1
				c0,0,0,0-0.1,0c0-0.1,0-0.2,0-0.2c-0.1-0.1-0.1-0.1-0.2-0.2l-0.1-0.1l0-0.1l0.1-0.1c0.1-0.1,0.1-0.1,0.1-0.2
				c0.1-0.1,0.1-0.2,0.2-0.3c0.1-0.1,0.1-0.3,0.2-0.4c0,0,0.1-0.1,0.1-0.1c0,0,0-0.1,0-0.1c0,0,0,0,0,0c0-0.1,0-0.2,0-0.4
				c0-0.3-0.1-0.5-0.3-0.8C33.8,8.5,33.8,8.4,33.7,8.4z M59.2,8.8l0,0.1C59.2,8.9,59.2,8.8,59.2,8.8l0-0.1l0.1-0.1
				C59.3,8.7,59.3,8.7,59.2,8.8z M18.4,9.7L18.4,9.7c0.1,0.1,0.1,0.2,0,0.1L18.4,9.7L18.4,9.7z M35,10.7c0,0.3,0,0.6,0,0.9
				c0,0.1,0,0.2-0.1,0.3c-0.2,0.1-0.4,0.1-0.7,0c-0.1,0-0.1,0-0.2,0c0,0,0,0,0,0c-0.1-0.1-0.1-0.2-0.2-0.3c0.4-0.4,0.8-0.7,1.2-1.1
				C35,10.6,35,10.7,35,10.7z M38.8,15c0.1-0.2,0.1-0.3,0.2-0.5c0,0,0.1-0.3,0.2-0.4c0.1-0.1,0.1-0.1,0.2-0.2
				c0.1-0.1,0.2-0.3,0.2-0.4c0,0,0.1-0.1,0.1-0.1c0.1-0.1,0.3-0.3,0.4-0.4c0.3-0.3,0.7-0.5,1-0.8c0.2-0.1,0.4-0.2,0.6-0.4
				c0.3-0.2,0.7-0.4,1-0.6c0,0,0,0,0,0C41.3,12.5,40,13.7,38.8,15z M40.6,11.8L40.6,11.8C40.6,11.9,40.6,11.9,40.6,11.8L40.6,11.8z
				 M70.3,13.5C70.3,13.5,70.3,13.5,70.3,13.5C70.3,13.6,70.3,13.6,70.3,13.5c0.5-0.2,1-0.5,1.5-0.8c0,0,0,0,0-0.1s0,0-0.1,0
				C71.3,12.9,70.8,13.2,70.3,13.5z M34.4,13.2c-0.1,0-0.2,0.1-0.3,0.1C34,13.4,34,13.9,34,14.1c0,0.1,0,0.1,0,0.1c0,0,0,0.2,0,0.2
				c0,0.4,0.1,1,0.3,1.3c0,0.1,0.1,0.1,0.1,0.2c0.1,0.1,0.2,0.1,0.3,0.2c0.1,0.1,0.3,0.1,0.4,0.1h0.1c0,0,0.1,0,0.1,0l0,0l0,0
				c0,0,0.1,0,0.1,0c0.2-0.1,0.3-0.2,0.5-0.4c0,0,0.1-0.1,0.1-0.2c0.1-0.1,0.1-0.3,0.1-0.4c0-0.1-0.2-0.2-0.2-0.2
				c-0.1-0.2-0.2-0.4-0.3-0.6c-0.1-0.2-0.1-0.5-0.2-0.8c0-0.1,0-0.2-0.1-0.3c0-0.1-0.1-0.1-0.1-0.1c0,0-0.1,0-0.1,0
				c-0.1,0-0.1,0-0.2,0C34.8,13.1,34.5,13.1,34.4,13.2z M45.9,13.1L45.9,13.1L45.9,13.1l-0.2,0.2c-0.3,0.2-0.6,0.3-0.9,0.4
				c-0.1,0-0.1,0-0.2,0.1C45.1,13.5,45.5,13.3,45.9,13.1z M35,13.6L35,13.6c0.1,0.7,0.2,1.2,0.6,1.6l0.1,0.1l-0.1,0.1
				c-0.1,0.1-0.1,0.2-0.2,0.2l-0.1,0c0,0-0.1,0-0.1,0.1l0,0c-0.2,0-0.4-0.1-0.5-0.3c0-0.1,0-0.1-0.1-0.2c0,0,0,0,0-0.1
				c0.1,0,0.1-0.1,0.1-0.2c-0.1-0.1-0.1-0.2-0.1-0.3c-0.1-0.1-0.1-0.3-0.1-0.4c0-0.1,0-0.1,0-0.1c0-0.1,0-0.2,0-0.2c0,0,0-0.1,0-0.2
				c-0.1,0.1-0.1,0,0,0l0.1,0C34.6,13.6,34.8,13.6,35,13.6L35,13.6z M62.7,14.6c-0.4,0.3-0.8,0.6-1.3,0.9c-0.3,0.2-0.5,0.4-0.8,0.6
				c-0.6,0.5-1.3,1.1-2,1.6c-0.5,0.4-1,0.8-1.6,1.1c-0.2,0.1-0.3,0.2-0.5,0.3c-0.2,0.1-0.3,0.2-0.5,0.2l0,0.1
				c0.2-0.1,0.4-0.2,0.5-0.2c0.2-0.1,0.3-0.2,0.5-0.3c0.5-0.3,1.1-0.7,1.5-1.1c0.9-0.7,1.8-1.5,2.8-2.2c0.3-0.2,0.6-0.5,0.9-0.7
				c0.5-0.3,1-0.6,1.6-0.9c0,0,0-0.1,0-0.1c0,0-0.1,0-0.1,0C63.4,14.1,63,14.3,62.7,14.6z M38.5,14.2L38.5,14.2L38.5,14.2L38.5,14.2
				z M20.2,14.8c-0.4,0.3-0.7,0.6-1.1,0.9c-0.6,0.5-1.3,1.1-1.9,1.6c-0.2,0.2-0.5,0.4-0.6,0.5c0,0,0,0.1,0,0.1c0,0,0.1,0,0.1,0
				c0.1-0.1,0.3-0.2,0.4-0.3c0.1-0.1,0.3-0.2,0.4-0.3c0.1-0.1,0.3-0.2,0.4-0.4c0.5-0.4,0.9-0.8,1.3-1.2
				C19.5,15.5,19.9,15.2,20.2,14.8c0.2,0,0.4-0.2,0.5-0.3c0,0,0-0.1,0-0.1c0,0-0.1,0-0.1,0C20.5,14.5,20.3,14.6,20.2,14.8z
				 M69.1,14.8C69.1,14.8,69.1,14.8,69.1,14.8c-0.1,0-0.3,0-0.5,0c-0.3,0.1-0.5,0.2-0.8,0.3c-0.4,0.2-0.8,0.4-1.1,0.6
				c-0.1,0.1-0.2,0.1-0.3,0.2c-0.1,0.1-0.2,0.2-0.3,0.2c-0.1,0.1-0.2,0.1-0.2,0.2c0,0-0.1,0.1-0.1,0.1c-0.2,0.1-0.3,0.2-0.4,0.3
				c0,0,0,0,0,0c-0.1,0.1-0.1,0.1-0.1,0.2c-0.1,0.2-0.2,0.5-0.2,0.8c-0.3,0.3-0.7,0.6-1,0.8c-0.3,0.2-0.5,0.5-0.8,0.7
				c-0.3,0.3-0.7,0.6-1,0.9c-0.2,0.2-0.5,0.4-0.8,0.7c-0.4,0.4-0.8,0.7-1.3,1.1c-0.2,0.2-0.5,0.4-0.7,0.6c0,0,0,0.1,0,0.1
				c0,0,0.1,0,0.1,0c0.5-0.4,0.9-0.8,1.4-1.1c0.4-0.3,0.8-0.7,1.2-1c0.3-0.3,0.6-0.6,0.9-0.8c0.5-0.4,1-0.8,1.4-1.2
				c0.2-0.2,0.4-0.3,0.6-0.5c0,0.1,0,0.2,0,0.2c0,0,0,0,0,0c0,0.2,0,0.4,0,0.6c0,0.1,0,0.2,0.1,0.3c0,0.1,0.1,0.2,0.2,0.2
				c0,0.1,0.1,0.3,0.1,0.4c0,0,0.1,0.1,0.1,0.1c-0.1,0.1-0.2,0.2-0.3,0.2c-0.2,0.2-0.4,0.4-0.6,0.6c-0.5,0.5-1.1,1-1.6,1.4
				c-0.8,0.7-1.6,1.4-2.3,2.1c-0.8,0.7-1.5,1.5-2.2,2.3c-0.6,0.3-1.1,0.7-1.7,1.1c-0.9,0.6-1.9,1.1-2.8,1.7c0,0,0,0.1,0,0.1
				c0,0,0.1,0,0.1,0c1.3-0.8,2.6-1.6,3.9-2.4c0.1,0,0.1-0.1,0.2-0.1c-0.2,0.2-0.3,0.4-0.4,0.6c0,0,0,0.1,0,0.1c0,0,0.1,0,0.1,0
				c0.2-0.3,0.5-0.6,0.7-0.9c0.3-0.2,0.6-0.4,0.9-0.6c0,0,0-0.1,0-0.1c0,0-0.1,0-0.1,0c-0.2,0.1-0.3,0.2-0.5,0.3
				c0.1-0.1,0.1-0.2,0.2-0.2c0.6-0.7,1.4-1.4,2.1-2c0.6-0.5,1.1-1,1.7-1.5c0.7-0.6,1.3-1.2,1.9-1.7c0.3-0.3,0.5-0.5,0.8-0.8
				c0.2,0.2,0.4,0.3,0.5,0.4l0.2,0.1l0,0.1l0,0.2c0,0.2-0.1,0.5-0.2,0.7C65,22.2,64,23.2,62.9,24c-0.6,0.5-1.2,1-1.8,1.5
				c-0.3,0.3-0.7,0.5-1,0.7l0,0.1c0.3-0.2,0.6-0.5,1-0.7c0.6-0.5,1.2-1,1.8-1.5c0.8-0.7,1.6-1.3,2.4-1.9c0.3-0.2,0.6-0.4,0.8-0.6
				c0,0.2,0,0.5,0,0.7c0,0.1,0,0.2,0,0.3c0,0.3,0.2,0.5,0.4,0.7c0.1,0.1,0.2,0.1,0.3,0.2l0.1,0.1l0.1,0.2c0,0.1,0,0.1,0,0.2
				c-0.2,0.3-0.3,0.7-0.3,1.1c-0.7,0.6-1.3,1.3-2,2c-0.4,0.4-0.9,0.8-1.3,1.3c-0.2,0.2-0.4,0.4-0.6,0.5c0,0,0,0.1,0,0.1s0.1,0,0.1,0
				c0.4-0.4,0.9-0.7,1.3-1.1c0.7-0.7,1.3-1.4,2-2c0.2-0.2,0.3-0.3,0.5-0.5c0,0.2,0.1,0.4,0.2,0.6c0.1,0.1,0.1,0.2,0.2,0.3
				c0.1,0.1,0.2,0.2,0.3,0.2c0,0,0,0,0,0c0,0,0,0,0,0c-0.1,0.1-0.3,0.3-0.4,0.4c-0.5,0.6-0.9,1.2-1.4,1.7c-0.2,0.3-0.6,0.9-1,1
				c0,0-0.1,0.1,0,0.1c0,0,0.1,0.1,0.1,0l0.1,0c0.1-0.1,0.1-0.1,0.2-0.2c0.1-0.1,0.3-0.3,0.4-0.4c0.1-0.1,0.3-0.3,0.4-0.5
				c0.4-0.4,0.7-0.9,1-1.3c0.2-0.2,0.4-0.5,0.7-0.8c0,0,0.1,0,0.1,0c0.2,0.4,0.5,0.8,1,0.8c0.2,0,0.4,0,0.5,0
				c0.2-0.1,0.4-0.2,0.6-0.4C69.9,27,70,27,70,27c0.1-0.1,0.3-0.3,0.4-0.5l0,0l0.2,0c0.2,0,0.4,0.1,0.5,0.1c0.2,0.1,0.4-0.1,0.4-0.3
				c0-0.2-0.1-0.4-0.3-0.4c-0.2-0.1-0.4-0.1-0.5-0.1c-0.1,0-0.2,0-0.3-0.1c-0.1,0-0.2-0.1-0.3-0.1c-0.2,0-0.3,0.1-0.4,0.2
				c0,0.1,0,0.1-0.1,0.2c0,0.1-0.1,0.2-0.1,0.2c0,0,0,0,0,0c0,0,0,0,0,0c0.1-0.1,0.1-0.3-0.1-0.4c-0.1-0.1-0.3-0.1-0.4,0.1
				c-0.1,0-0.2,0.1-0.3,0.2c-0.1,0.1-0.2,0.1-0.2,0.2l-0.1,0l-0.4-0.1c-0.1,0-0.1,0-0.2-0.1c0,0,0,0,0,0c0,0-0.1-0.1-0.1,0
				C68,26,67.9,26,67.8,26c0,0,0,0,0-0.1c0-0.1-0.1-0.1-0.2-0.1c0,0,0,0,0,0l0-0.1c0-0.2,0-0.6,0-0.7c0-0.2,0-0.5,0-0.8c0,0,0,0,0,0
				c0-0.1,0.1-0.1,0.1-0.2c0,0,0-0.1,0-0.1c0-0.4-0.4-0.9-0.7-1.2c0-0.1-0.2-0.3-0.3-0.4l0,0l0-0.2c0.1-0.2,0.1-0.4,0.2-0.5
				c0.1-0.2,0.2-0.5,0.2-0.7c0.1-0.1,0.2-0.1,0.3-0.2c0,0,0,0,0-0.1s0,0-0.1,0c-0.1,0-0.2,0.1-0.2,0.1c0-0.2,0.1-0.4,0-0.5
				c0,0,0-0.1,0-0.1c0,0-0.1-0.1-0.1-0.1c-0.1-0.1-0.2-0.2-0.3-0.2c-0.2-0.1-0.4-0.3-0.5-0.4c0,0,0,0,0.1-0.1c0,0-0.1,0-0.1,0
				c-0.1-0.1-0.2-0.1-0.2-0.2c0-0.2-0.1-0.4-0.1-0.6c0-0.2-0.1-0.4-0.1-0.5c0,0,0,0,0,0c0-0.2,0-0.3,0.1-0.5l0-0.1l0,0
				c0.5-0.4,1-0.8,1.6-1.2c0.5-0.2,1-0.5,1.6-0.6l0.1,0l0,0l0.3,0.1c0.1,0,0.2,0.1,0.3,0.1c0.1,0.1,0.2,0.1,0.3,0.2
				c0.1,0,0.1,0.1,0.2,0.1c0.1,0,0.2,0.1,0.3,0.1l0.2,0l0,0c0,0.1,0.1,0.1,0.1,0.2c0.2,0.2,0.4,0.5,0.5,0.8c0,0.1,0.1,0.2,0.2,0.3
				c0.1,0.2,0.3,0.2,0.5,0.1c0.2-0.1,0.2-0.3,0.1-0.5c-0.3-0.4-0.5-0.8-0.8-1.1c0-0.1-0.1-0.1-0.1-0.2c-0.2-0.3-0.3-0.4-0.5-0.6
				c-0.1-0.1-0.2-0.1-0.3-0.2c0,0-0.1,0-0.1-0.1c-0.2-0.1-0.5-0.1-0.8-0.1c0,0,0.1-0.1,0.1-0.1c0,0,0-0.1,0-0.1s-0.1,0-0.1,0
				C69.4,14.6,69.3,14.7,69.1,14.8z M70.2,14.8L70.2,14.8L70.2,14.8L70.2,14.8z M70.3,14.9C70.3,14.9,70.4,14.9,70.3,14.9L70.3,14.9
				L70.3,14.9L70.3,14.9L70.3,14.9C70.3,14.9,70.3,14.9,70.3,14.9z M70.4,14.9l0.3,0.2L70.4,14.9L70.4,14.9z M70.4,14.9L70.4,14.9
				L70.4,14.9L70.4,14.9z M66.9,16.4c0,0,0.1-0.1,0.1-0.1c0,0,0,0,0,0C66.5,16.5,66.3,16.7,66.9,16.4z M36.8,17.3
				c-0.1,0.1-0.2,0.2-0.3,0.3c0,0,0,0,0,0c0,0-0.1,0-0.1,0c0,0.1-0.1,0.1-0.1,0.2c0,0-0.1,0.1-0.1,0.1l-0.2,0.2l-0.2,0.1
				c0.4-0.5,0.8-1,1.2-1.4C37,17,36.9,17.2,36.8,17.3z M29.4,18.4c-0.4,0.2-0.7,0.5-1.1,0.7c-0.7,0.5-1.3,1.1-2,1.6
				c-0.5,0.4-1,0.8-1.5,1.3c-0.2,0.2-0.4,0.4-0.6,0.5l0,0c0.6-0.5,1.2-1,1.8-1.5c0.8-0.7,1.6-1.3,2.5-1.9c0.4-0.3,0.8-0.6,1.3-0.9
				C29.7,18.2,29.5,18.3,29.4,18.4z M45.2,19.3l-0.1,0.1l-0.1,0c0,0-0.1,0-0.1,0c0.1-0.1,0.2-0.3,0.4-0.4c0,0,0-0.1,0.1-0.1
				C45.4,19.1,45.3,19.2,45.2,19.3z M42.6,21.1L42.6,21.1L42.6,21.1l-0.2,0.1c0,0-0.1,0-0.2,0c0.1,0,0.1-0.1,0.2-0.1
				C42.5,21.2,42.5,21.1,42.6,21.1z M65.5,23.7c-0.1,0.1-0.3,0.3-0.5,0.4c-0.5,0.5-1,0.9-1.6,1.4c-0.8,0.7-1.7,1.4-2.5,2.2
				c-0.3,0.3-0.6,0.6-0.9,0.9l0,0.1l0.1,0c0.3-0.3,0.6-0.6,0.9-0.9c0.3-0.3,0.7-0.6,1-0.9c0.3-0.3,0.7-0.6,1-0.8
				c0.7-0.5,1.3-1.1,2-1.6c0.3-0.3,0.7-0.6,1-0.9c0.1-0.1,0.2-0.2,0.4-0.4c0,0,0-0.1,0-0.1s-0.1,0-0.1,0
				C66,23.2,65.7,23.4,65.5,23.7z M66.9,28.8c-0.1,0.1-0.3,0.3-0.4,0.4c-0.1,0.1-0.3,0.3-0.4,0.4c0,0,0,0.1,0,0.1s0.1,0,0.1,0
				c0.3-0.3,0.6-0.6,0.9-0.9c0.2-0.2,0.4-0.4,0.6-0.6c0,0,0-0.1,0-0.1s-0.1,0-0.1,0C67.3,28.4,67.1,28.6,66.9,28.8z M21.1,28.8
				c-0.1,0.1-0.4,0.2-0.5,0.3c-0.1,0.1-0.2,0.2-0.3,0.3c-0.3,0.2-0.6,0.5-0.8,0.8c-0.2,0.1-0.3,0.3-0.4,0.4l0,0
				c0.1-0.1,0.2-0.3,0.4-0.4c0.1-0.3,0.4-0.6,0.8-0.8c0.3-0.3,0.6-0.5,1-0.6C21.2,28.7,21.1,28.7,21.1,28.8z M66.8,30.5L66.8,30.5
				L66.8,30.5c0.5-0.3,0.9-0.6,1.3-1l0-0.1l-0.1,0C67.6,29.8,67.2,30.1,66.8,30.5z M19.5,31.1c-0.1,0.1-0.3,0.3-0.4,0.5
				c-0.1,0.1-0.2,0.1-0.2,0.2l0,0c0.1-0.1,0.1-0.1,0.2-0.2C19.2,31.5,19.4,31.3,19.5,31.1c0.4-0.3,0.9-0.7,1.3-0.9c0,0,0,0,0-0.1
				c0,0,0,0-0.1,0C20.3,30.3,19.9,30.8,19.5,31.1z M28,31.1c-0.1,0.1-0.3,0.2-0.5,0.2c-0.4,0.2-0.7,0.3-1,0.5
				c-0.1,0.1-0.2,0.1-0.2,0.2c0,0-0.1,0.1-0.1,0.1c-0.1,0.1-0.1,0.2-0.1,0.3l0.1,0c0.1-0.3,0.3-0.6,0.6-0.8c0.2-0.1,0.5-0.3,0.7-0.4
				c0.3-0.1,0.7-0.3,0.9-0.5l-0.1,0C28.2,31,28.1,31,28,31.1z M33.9,36.5c-0.3,0.2-0.6,0.5-0.8,0.7c-0.1,0.1-0.3,0.2-0.4,0.3
				c0,0,0,0.1,0,0.1s0.1,0,0.1,0c0.1-0.1,0.3-0.2,0.4-0.3c0.1-0.1,0.2-0.2,0.4-0.3c0.2-0.2,0.4-0.3,0.6-0.5c0.2-0.2,0.4-0.3,0.6-0.5
				c0.4-0.4,0.9-0.7,1.4-1c0,0,0-0.1,0-0.1c0,0-0.1,0-0.1,0C35.3,35.3,34.6,35.9,33.9,36.5z M23.7,35.2c0,0-0.1,0-0.1,0
				c-0.1,0-0.2,0-0.3,0c-0.6,0.1-1.3,0.4-1.9,0.6c-0.5,0.2-1,0.3-1.6,0.3c-0.2,0-0.5,0-0.8,0c-0.1,0-0.3,0-0.4-0.1
				c-0.1,0-0.3-0.1-0.4-0.1c-0.1,0-0.2-0.1-0.3-0.1c-0.3,0-0.2,0.3-0.2,0.5c0,0.1,0,0.3,0,0.3c0,0,0,0,0.1,0.1c0,0,0.1,0.1,0.2,0.1
				c0,0,0.1,0,0.1,0.1c0.2,0.4,0.6,0.7,1,0.8c0.1,0,0.4,0,0.5,0l0.2,0c0,0.1,0,0.1,0,0.2c0,0.1-0.1,0.3-0.1,0.4
				c-0.1,0.1-0.1,0.3-0.2,0.4c-0.1,0.1-0.2,0.2-0.3,0.3c-0.2,0.3,0.2,0.5,0.4,0.7c0.3,0.3,0.7,0.5,1.1,0.7c0,0.1,0,0.2,0.1,0.3
				c0,0.2,0.1,0.3,0.2,0.5c0,0.1,0.1,0.1,0.1,0.2c0,0.1,0.1,0.2,0.2,0.2c0,0.2,0.1,0.4,0.2,0.4c0.2,0.3,0.3,0.3,0.7,0.3l0.4,0l0,0
				c0,0.1,0,0.2,0,0.3c0,0.1,0,0.3,0,0.4c-0.1,0.3-0.2,0.6-0.1,0.8c0,0.1,0.1,0.2,0.1,0.3c0,0.1-0.1,0.3-0.1,0.4l0,0.1
				c0,0-0.1,0.1-0.1,0.1c0,0.1-0.1,0.1-0.1,0.2c-0.1,0.1-0.3,0.1-0.3,0.3l-0.1,0c-0.1,0.1-0.2,0.2-0.2,0.3c-0.2,0.4-0.1,0.8,0,1.2
				c0,0.3-0.3,0.4-0.4,0.6c-0.1,0.1-0.1,0.2-0.1,0.4c0,0.5,0.3,0.8,0.7,1l0.2,0.1l0,0.1c-0.1,0.3-0.2,0.5-0.2,0.9c0,0,0,0.1,0,0.1
				c0,0.2,0.3,0.5,0.4,0.6c0.1,0.1,0.2,0.1,0.2,0.1c0.1,0,0.2-0.1,0.3-0.1c0.1,0,0.2,0.1,0.2,0.1c0.2,0.1,0.3,0.3,0.5,0.4
				c0.5,0.5,1.3,1.5,2.1,1.3c0.3-0.1,0.5-0.2,0.7-0.4c0.1,0,0.1-0.1,0.1-0.2c0-0.1,0.1-0.2,0-0.2c0-0.1,0-0.1,0-0.1
				c0-0.1,0-0.1,0-0.2c0-0.1,0-0.2,0-0.2c0-0.1,0-0.2,0-0.3c0.1,0,0.2-0.1,0.3-0.2c0,0,0-0.2,0-0.2c0,0,0-0.1,0-0.1
				c0-0.1,0-0.2,0-0.3c0.1,0,0.2-0.1,0.4-0.2c0.1-0.1,0.1-0.2,0.1-0.3c0,0,0-0.1,0-0.1c0-0.2-0.1-0.4-0.2-0.6
				c-0.1-0.4-0.3-0.9-0.6-1.4c0,0,0,0,0,0c0-0.1-0.1-0.1-0.2-0.2c0-0.1-0.1-0.1-0.1-0.2c-0.1-0.2-0.1-0.3-0.2-0.4l-0.1-0.1l0.1-0.3
				c0.1-0.1,0.1-0.3,0.2-0.4c0-0.1,0.1-0.2,0.1-0.4c0.1-0.1,0.1-0.1,0.2-0.2c0.2-0.2,0.3-0.4,0.3-0.7c0-0.1,0-0.2-0.1-0.3
				c0,0,0-0.1,0-0.1c0.1-0.3-0.1-0.5-0.2-0.8c0-0.1-0.1-0.2-0.1-0.4l0-0.1l0.1-0.2c0.1-0.1,0.2-0.3,0.3-0.4c0.1-0.1,0.1-0.2,0.2-0.3
				c0-0.1,0.1-0.1,0.1-0.2c0.1-0.1,0.1-0.2,0.2-0.3c0.1-0.1,0.1-0.5,0.1-0.7c0-0.3,0-0.6,0-1c0-0.1,0-0.2,0-0.3l0.2-0.1
				c0.1,0,0.2-0.1,0.3-0.1c0.1,0,0.2-0.1,0.2-0.2c0.3-0.3,0.3-0.6,0.2-1c0-0.1-0.1-0.3-0.1-0.4c0,0,0-0.1,0-0.1c0,0,0-0.1,0-0.1
				c0,0,0,0,0,0c0,0,0,0,0,0c0,0-0.1-0.1-0.1-0.2c-0.1-0.1-0.2-0.3-0.3-0.5l-0.3-0.3l0.1-0.1c0.1-0.1,0.1-0.2,0.1-0.3
				c0-0.1,0-0.2,0-0.4c0-0.1,0-0.2,0-0.3c-0.1-0.2-0.1-0.3-0.3-0.4c0,0,0,0,0,0c0-0.1-0.1-0.1-0.1-0.2c-0.1-0.1-0.8-0.1-0.9-0.1
				C25.3,35,24.4,35,23.7,35.2z M24.2,35.7c0.5,0,1.1,0.1,1.6,0.1c0.2,0,0.5,0,0.7,0c0,0,0,0,0.1,0c0,0.4-0.2,1-0.2,1.4
				c0,0.1,0.2,0.3,0.3,0.4c0.1,0.1,0.4,0.3,0.6,0.4c0.1,0.1,0.1,0.3,0.1,0.4c0,0.4-0.2,0.6-0.6,0.7c-0.1,0-0.2,0.1-0.3,0.1
				c-0.1,0.1-0.2,0.2-0.2,0.4c0,0.1,0.1,0.1,0.1,0.1c0,0.1,0,0.2,0,0.3c0,0.4,0,0.8-0.1,1.1l-0.1,0.3l0,0c0,0,0,0,0-0.1
				c0-0.2,0-0.5,0-0.7c0-0.6-0.1-1.2,0-1.8c0-0.1-0.1-0.2-0.1-0.2c-0.1,0-0.2,0.1-0.2,0.1c-0.1,0.5,0,1,0,1.5c0,0.5,0,1-0.1,1.5
				c0,0.2-0.1,0.4-0.2,0.6c0,0.1-0.1,0.1-0.1,0.2c0,0,0,0,0,0.1c0,0,0,0.1-0.1,0.1c0,0-0.1,0.1-0.1,0.2c0,0,0,0,0,0
				c0,0.1,0,0.1,0,0.2c0,0.1,0,0.1,0,0.2c0,0.3,0.1,0.6,0.2,0.8c0,0,0,0.1,0.1,0.1c0,0.2-0.1,0.5-0.2,0.6c-0.1,0.2-0.1,0.3-0.2,0.5
				c0,0,0,0-0.1,0.1c-0.1,0.1-0.1,0.2-0.2,0.3c-0.1,0.1-0.1,0.3-0.1,0.6c0,0.1-0.1,0.2-0.1,0.3c0,0.1,0,0.1,0,0.2
				c0,0.1,0.2,0.2,0.3,0.3c0,0,0,0,0,0c0,0,0,0,0,0l0,0c0.1,0.1,0.2,0.3,0.3,0.5c0.1,0.2,0.2,0.4,0.2,0.6c0,0.1,0,0.2,0,0.2
				c0,0.3,0.1,0.6,0.1,0.9c0,0,0,0.1,0,0.1c-0.2,0.1-0.5,0.2-0.6,0.4c-0.2,0.2-0.4,0.6-0.2,0.8c0.1,0.2,0.3,0.1,0.4,0.2
				c0,0,0.1,0.3,0.1,0.4c0,0.1,0,0.2,0,0.3l0,0.2l-0.2,0.1c-0.1,0-0.2,0-0.2,0c-0.1,0-0.2,0-0.3-0.1c-0.2-0.1-0.3-0.2-0.5-0.4
				c-0.3-0.3-0.5-0.6-0.8-0.8c0.1,0,0.1-0.1,0.2-0.1c0-0.1,0-0.1-0.1-0.2c-0.1-0.2-0.2-0.2-0.4-0.2l0,0L23,50.1
				c-0.1-0.1-0.2-0.1-0.3-0.2l0-0.1c0-0.4-0.1-0.8-0.4-1.1c0,0,0,0,0,0c0,0,0,0,0-0.1c0,0,0,0-0.1-0.1c-0.1-0.1-0.2-0.2-0.3-0.3l0,0
				l0.1-0.1c0.1-0.1,0.1-0.3,0.1-0.5c0-0.1,0-0.1,0-0.2c0-0.1,0-0.2,0-0.3c0,0,0-0.1,0-0.1c0-0.1,0-0.1,0-0.2c0-0.2,0-0.4,0-0.6
				c0-0.2,0.2-0.3,0.4-0.3c0.1,0,0.2,0,0.3-0.1c0.1-0.1,0.1-0.3,0.1-0.4c0-0.1,0-0.1-0.1-0.2l0,0c0.1-0.1,0.3-0.2,0.3-0.3
				c0.1-0.1,0-0.5,0-0.7c0-0.1-0.1-0.2-0.1-0.2l-0.1-0.2l0,0c0-0.1,0.1-0.3,0.1-0.5c0.1-0.2,0.3-0.6,0.2-0.8c0-0.2-0.1-0.3-0.2-0.4
				c0,0-0.1-0.1-0.2-0.2c0-0.1,0-0.1,0-0.2c-0.1-0.2-0.3-0.2-0.4-0.2c-0.2,0-0.4,0-0.6-0.1l0-0.1l0-0.1c0.1-0.2,0.2-0.5,0.2-0.7
				c0-0.1,0-0.1-0.1-0.2c0,0-0.1-0.1-0.1-0.1c-0.1,0-0.2-0.1-0.3-0.1c-0.1,0-0.2-0.1-0.3-0.1c0,0-0.1,0-0.1-0.1
				c0-0.1-0.1-0.3-0.2-0.4c-0.1-0.2-0.5-0.3-0.7-0.4c0.2-0.1,0.6-0.3,0.7-0.6c0.1-0.2,0.1-0.6,0-0.8l0-0.1l0.1,0
				c0.1,0,0.1-0.1,0.1-0.1c0-0.1,0-0.1,0-0.2l-0.1-0.1l0,0c0-0.1,0-0.2-0.1-0.2c-0.1-0.1-0.4-0.1-0.5,0l0,0.1l-0.2,0
				c-0.1,0-0.2,0-0.3,0c-0.1,0-0.3,0-0.4,0l-0.3,0l-0.1,0c-0.1-0.1-0.3-0.2-0.3-0.3c-0.1-0.1-0.2-0.1-0.2-0.2l-0.2-0.1l0,0v0
				c0,0,0,0,0,0l0.3,0.1c0.4,0.1,0.8,0.1,1.2,0.1c0.1,0,0.1,0,0.2,0c0.3,0.1,0.6,0,0.9,0c0.5-0.1,0.9-0.2,1.3-0.3
				c0.3-0.1,0.6-0.2,0.9-0.3c0.2-0.1,0.4-0.1,0.5-0.2c0.1,0,0.1-0.1,0.2-0.1c0,0,0.1,0,0.1,0C24,35.7,24.1,35.7,24.2,35.7z
				 M36.2,36.5c-0.4,0.2-1,0.6-1.3,0.9c-0.3,0.3-0.5,0.5-0.8,0.9l0,0.1l0.1,0c0.3-0.3,0.6-0.7,0.9-0.9c0.4-0.3,0.8-0.5,1.2-0.8
				c0.2-0.1,0.4-0.3,0.6-0.4c0,0,0-0.1,0-0.1c0,0-0.1,0-0.1,0C36.6,36.2,36.4,36.4,36.2,36.5z M36.8,39.2L36.8,39.2
				c0.2-0.3,0.5-0.6,0.8-0.9C37.3,38.6,37.1,38.9,36.8,39.2z M54.6,40.3c-0.4,0.4-0.8,0.8-1.1,1.1l0,0c0.6-0.6,1.2-1.2,1.8-1.8
				C55.1,39.8,54.8,40.1,54.6,40.3z M13.6,41c-0.2,0.1-0.5,0.4-0.6,0.6c-0.2,0.3-0.3,0.6-0.1,1c0.1,0.2,0.3,0.2,0.5,0.3
				c0.1,0,0.1,0,0.2,0c0,0,0.1,0,0.1,0c0.1,0.1,0.2,0.1,0.3,0.2l0.1,0.1c0.4,0.5,0.3,1,0.3,1.7c0,0.4,0,0.7,0.2,1
				c0,0,0.1,0.1,0.1,0.1c0.1,0,0.2,0.1,0.2,0.1c0.3,0.2,0.8,0.2,1.1,0.1c0.1-0.1,0.3-0.1,0.4-0.2c0.2-0.1,0.3-0.2,0.5-0.2l0.1,0l0,0
				c0,0.1,0,0.2,0,0.3c0,0.3,0.1,0.6,0.3,0.7c0.2,0.1,0.3,0.1,0.4,0.1c0.1,0.1,0.3,0.1,0.5,0.2c0,0,0.1,0,0.2,0c0,0,0,0,0,0.1
				c0.1,0.1,0.1,0.1,0.2,0.1c0.5,0,0.8-0.1,1.2-0.4c0.4-0.3,0.8-0.8,1-1.2c0.1-0.1,0.1-0.3,0.1-0.4c0-0.1,0-0.3,0-0.5
				c0,0,0-0.1,0-0.1c-0.1-0.3-0.3-0.6-0.5-0.7c-0.2-0.2-0.4-0.4-0.6-0.5c-0.1,0-0.1-0.1-0.2-0.1c0,0,0,0,0,0c-0.1,0-0.2-0.1-0.2-0.2
				l0,0c0-0.1-0.1-0.2-0.2-0.3l0,0l0,0c0-0.1,0-0.2,0-0.2c0-0.3,0.1-0.6-0.1-0.9c-0.1-0.1-0.2-0.2-0.4-0.2c0,0,0,0,0,0
				c-0.1-0.1-0.1-0.4-0.3-0.5c-0.1-0.1-0.2-0.1-0.3-0.1c0,0-0.1,0-0.1,0c-0.2,0-0.4-0.1-0.6-0.1c-0.1,0-0.3,0-0.4,0
				c-0.3,0-0.6,0.1-0.8,0.2l-0.3,0l-0.2,0c-0.1,0-0.1-0.1-0.2-0.1c-0.3-0.1-0.6-0.2-0.9-0.2C14.4,40.6,13.9,40.8,13.6,41z M50.2,41
				C50.1,41,50,41,49.8,41c-0.2,0-0.3,0-0.5-0.1c0.3,0,0.7-0.1,1-0.2c0.1,0,0.3-0.1,0.4-0.1c0,0,0.1,0,0.1,0
				C50.7,40.7,50.5,40.9,50.2,41z M21.1,40.8L21.1,40.8L21.1,40.8C21.1,40.9,21.1,40.8,21.1,40.8C21.1,40.8,21.1,40.8,21.1,40.8
				L21.1,40.8z M39.6,41.5c0.1,0.1,0.1,0.1,0.2,0.2c0,0,0,0,0,0c0,0.1,0.1,0.1,0.1,0.2c-0.5,0.5-1.1,1.1-1.6,1.6v0.1h0.1
				c0.5-0.5,1.1-1.1,1.6-1.6c0.1,0.1,0.2,0.2,0.3,0.2c0.1,0,0.1,0.1,0.2,0.1l0.1,0.1v0.1l0,0c0,0-0.1,0.1-0.1,0.1c0,0,0,0,0,0
				c-0.3,0.1-0.4,0.2-0.6,0.5c-0.1,0.2-0.2,0.7-0.2,0.9c0,0,0,0,0,0c0,0.1,0,0.2,0,0.3c0,0.2,0,0.4,0,0.7c0,0.1,0,0.3,0,0.4
				c0,0.2-0.1,0.4-0.2,0.6l-0.1,0.1l-0.1,0l-0.4-0.4c-0.4-0.5-0.8-1.1-1-1.7c-0.1-0.3-0.2-0.7-0.2-1c0.1,0,0.1-0.1,0.2-0.1
				c0.1-0.1,0.3-0.2,0.4-0.3c0.1-0.1,0.3-0.3,0.4-0.4c0.1-0.2,0.3-0.3,0.4-0.5c0.2-0.2,0.3-0.4,0.5-0.6c0,0,0,0,0-0.1
				C39.5,41.2,39.5,41.3,39.6,41.5z M14.6,41.3c0.1,0,0.2,0,0.3,0c0.2,0,0.3,0,0.5,0c0.1,0,0.1,0,0.2,0.1c0.1,0.1,0.3,0.1,0.5,0.1
				c0,0,0.1,0,0.2,0c0.1,0,0.2,0,0.3-0.1c0.1,0,0.2,0,0.3,0c0.5,0.1,1,0.1,1.4,0.2c0.1,0,0.1,0,0.2,0c0.1,0.2,0.2,0.4,0.3,0.6
				c0,0.1,0.1,0.2,0.1,0.3c0,0,0,0.1,0.1,0.2c0,0,0,0,0,0c0,0.1,0,0.2,0,0.2c0,0,0,0.1,0.1,0.1c-0.1,0-0.1,0.1-0.1,0.2
				c0,0.2,0.1,0.4,0.3,0.4c0.3,0,0.7,0.3,1,0.6l0,0.1l0.1,0.2l0,0.2l0,0l0,0c0,0,0,0.2,0,0.2c0,0.1-0.1,0.1-0.1,0.2
				c-0.2,0.3-0.5,0.6-0.7,0.9c0,0.1-0.1,0.1-0.2,0.2l-0.1,0.2l0,0c-0.1,0-0.1,0.1-0.2,0.1c0,0,0,0,0,0c0-0.1-0.1-0.2-0.1-0.2
				c0,0-0.1-0.1-0.1-0.1h-0.6c-0.1,0-0.2,0-0.2,0l0-0.1c0-0.1-0.1-0.1-0.1-0.2c-0.1-0.1-0.1-0.3-0.2-0.4c0-0.1-0.1-0.3-0.2-0.4
				c0,0-0.1-0.1-0.2,0c0,0,0,0,0,0c-0.1,0-0.1,0-0.2,0c0,0,0,0,0,0c-0.1,0-0.1,0-0.2,0c-0.2,0-0.4,0.1-0.6,0.2
				c-0.1,0.1-0.3,0.2-0.4,0.2c-0.1,0-0.3,0-0.4,0c-0.1-0.1-0.2-0.2-0.3-0.3l-0.1-0.1l0,0c0-0.1,0-0.2,0-0.3c0-0.1,0-0.1,0-0.2
				c0-0.4,0.1-0.9,0-1.2c-0.1-0.2-0.2-0.3-0.4-0.4c-0.1-0.2-0.3-0.5-0.6-0.6c-0.2-0.1-0.5-0.1-0.6-0.2c0,0,0-0.1,0-0.1l0-0.1
				c0.2-0.3,0.6-0.6,1-0.8C14.4,41.3,14.5,41.4,14.6,41.3z M43.6,42.9L43.6,42.9c0,0.2,0,0.3,0,0.3c0,0.1,0,0.2,0,0.3
				c0,0.1,0,0.1,0,0.2c-0.2,0.2-0.4,0.4-0.6,0.5c-0.1,0.1-0.2,0.2-0.3,0.3c0-0.1,0-0.2,0-0.2c0-0.1,0-0.3,0-0.4c0-0.1,0-0.2,0-0.4
				c0,0,0,0,0,0l0,0c0.1,0,0.1-0.1,0.1-0.1c0.1-0.1,0.1-0.1,0.2-0.2C43.1,43.1,43.4,42.9,43.6,42.9z M44.3,44.9
				c-0.3,0.3-0.6,0.6-0.9,0.9c-0.7,0.7-1.4,1.4-2,2.2l0,0.1l0.1,0c0.6-0.8,1.3-1.5,2-2.1C43.7,45.6,44,45.3,44.3,44.9
				c0.5,0.2,0.9,0.1,1.3-0.1c0.1,0,0.2-0.1,0.3-0.1c0,0,0,0,0,0l0,0.2c0,0,0,0.1,0,0.1c-0.1,0.1-0.2,0.1-0.3,0.2
				c-0.8,0.6-1.5,1.2-2.1,2c-0.5,0.6-1,1.2-1.6,1.7c-0.2,0.2-0.4,0.4-0.6,0.5c-0.1,0.1-0.2,0.2-0.4,0.3c0,0,0,0-0.1,0c0,0,0,0,0,0
				c0-0.1-0.1-0.1-0.1-0.2c-0.1-0.1-0.1-0.2-0.1-0.3c-0.1-0.5,0.1-1,0.4-1.4c0.4-0.6,0.9-1.2,1.2-1.8c0,0,0-0.1,0-0.1
				c0.1-0.1,0.1-0.2,0.2-0.3c0.1-0.3,0.1-0.6,0.1-0.9c0.2-0.2,0.4-0.4,0.6-0.5c0.1-0.1,0.2-0.2,0.4-0.3
				C43.7,44.3,43.9,44.7,44.3,44.9z M21.7,45.3C21.7,45.3,21.7,45.3,21.7,45.3L21.7,45.3C21.7,45.3,21.7,45.3,21.7,45.3z M21.7,45.3
				C21.7,45.3,21.7,45.3,21.7,45.3C21.7,45.3,21.7,45.3,21.7,45.3z M46.7,45.7c0,0.1,0.1,0.2,0.1,0.3c0,0,0,0-0.1,0
				C46.7,45.9,46.6,45.8,46.7,45.7C46.6,45.7,46.6,45.7,46.7,45.7z M52.2,45.7L52.2,45.7L52.2,45.7z M46.9,46.8c0,0,0,0.1,0,0.1
				l-0.1-0.2l-0.1-0.5l0,0c0,0,0,0,0.1,0C46.8,46.4,46.8,46.6,46.9,46.8z M58.6,47.1c-0.1,0-0.2,0.1-0.3,0.1
				c-0.3,0.2-0.6,0.4-0.9,0.6c-0.8,0.6-1.6,1.3-2.3,2c-0.3,0.3-0.5,0.6-0.8,0.8c-0.3,0.3-0.7,0.7-1,1.1l0.1,0
				c1.4-1.6,2.7-3.1,4.5-4.3c0.4-0.2,0.8-0.5,1.2-0.7C59,46.9,58.8,47,58.6,47.1z M53.1,49.8c-0.3-0.2-0.6-0.3-0.5-0.7l0.3,0
				c0.4-0.1,0.8-0.2,1.1-0.4C53.7,49,53.3,49.4,53.1,49.8z M22.2,49.5c0,0.1,0,0.2,0,0.3c0,0.1,0,0.1,0,0.2
				c-0.1-0.1-0.1-0.2-0.1-0.3C22.1,49.6,22.1,49.5,22.2,49.5C22.2,49.5,22.2,49.5,22.2,49.5z M40.3,49.7c0,0.1,0.1,0.1,0.1,0.2l0,0
				L40.3,50l-0.3,0l0,0c0,0,0-0.1,0-0.1c0-0.1,0.1-0.3,0.2-0.4C40.3,49.6,40.3,49.7,40.3,49.7z M53.5,53.1c-0.3,0.3-0.6,0.7-0.9,1
				l0,0.1l0.1,0c0.3-0.4,0.6-0.7,0.9-1.1c0.2-0.3,0.5-0.5,0.8-0.8c0.1-0.1,0.3-0.2,0.4-0.4c0.4-0.3,0.7-0.7,1.1-1
				c0.6-0.4,1.1-0.9,1.7-1.3l0-0.1l-0.1,0C56.1,50.7,54.7,51.8,53.5,53.1z M22.3,50.1L22.3,50.1L22.3,50.1l0.2,0.2
				C22.5,50.3,22.5,50.3,22.3,50.1z M25.8,50.5l-0.1-0.1l0.1-0.1C25.8,50.3,25.8,50.4,25.8,50.5z M57.5,50.6c-0.5,0.3-1,0.8-1.4,1.2
				c-0.8,0.7-1.4,1.6-2.2,2.4c-0.2,0.2-0.4,0.5-0.7,0.7c-0.2,0.2-0.4,0.4-0.6,0.6c-0.1,0.1-0.3,0.2-0.4,0.3c0,0,0,0.1,0,0.1
				s0.1,0,0.1,0c0.3-0.2,0.5-0.4,0.8-0.7c0.4-0.3,0.7-0.7,1.1-1.1c0.5-0.5,1-1.1,1.4-1.6c0.7-0.8,1.5-1.5,2.5-2c0.1,0,0.1-0.1,0-0.2
				s-0.1-0.1-0.2,0C57.8,50.4,57.7,50.5,57.5,50.6z M53.2,50.6L53.2,50.6l0.1,0.2l0,0C53.2,50.7,53.2,50.6,53.2,50.6
				C53.1,50.6,53.2,50.6,53.2,50.6z M51.3,53.4C51.3,53.4,51.3,53.3,51.3,53.4l0.2-0.2l0.1,0l-0.1,0C51.4,53.2,51.4,53.3,51.3,53.4z
				 M60.4,63.9c-0.2,0.2-0.3,0.3-0.4,0.5c0-0.1,0.1-0.3,0.1-0.4l0,0l0,0c0.1,0,0.1,0,0.2,0C60.4,63.9,60.4,63.9,60.4,63.9
				C60.4,63.9,60.4,63.9,60.4,63.9z M59.5,65.1C59.5,65.1,59.5,65.1,59.5,65.1C59.5,65.1,59.5,65.1,59.5,65.1
				c-0.1,0-0.1-0.2-0.1-0.3c0-0.1,0-0.2,0-0.3c0,0,0-0.1,0-0.1l0,0l0,0C59.5,64.6,59.5,64.8,59.5,65.1z M20.1,65.9L20.1,65.9
				C20,66,20,66,20,66l0,0c-0.1,0-0.2,0-0.3,0c-0.2,0.1-0.3,0.1-0.5,0.2l-0.2,0l-0.8,0c-0.3,0-0.5,0-0.8,0c-0.2,0-0.4,0-0.6,0
				c-0.1,0-0.2,0.2-0.3,0.3c0,0.1-0.2,0.3-0.2,0.4l-0.1,0.1l-0.1,0c-0.2,0-0.3,0.1-0.4,0.2c0,0.1-0.1,0.2-0.1,0.4l-0.1,0.3l0,0l0,0
				l0,0.1l-0.1,0.4c-0.1,0.2-0.1,0.3-0.1,0.5c-0.1,0.5-0.2,0.8,0,1.3c0.1,0.2,0.3,0.5,0.5,0.6c0.1,0.1,0.2,0.3,0.4,0.4
				c0.2,0.1,0.4,0.1,0.6,0.2l0.1,0.1c-0.1,0.1-0.3,0.2-0.4,0.3c-0.3,0.2-0.4,0.4-0.5,0.7c0,0.1,0,0.2,0,0.3c0,0.1,0,0.2,0.1,0.3
				c0.1,0.2,0.2,0.1,0.4,0.2c0.1,0,0.2,0.1,0.4,0.2c0.2,0.1,0.7,0.1,0.8-0.1c0.2-0.3,0.3-0.5,0.4-0.8c0.1-0.2,0.1-0.4,0.2-0.5
				c0-0.1,0.1-0.4,0.2-0.5l0.1,0l-0.1,0c0.1,0.1,0.2,0.1,0.4,0.1c0,0,0.1-0.1,0.2-0.1c0,0,0,0,0,0c0.6-0.1,1.2-0.3,1.8-0.6
				c1.1-0.5,2.1-1.4,2-2.8c0-0.1-0.1-0.4-0.1-0.5c0-0.1-0.1-0.1-0.1-0.1c0,0,0-0.1,0-0.1c0,0,0-0.1,0-0.1c-0.1-0.2-0.5-0.5-0.6-0.7
				c-0.2-0.2-0.4-0.4-0.7-0.6c-0.1-0.1-0.2-0.2-0.3-0.3c-0.1-0.1-0.4,0-0.5,0C20.2,65.6,20.2,65.7,20.1,65.9z M20.4,66.6L20.4,66.6
				c0.1,0.1,0.2,0.1,0.3,0.2c0.3,0.2,0.7,0.4,1.1,0.6c0,0,0.1,0,0.1,0.1c0,0,0,0,0,0.1c0,0.1-0.1,0.2-0.1,0.4l-0.1,0.2l-0.1,0.1
				c0,0-0.1,0.1-0.1,0.1c-0.2,0.3-0.4,0.6-0.5,0.9c0,0.1-0.1,0.1-0.1,0.1l-0.1,0.1l-0.2,0.2c-0.2,0.2-0.5,0.3-0.7,0.5
				c-0.1,0.1-0.3,0.2-0.4,0.3c-0.1,0.1-0.3,0.1-0.4,0.2c-0.2,0-0.4,0.1-0.6,0.1c-0.1,0-0.3,0-0.4,0c-0.2,0.1-0.3,0.5-0.4,0.7
				c-0.1,0.2-0.2,0.5-0.2,0.8c0,0.1-0.1,0.3-0.1,0.4l-0.1,0.2l-0.1,0c-0.1,0-0.2-0.1-0.2-0.1l-0.2-0.1l0,0c0,0,0-0.1,0-0.1
				c0,0,0.2-0.1,0.2-0.2c0.2-0.1,0.7-0.5,0.7-0.8c0-0.4-0.4-0.6-0.8-0.7c-0.1,0-0.2-0.1-0.3-0.1c0,0-0.1,0-0.1,0l0,0l-0.3-0.3
				c-0.1-0.1-0.2-0.2-0.3-0.3l-0.1-0.3l0,0c0,0,0-0.1,0-0.1l0,0c0,0,0.1,0,0.1-0.1l0-0.2l0,0c0,0,0,0,0,0c0.2,0.1,0.2,0.2,0.5,0.2
				c0,0,0.1,0,0.1-0.1s0-0.1-0.1-0.1c-0.1,0-0.2,0-0.3-0.1l-0.2-0.2l0,0c0.1-0.3,0.2-0.6,0.3-0.9c0-0.1,0.1-0.3,0.1-0.4
				c0.2-0.2,0.4-0.4,0.7-0.6c0.1-0.1,0.5-0.4,0.6-0.4c0.1,0,0.1,0,0.2,0c0,0,0.1,0,0.1,0c0.2,0.1,0.6,0.2,0.9,0.2c0.2,0,0.5,0,0.7,0
				c0.1,0,0.3-0.2,0.4-0.2C19.9,67,20.2,66.8,20.4,66.6L20.4,66.6z M17.5,66.9C17.5,66.9,17.5,66.9,17.5,66.9L17.5,66.9
				C17.5,66.9,17.5,66.9,17.5,66.9z M21.7,69.3c0-0.1,0.1-0.2,0.1-0.2c0-0.1,0.1-0.1,0.1-0.2C21.9,69,21.8,69.1,21.7,69.3z
				 M45.9,69.4L45.9,69.4C45.8,69.3,45.8,69.3,45.9,69.4l-0.1-0.1c0,0,0,0,0-0.1C45.8,69.2,45.8,69.3,45.9,69.4z M61.7,70.7
				c-0.1,0.1-0.3,0.1-0.5,0.2l-0.2,0L60.5,71c0.2-0.2,0.3-0.4,0.5-0.5l0.5-0.3l0.1,0c0.1,0,0.4,0,0.5,0c0.2,0,0.3,0,0.5,0
				C62.3,70.4,62,70.5,61.7,70.7z M48.4,70.2L48.4,70.2l0.2,0.2c0.1,0.2,0.1,0.3,0.1,0.5c0,0.1,0.1,0.4,0.2,0.5
				c0.2,0.2,0.5,0.3,0.7,0.4c0.5,0.2,1.1,0.4,1.6,0.5c0.2,0,0.3,0,0.5,0.1c0.2,0,0.3,0,0.5,0c0.4,0,0.8,0,1.2,0
				c0.8,0,1.6-0.1,2.3-0.1l0.1,0l0,0l-1.5,0.4c-0.5,0.1-1,0.1-1.5,0.1c-0.3,0-0.7-0.1-1-0.1c-0.3-0.1-0.7-0.2-1-0.3
				c-0.1,0-0.3-0.1-0.4-0.2c-0.3-0.1-0.6-0.2-0.9-0.3c-0.2-0.1-0.4-0.1-0.6-0.2l-0.5-0.3l0-0.5C48.4,70.6,48.4,70.4,48.4,70.2
				C48.3,70.2,48.3,70.2,48.4,70.2z M50.2,72.7L50.2,72.7C50.2,72.7,50.2,72.7,50.2,72.7C50.2,72.7,50.2,72.7,50.2,72.7z M50.2,72.7
				C50.2,72.7,50.2,72.7,50.2,72.7L50.2,72.7L50.2,72.7C50.2,72.7,50.2,72.7,50.2,72.7z"/>
		</g>
	</g>
</g>
</svg>
