<?xml version="1.0" encoding="UTF-8"?>
<svg width="14px" height="13px" viewBox="0 0 14 13" version="1.1" xmlns="http://www.w3.org/2000/svg" xmlns:xlink="http://www.w3.org/1999/xlink">
    <!-- Generator: Sketch 63.1 (92452) - https://sketch.com -->
    <title>Shape</title>
    <desc>Created with Sketch.</desc>
    <g id="Lehrer-Version" stroke="none" stroke-width="1" fill="none" fill-rule="evenodd">
        <g id="Desktop-Wahlapps-Übersicht-grey" transform="translate(-780.000000, -610.000000)" fill="#000000" fill-rule="nonzero">
            <g id="open_in_new-24px-copy" transform="translate(778.500000, 608.000000)">
                <path d="M13.4583333,13.4583333 L3.54166667,13.4583333 L3.54166667,3.54166667 L8.5,3.54166667 L8.5,2.125 L3.54166667,2.125 C2.75541667,2.125 2.125,2.7625 2.125,3.54166667 L2.125,13.4583333 C2.125,14.2375 2.75541667,14.875 3.54166667,14.875 L13.4583333,14.875 C14.2375,14.875 14.875,14.2375 14.875,13.4583333 L14.875,8.5 L13.4583333,8.5 L13.4583333,13.4583333 Z M9.91666667,2.125 L9.91666667,3.54166667 L12.4595833,3.54166667 L5.49666667,10.5045833 L6.49541667,11.5033333 L13.4583333,4.54041667 L13.4583333,7.08333333 L14.875,7.08333333 L14.875,2.125 L9.91666667,2.125 Z" id="Shape"></path>
            </g>
        </g>
    </g>
</svg>