<?xml version="1.0" encoding="utf-8"?>
<svg version="1.1" id="Ebene_1" xmlns="http://www.w3.org/2000/svg" xmlns:xlink="http://www.w3.org/1999/xlink" x="0px" y="0px"
	 viewBox="0 0 72 97.7" style="enable-background:new 0 0 72 97.7;" xml:space="preserve">
<path style="fill:#601D51" d="M59.2,10.7L59.2,10.7l0.2,0.2l2.6-0.5c0.3-0.1,0.7,0.1,0.9,0.3l2.6,2.8c0.1,0.1,0.2,0.3,0.2,0.4l2.4,9.3
	c0.1,0.3,0,0.6-0.1,0.8l-2.5,3.7l3.8,3.7c0.3,0.3,0.4,0.9,0.1,1.3l-1.1,1.7l1.7,2.7c0.1,0.2,0.2,0.5,0.1,0.8l-1,3.8l2.6,4.1
	c0.1,0.2,0.2,0.4,0.2,0.7l-0.7,6.4c0,0.4-0.3,0.7-0.6,0.8L69,54.4c-0.5,0.2-1.1,0-1.3-0.6l-0.8-2.1h-0.3v1c0,0.4-0.2,0.7-0.6,0.9
	l-12,5.9c-0.1,0.1-0.3,0.1-0.4,0.1h-1.3l-0.8,1.5c-0.2,0.4-0.6,0.6-1,0.5l2,1.9c0.2,0.2,0.3,0.4,0.3,0.7v1.8l1.6,3.9l1.9,0.8
	c0.2,0.1,0.3,0.2,0.4,0.3l3.2,4l3,2.5c0.3,0.3,0.4,0.7,0.3,1l-0.7,2.4c-0.2,0.6-0.8,0.9-1.3,0.7l-0.6-0.2L60,82.9
	c-0.1,0.2-0.2,0.4-0.4,0.5l-4,2.2l1.2,5c0,0.1,0,0.8,0,2.2c0,0.7-0.8,1.2-1.4,0.9L54,93c-0.2-0.1-0.3-0.2-0.4-0.4l-0.6-0.9l-3-0.4
	c0,0.6-0.4,1-0.8,1.1L45.3,93l-2.4,1.4c-0.2,0.1-0.3,0.1-0.5,0.1h-1.8c-0.2,0-0.4-0.1-0.5-0.1L39,93.7l-1.8-0.4c0,0.5-0.1,0.8-0.4,1
	l-1.5,1.2c-0.3,0.3-0.8,0.3-1.2,0.1l-4-2.6l-6.5-1.2c-0.2,0-0.3-0.1-0.5-0.2l-1.1-1l-0.5,0.2l0.2,0.6c0.3,0.7-0.2,1.4-0.9,1.4
	l-2.3,0l-4.2,0.3c-0.4,0-0.8-0.2-0.9-0.5l-1-1.8c-0.1-0.2-0.2-0.5-0.1-0.7l2.4-10c0-0.1,0.1-0.3,0.2-0.4l2.5-3.2l-3.3-0.9
	c-0.2-0.1-0.4-0.2-0.5-0.3l-0.4-0.5l-0.8,0.6c-0.3,0.2-0.6,0.3-0.9,0.1l-3.3-1.2c-0.1-0.1-0.3-0.1-0.4-0.3l-2.4-2.5l-1.3-1
	c-0.4-0.3-0.5-0.8-0.3-1.2l1.1-2.7l-2.2-1.6c-0.3-0.2-0.4-0.5-0.4-0.8v-3.6c0-0.4,0.2-0.7,0.5-0.9L4.1,59v-1l-2.8-2.8
	C1.1,54.9,1,54.6,1,54.2l0.4-1.8l-1-0.9c-0.4-0.4-0.4-1-0.1-1.4l2.3-2.5l-0.5-3.8l-1.8-2c-0.5-0.6-0.2-1.5,0.5-1.6l4.6-1.1l3.2-3.5
	v-1.5l-1.4-0.5c-0.4-0.1-0.7-0.5-0.7-0.9v-1.7c0-0.6,0.4-1,1-1h1.2l1.3-6.6L9,22.5c-0.3-0.2-0.4-0.6-0.3-1l1-4
	c0.1-0.4,0.4-0.7,0.8-0.7l6.8-0.9c0.4,0,0.7,0.1,0.9,0.4l1.3,1.7h0.4c0-0.2,0-0.4,0.1-0.6l1.4-3c0.2-0.5,0.7-0.7,1.2-0.5l0.7,0.2
	v-2.2l-1.8-2c-0.2-0.3-0.3-0.6-0.2-1l0.5-1.5c0.1-0.4,0.5-0.7,0.9-0.7l-1.5-5.3c-0.2-0.8,0.5-1.5,1.2-1.3l5,1.4h4.1
	c0.4,0,0.8,0.3,0.9,0.6l1.3,3.4C34,5.6,34,5.7,34,5.8v0.8h1.5c0.2,0,0.3,0,0.5,0.1l2,1.1l1.9-2.6c0.3-0.4,0.9-0.5,1.3-0.2L43,6.1
	c0.4,0.3,0.6,0.8,0.4,1.3L41.6,11c0,0.1-0.1,0.2-0.2,0.3l-1.3,1.3h2l2.8-1.9c0.1-0.1,0.2-0.1,0.3-0.2l3.2-0.8L51,6.3
	c0.2-0.3,0.6-0.4,1-0.4l3.7,0.6c0,0,0,0,0,0l0.7-1.3V4.4c0-0.4,0.2-0.7,0.5-0.9l1.2-0.6c0.7-0.3,1.5,0.1,1.5,0.9v0.4l1.2,0.3
	c0.5,0.1,0.8,0.5,0.8,1v1.2l0.7,1.1C62.6,8.3,62.5,9,62,9.3L59.2,10.7z M58.3,6l-0.6,1.1l0.6,1.4l0.5,0.3L60.1,8l-0.3-0.5
	c-0.1-0.2-0.2-0.3-0.2-0.5V6.3L58.4,6C58.4,6,58.4,6,58.3,6C58.3,5.9,58.3,6,58.3,6z M70,46.6l-2.7-4.2c-0.2-0.2-0.2-0.5-0.1-0.8
	l1-3.8l-1.8-2.9c-0.2-0.3-0.2-0.7,0-1.1l1-1.5l-3.8-3.7c-0.3-0.3-0.4-0.9-0.1-1.3l2.7-4l-2.2-8.6l-2.1-2.2l-2.5,0.5
	c-0.3,0.1-0.6,0-0.8-0.2l-2.5-2c-0.2-0.1-0.3-0.3-0.3-0.5l-0.5-1.7L52.2,8l-2.4,3.1c-0.1,0.2-0.3,0.3-0.6,0.4l-3.4,0.8l-2.9,2
	c-0.2,0.1-0.4,0.2-0.6,0.2h-3.1c-0.1,0-0.3,0-0.4-0.1l-1.1-0.5c-0.6-0.3-0.8-1.1-0.3-1.6l2.3-2.4l1.3-2.6l-0.2-0.1L39,9.7
	c-0.3,0.4-0.8,0.5-1.3,0.3l-2.5-1.4H33c-0.6,0-1-0.4-1-1V6l-1-2.6h-3.6c-0.1,0-0.2,0-0.3,0l-3.4-0.9l1.5,4.8c0.2,0.6-0.3,1.3-1,1.3
	l-0.8,0l-0.1,0.3l1.7,1.9c0.2,0.2,0.2,0.4,0.2,0.7v3.9c0,0.7-0.7,1.2-1.3,0.9l-1.2-0.4l-0.8,1.7l0.4,0.7c0.4,0.7-0.1,1.5-0.8,1.5
	h-2.6c-0.3,0-0.6-0.1-0.8-0.4l-1.2-1.6l-5.5,0.8l-0.7,2.8l1,0.8c0.3,0.2,0.4,0.6,0.3,1l-1.5,8c-0.1,0.5-0.5,0.8-1,0.8h-1l1.4,0.5
	c0.4,0.1,0.7,0.5,0.7,0.9v2.6c0,0.3-0.1,0.5-0.3,0.7l-3.7,4C6.6,40.8,6.4,41,6.2,41L3,41.7l0.9,1c0.1,0.1,0.2,0.3,0.2,0.5l0.6,4.6
	c0,0.3-0.1,0.6-0.3,0.8l-1.9,2.1l0.7,0.6c0.3,0.2,0.4,0.6,0.3,1l-0.5,1.8l2.7,2.7c0.2,0.2,0.3,0.4,0.3,0.7v2c0,0.4-0.2,0.7-0.5,0.9
	l-1.4,0.8v2.5l2.4,1.7c0.4,0.3,0.5,0.8,0.3,1.2l-1.1,2.7L6.6,70L9,72.5l2.5,0.9l1.2-0.9c0.4-0.3,1-0.2,1.3,0.1l0.8,0.9l4.5,1.2
	c0.7,0.2,1,1,0.5,1.6l-3.3,4.3l-2.2,9.4l0.5,0.9l3.6-0.2h1c-0.3-0.7,0-1.3,0.5-1.5l1.9-0.8c0.3-0.1,0.7-0.1,1,0.2l1.4,1.2l6.4,1.2
	c0.1,0,0.3,0.1,0.4,0.1l3.5,2.3l0.5-0.5v-1c0-0.6,0.6-1.1,1.2-1l3.2,0.7c0.1,0,0.2,0.1,0.3,0.1l1.1,0.7h1.2l2.3-1.3
	c0.1-0.1,0.2-0.1,0.4-0.1l3.2-0.5v-0.3c0-0.6,0.5-1.1,1.1-1l4.6,0.6c0.3,0,0.6,0.2,0.7,0.4l0.4,0.6l-1.4-5.5
	c-0.1-0.4,0.1-0.9,0.5-1.1l4.3-2.4l0.8-2c0.2-0.5,0.8-0.8,1.3-0.6l0.5,0.2l0.2-0.7l-2.6-2.2l-3.2-4l-2-0.8c-0.2-0.1-0.4-0.3-0.5-0.5
	l-1.8-4.5c-0.1-0.1-0.1-0.3-0.1-0.4v-1.6l-2.4-2.4c-0.2-0.2-0.3-0.4-0.3-0.7v-2c0-0.8,0.9-1.3,1.5-0.8l0.7,0.5l0.6-1.1
	c0.2-0.3,0.5-0.5,0.9-0.5h1.6l11.2-5.5v-1.4c0-0.6,0.4-1,1-1h2c0.4,0,0.8,0.3,0.9,0.7l0.6,1.8L70,46.6z"/>
</svg>
