<svg xmlns="http://www.w3.org/2000/svg" width="31" height="34" viewBox="0 0 31 34">
    <path fill="#FFF" fill-rule="evenodd" d="M26.052 24.193c-1.089 0-2.077.392-2.968.98L10.126 17.82c0-.196.098-.391.098-.49 0-.098 0-.392-.098-.491l12.958-7.35c.792.588 1.879.98 2.968.98 2.769 0 4.946-2.156 4.946-4.902 0-2.744-2.175-4.901-4.946-4.901-2.77 0-4.947 2.155-4.947 4.901 0 .197 0 .294.099.491L8.247 13.412a4.89 4.89 0 0 0-2.967-.98c-2.77 0-4.947 2.156-4.947 4.902 0 2.744 2.176 4.902 4.947 4.902 1.088 0 2.077-.392 2.967-.98l12.959 7.352c0 .196-.099.294-.099.49 0 2.744 2.176 4.902 4.947 4.902C28.823 34 31 31.844 31 29.098c-.002-2.747-2.18-4.905-4.948-4.905z"/>
</svg>
