<?xml version="1.0" encoding="utf-8"?>
<!-- Generator: Adobe Illustrator 22.0.1, SVG Export Plug-In . SVG Version: 6.00 Build 0)  -->
<svg version="1.1" id="Ebene_1" xmlns="http://www.w3.org/2000/svg" xmlns:xlink="http://www.w3.org/1999/xlink" x="0px" y="0px"
	 viewBox="0 0 73.4 74.1" style="enable-background:new 0 0 73.4 74.1;" xml:space="preserve">
<style type="text/css">
	.st0{fill:#FFFFFF;}
</style>
<g>
	<ellipse transform="matrix(0.5 -0.866 0.866 0.5 -31.7451 58.6715)" class="st0" cx="34.9" cy="56.8" rx="2.7" ry="2.4"/>
	<g>
		<path class="st0" d="M33.4,24.9c-1-0.8-3-0.4-2.9,1.3l0,0c0,0.3,0,0.6,0,0.8c0,1.2,1.1,1.9,2.2,1.7c1.2-0.2,2.2-0.9,3.4-1.1
			c1.1-0.3,2.2-0.3,3.3,0c2,0.5,3.6,2.1,3.9,4.2c0.3,2.3-1.1,3.8-3,4.8c-2.2,1.2-5,2.4-7.5,2.1c-1.1-0.1-2.1,1.2-1.7,2.2
			c0.8,2.4,1.3,4.8,1.5,7.3c0.1,2.3,3.7,2.3,3.5,0c-0.1-2.1-0.4-4.1-0.9-6c-0.2-0.7-0.4-1.5-0.7-2.2c-0.6,0.7-1.1,1.5-1.7,2.2
			c0.7,0.1,1.5,0.1,2.3,0c2.7-0.3,5.6-1.6,7.8-3c2.8-1.7,4.4-4.6,3.9-7.9c-0.5-3.2-2.6-5.7-5.7-6.8c-1.4-0.5-3-0.7-4.5-0.5
			C35.4,24.1,34.4,24.5,33.4,24.9"/>
	</g>
	<g>
		<path class="st0" d="M36.4,71.8C17.8,71.8,2.6,56.7,2.6,38S17.8,4.1,36.4,4.1S70.3,19.3,70.3,38S55.1,71.8,36.4,71.8z M36.4,7.7
			C19.7,7.7,6.1,21.3,6.1,38c0,16.7,13.6,30.3,30.3,30.3c16.7,0,30.3-13.6,30.3-30.3C66.7,21.3,53.1,7.7,36.4,7.7z"/>
	</g>
</g>
</svg>
