<?xml version="1.0" encoding="utf-8"?>
<svg version="1.1" id="Ebene_1" xmlns="http://www.w3.org/2000/svg" xmlns:xlink="http://www.w3.org/1999/xlink" x="0px" y="0px"
	 viewBox="0 0 100 84.1" style="enable-background:new 0 0 100 84.1;" xml:space="preserve">
<style type="text/css">
	.st0{fill:#FFFFFF;}
</style>
<path class="st0" d="M87.7,37.2h-9.6V24.7c0-4.8-3.9-8.7-8.7-8.7H13.3C8.7,16,5,19.7,5,24.3v30.9c0,4.6,3.8,8.4,8.4,8.4h8.5V71
	c0,0.6,0.4,1.2,0.9,1.4c0.2,0.1,0.5,0.1,0.7,0.1c0.4,0,0.7-0.1,1-0.4L35,63.7h7.1v2.6c0,5,4.1,9.1,9.1,9.1h21.6l9.1,8.2
	c0.3,0.3,0.7,0.4,1.1,0.4c0.2,0,0.4,0,0.6-0.1c0.6-0.3,0.9-0.8,0.9-1.5v-7.1h2c4.7,0,8.6-3.9,8.6-8.6V44.5
	C95,40.5,91.7,37.2,87.7,37.2z M34.4,60.5c-0.4,0-0.7,0.1-1,0.4l-8.3,6.8v-5.6c0-0.9-0.7-1.6-1.6-1.6H13.4c-2.9,0-5.3-2.4-5.3-5.3
	V24.3c0-2.8,2.3-5.1,5.1-5.1h56.1c3.1,0,5.5,2.5,5.5,5.5v30.2c0,3.1-2.5,5.6-5.6,5.6H34.4z M91.8,66.7c0,3-2.4,5.4-5.4,5.4h-3.6
	c-0.9,0-1.6,0.7-1.6,1.6v5.1l-6.9-6.2c-0.3-0.3-0.7-0.4-1.1-0.4H51.1c-3.2,0-5.9-2.6-5.9-5.9v-2.6h24.1c4.8,0,8.7-3.9,8.7-8.7V40.4
	h9.6c2.3,0,4.1,1.9,4.1,4.1v22.2H91.8z M44.2,48.6v1.2c0,0.9-0.5,1.4-1.4,1.4h-1.3c-0.9,0-1.4-0.5-1.4-1.4v-1.2
	c0-0.9,0.5-1.4,1.4-1.4h1.3C43.8,47.2,44.2,47.7,44.2,48.6z M50.1,33.2c0,5.2-5.4,6.1-5.8,9.5l-0.1,0.6c-0.2,0.7-0.5,1-1.3,1h-1.3
	c-0.9,0-1.4-0.5-1.4-1.4v-0.5c0-4.2,5.5-5.4,5.5-8.8c0-1.6-1.4-2.8-3.2-2.8c-1,0-1.9,0.4-2.5,0.7c-0.8,0.4-1.5,0.4-2-0.3l-0.6-0.8
	c-0.5-0.7-0.5-1.4,0.2-1.9c1-0.7,2.8-1.5,5.2-1.5C46.5,27,50.1,29.3,50.1,33.2z"/>
</svg>
