<?xml version="1.0" encoding="utf-8"?>
<svg version="1.1" id="Ebene_1" xmlns="http://www.w3.org/2000/svg" xmlns:xlink="http://www.w3.org/1999/xlink" x="0px" y="0px"
	 viewBox="0 0 100 96.3" style="enable-background:new 0 0 100 96.3;" xml:space="preserve">
<style type="text/css">
	.st0{fill:#FFFFFF;}
</style>
<g>
	<path class="st0" d="M84.8,64.6L74.4,54.3c-0.3-0.3-0.7-0.4-1.1-0.4H58.9v-6.5h18.5c0.8,0,1.5-0.7,1.5-1.5V25.4
		c0-0.8-0.7-1.5-1.5-1.5H58.9v-8.3c0-0.8-0.7-1.5-1.5-1.5H42.6c-0.8,0-1.5,0.7-1.5,1.5v8.3H26.7c-0.4,0-0.8,0.2-1.1,0.4L15.2,34.6
		c-0.3,0.3-0.4,0.7-0.4,1.1s0.2,0.8,0.4,1.1l10.4,10.2c0.3,0.3,0.7,0.4,1.1,0.4h14.5v6.5H22.7c-0.8,0-1.5,0.7-1.5,1.5v20.5
		c0,0.8,0.7,1.5,1.5,1.5h18.5v10.3c0,0.8,0.7,1.5,1.5,1.5s1.5-0.7,1.5-1.5V77.4h11.8v10.3c0,0.8,0.7,1.5,1.5,1.5s1.5-0.7,1.5-1.5
		V77.4h14.5c0.4,0,0.8-0.2,1.1-0.4l10.4-10.2c0.3-0.3,0.4-0.7,0.4-1.1S85.1,64.8,84.8,64.6z M44.1,17.1h11.8v6.8H44.1V17.1z
		 M27.3,44.4l-8.9-8.7l8.9-8.7h13.8h3h11.8h3h17v17.5h-17h-3H44.1h-3H27.3z M55.9,47.4v6.5H44.1v-6.5H55.9z M72.7,74.4H58.9h-3H44.1
		h-3h-17V56.9h17h3h11.8h3h13.8l8.9,8.7L72.7,74.4z"/>
</g>
</svg>
