<?xml version="1.0" encoding="utf-8"?>
<!-- Generator: Adobe Illustrator 22.0.1, SVG Export Plug-In . SVG Version: 6.00 Build 0)  -->
<svg version="1.1" xmlns="http://www.w3.org/2000/svg" xmlns:xlink="http://www.w3.org/1999/xlink" x="0px" y="0px"
	 viewBox="0 0 73.4 74.1" style="enable-background:new 0 0 73.4 74.1;" xml:space="preserve">
<style type="text/css">
	path,circle{fill:#FFF;}
</style>
<g id="Ebene_1">
	<g>
		<path d="M37.1,6.5c16.6,0,30,13.4,30,30s-13.4,30-30,30s-30-13.4-30-30S20.5,6.5,37.1,6.5 M37.1,1.5c-19.3,0-35,15.7-35,35
			s15.7,35,35,35s35-15.7,35-35S56.4,1.5,37.1,1.5L37.1,1.5z"/>
		<circle cx="49.1" cy="30.5" r="5"/>
		<circle cx="25.1" cy="30.5" r="5"/>
		<path d="M37.1,58.4c-9.2,0-17.7-4.9-22.4-12.9c-0.7-1.2-0.3-2.7,0.9-3.4c1.2-0.7,2.7-0.3,3.4,0.9c3.7,6.4,10.6,10.4,18,10.4
			s14.3-4,18-10.4c0.7-1.2,2.2-1.6,3.4-0.9c1.2,0.7,1.6,2.2,0.9,3.4C54.8,53.4,46.2,58.4,37.1,58.4z"/>
	</g>
</g>
</svg>
