<?xml version="1.0" encoding="utf-8"?>
<!-- Generator: Adobe Illustrator 22.0.1, SVG Export Plug-In . SVG Version: 6.00 Build 0)  -->
<svg version="1.1" xmlns="http://www.w3.org/2000/svg" xmlns:xlink="http://www.w3.org/1999/xlink" x="0px" y="0px"
	 viewBox="0 0 73.4 74.1" style="enable-background:new 0 0 73.4 74.1;" xml:space="preserve">
<style type="text/css">
	path,circle{fill:#FFF;}
</style>
<g id="Ebene_2">
	<g>
		<path d="M37.1,6.5c16.6,0,30,13.4,30,30s-13.4,30-30,30s-30-13.4-30-30S20.5,6.5,37.1,6.5 M37.1,1.5c-19.3,0-35,15.7-35,35
			s15.7,35,35,35s35-15.7,35-35S56.4,1.5,37.1,1.5L37.1,1.5z"/>
		<circle cx="49.1" cy="30.5" r="5"/>
		<circle cx="25.1" cy="30.5" r="5"/>
		<path d="M52.5,53.4c-0.6,0-1.2-0.2-1.7-0.6c-3.8-3.4-8.7-5.2-13.8-5.2s-10,1.8-13.8,5.2c-1,0.9-2.6,0.8-3.5-0.2
			c-0.9-1-0.8-2.6,0.2-3.5c4.7-4.2,10.8-6.5,17.1-6.5s12.4,2.3,17.1,6.5c1,0.9,1.1,2.5,0.2,3.5C53.9,53.1,53.2,53.4,52.5,53.4z"/>
	</g>
</g>
</svg>
