<?xml version="1.0" encoding="utf-8"?>
<svg version="1.1" id="Ebene_1" xmlns="http://www.w3.org/2000/svg" xmlns:xlink="http://www.w3.org/1999/xlink" x="0px" y="0px"
	 viewBox="0 0 100 97.9" style="enable-background:new 0 0 100 97.9;" xml:space="preserve">
<style type="text/css">
	.st0{fill:#FFFFFF;}
</style>
<g>
	<path class="st0" d="M66.2,43.5H53.3l0.4-6.7l12.5-5.1c0.7-0.3,1.1-1,0.9-1.7l-2.6-11.3c-0.1-0.4-0.3-0.7-0.7-0.9s-0.7-0.3-1.1-0.2
		l-16.3,3.7c-0.3,0.1-0.5,0.2-0.7,0.4L37.2,30l-3.1-0.2c-0.8,0-1.5,0.6-1.6,1.4l-0.7,12.3H20c-1.9,0-3.5,1.6-3.5,3.5v40
		c0,1.9,1.6,3.5,3.5,3.5h46.2c1.9,0,3.5-1.6,3.5-3.5V47C69.7,45.1,68.1,43.5,66.2,43.5z M47.5,24.1l14.4-3.3l2,8.6l-13.1,5.4
		l1.7-3.2c0.4-0.7,0.1-1.6-0.6-2c-0.7-0.4-1.6-0.1-2,0.6l-0.3,0.5l-8.3-0.5L47.5,24.1z M48,33.6L46.1,37c-0.3,0.6-0.2,1.2,0.2,1.7
		c0.3,0.3,0.7,0.5,1.1,0.5c0.2,0,0.4,0,0.6-0.1l2.6-1.1l-0.8,14.4H34.3l1.1-19.6L48,33.6z M20,46.5h11.6l-0.3,6h-4
		c-0.8,0-1.5,0.7-1.5,1.5s0.7,1.5,1.5,1.5h32c0.8,0,1.5-0.7,1.5-1.5s-0.7-1.5-1.5-1.5h-6.5l0.3-6h13c0.3,0,0.5,0.2,0.5,0.5v13.6
		H19.5V47C19.5,46.7,19.8,46.5,20,46.5z M66.2,87.5H20c-0.3,0-0.5-0.2-0.5-0.5V63.6h47.2V87C66.7,87.3,66.5,87.5,66.2,87.5z"/>
	<path class="st0" d="M87.5,27c-0.1-0.8-0.8-1.4-1.7-1.3L71,27.3l-1.9-8.4l14.3-5.4c0.8-0.3,1.2-1.2,0.9-1.9
		c-0.3-0.8-1.2-1.2-1.9-0.9l-15.5,5.8c-0.7,0.3-1.1,1-0.9,1.7l2.5,11c0.2,0.7,0.8,1.2,1.5,1.2c0.1,0,0.1,0,0.2,0l16.1-1.8
		C87,28.5,87.6,27.8,87.5,27z"/>
</g>
</svg>
