<?xml version="1.0" encoding="utf-8"?>
<!-- Generator: Adobe Illustrator 22.0.1, SVG Export Plug-In . SVG Version: 6.00 Build 0)  -->
<svg version="1.1" id="Ebene_1" xmlns="http://www.w3.org/2000/svg" xmlns:xlink="http://www.w3.org/1999/xlink" x="0px" y="0px"
	 viewBox="0 0 284 355" style="enable-background:new 0 0 284 355;" xml:space="preserve">
<style type="text/css">
	.st0{fill:#FFFFFF;}
</style>
<path class="st0" d="M261.7,206.8c-16.2,9.7-30.7,21-42,35.6l-19.4,24.3c-1.6,3.2-3.2,6.5-3.2,9.7v14.6c0,17.8-14.6,32.3-32.3,32.3
	l0,0c-35.6,0-64.7-29.1-64.7-64.7c0-3.2,0-6.5,1.6-16.2H79c-30.7,0-58.2-21-66.3-50.1c-1.6-3.2-1.6-8.1-1.6-12.9c0-3.2,0-4.9,0-8.1
	c-4.9-9.7-8.1-21-8.1-32.3c0-16.2,6.5-30.7,16.2-42c0-21,11.3-38.8,27.5-50.1C54.7,20.9,79,3.1,108.1,3.1h1.6
	c37.2,1.6,126.1,27.5,143.9,34l24.3,4.9v155.2C277.9,197.1,261.7,206.8,261.7,206.8z M245.6,66.2c0,0-103.5-32.3-137.4-32.3l0,0
	c-17.8,0-32.3,14.6-32.3,32.3v1.6C61.2,71,51.5,84,51.5,98.5c0,3.2,1.6,8.1,1.6,11.3c-9.7,4.9-17.8,16.2-17.8,29.1
	c0,9.7,4.9,19.4,12.9,24.3c-3.2,4.9-4.9,11.3-4.9,16.2c0,3.2,0,6.5,1.6,8.1c4.9,14.6,17.8,24.3,34,24.3h64.7
	c-4.9,14.6-11.3,37.2-11.3,48.5c0,22.6,16.2,32.3,32.3,32.3v-25.9c0-3.2,1.6-6.5,3.2-9.7l25.9-34c14.6-17.8,30.7-32.3,50.1-43.7
	V66.2L245.6,66.2z"/>
</svg>
