<svg xmlns="http://www.w3.org/2000/svg" xmlns:xlink="http://www.w3.org/1999/xlink" version="1.1" id="Capa_1" x="0px" y="0px" width="512px" height="512px" viewBox="0 0 612 612" style="enable-background:new 0 0 612 612;" xml:space="preserve">
<path d="M306,370.409c-7.725,0-13.985-6.26-13.985-13.985v-59.195c0-7.725,6.26-13.985,13.985-13.985      c30.951,0,56.13-25.178,56.13-56.129c0-30.957-25.179-56.146-56.13-56.146s-56.135,25.189-56.135,56.146      c0,7.725-6.26,13.985-13.985,13.985s-13.985-6.26-13.985-13.985c0-46.379,37.731-84.116,84.105-84.116s84.1,37.737,84.1,84.116      c0,41.608-30.375,76.257-70.114,82.936v46.374C319.984,364.149,313.726,370.409,306,370.409z" fill="#FFFFFF"/>
<circle cx="305.995" cy="433.743" r="23.03" fill="#FFFFFF"/>
</svg>
