<?xml version="1.0" encoding="utf-8"?>
<!-- Generator: Adobe Illustrator 22.0.1, SVG Export Plug-In . SVG Version: 6.00 Build 0)  -->
<svg version="1.1" id="Ebene_1" xmlns="http://www.w3.org/2000/svg" xmlns:xlink="http://www.w3.org/1999/xlink" x="0px" y="0px"
	 viewBox="0 0 284 355" style="enable-background:new 0 0 284 355;" xml:space="preserve">
<style type="text/css">
	.st0{fill:#FFFFFF;}
</style>
<path class="st0" d="M277,185.5c0,0.1,0,0.2,0,0.3c0,16.2-6.1,31.1-16.1,42.3c-0.7,20.7-11.3,38.7-27,49.9
	c-8.9,26-33,44.2-61.2,44.2h-2.9c-36.8-1.3-125.4-28-143.1-33.5L4,281.7V126.9l16.2-9.2c16.1-9.3,29.8-21.1,40.9-34.9l19.6-24.5
	c2.2-2.7,3.5-6.2,3.5-10V33.1C84.2,15.4,98.5,1,116.3,1h0.1c35.5,0,64.2,28.8,64.2,64.3c0,0.1,0,0.2,0,0.3c0,5.5-0.6,10.9-1.7,16.1
	l23.3-0.5c0.2,0,0.4,0,0.7,0c30.9,0,56.9,21.1,64.3,49.7c1.1,4.7,1.7,9.5,1.7,14.5c0,2.9-0.2,5.8-0.6,8.6
	C273.8,162.7,277,173.7,277,185.5C277,185.5,277,185.5,277,185.5L277,185.5z M232.8,160.6c2.5-4.4,4-9.7,4-15.3c0-3.1-0.5-6.2-1.3-9
	c-4.6-13.5-17.3-23.1-32.3-23.1c-0.3,0-0.6,0-1,0h-64.8c5-13.9,8.9-30.1,11-46.9c0.1-1.6,0.2-2.3,0.2-3c0-16.7-13.6-30.3-30.3-30.3
	c-0.7,0-1.4,0-2.1,0.1l0.1,26.5l0,0c0,3.8-1.3,7.3-3.5,10.1l-26.4,33c-13.9,17.2-30.5,31.6-49.4,42.5L36.1,258
	c0,0,103.4,31.8,136,32.1c0.2,0,0.3,0,0.5,0c17.7,0,32.1-14.4,32.1-32.1c0-0.5-0.1-0.9-0.1-1.3c14-3.5,24.2-16,24.2-30.8
	c0-4.1-0.8-8.1-2.2-11.7c10.9-5,18.3-15.9,18.3-28.5C244.8,175.5,240.1,166.5,232.8,160.6L232.8,160.6z"/>
</svg>
