<?xml version="1.0" encoding="utf-8"?>
<!-- Generator: Adobe Illustrator 22.0.1, SVG Export Plug-In . SVG Version: 6.00 Build 0)  -->
<svg version="1.1" id="Ebene_1" xmlns="http://www.w3.org/2000/svg" xmlns:xlink="http://www.w3.org/1999/xlink" x="0px" y="0px"
	 viewBox="0 0 73.4 74.1" style="enable-background:new 0 0 73.4 74.1;" xml:space="preserve">
<style type="text/css">
	.st0{fill:#FFFFFF;}
</style>
<g>
	<path class="st0" d="M36.7,6.9c16.8,0,30.4,13.6,30.4,30.4S53.5,67.7,36.7,67.7S6.3,54.1,6.3,37.3S19.9,6.9,36.7,6.9 M36.7,1.9
		C17.1,1.9,1.3,17.7,1.3,37.3s15.8,35.4,35.4,35.4s35.4-15.8,35.4-35.4S56.3,1.9,36.7,1.9L36.7,1.9z"/>
</g>
<circle class="st0" cx="36.7" cy="26.3" r="3.4"/>
<path class="st0" d="M38.9,31.8c1.5,0,1.1,2.6,1.1,3.6c0,2.1,0,4.2,0,6.3c0,1.3-0.3,3,0.1,4.2c0.3,1.1,1.4,0.3,2.4,0.6
	c1.3,0.5,1.3,2.5,0.7,3.5c-0.5,1-1.5,1-2.5,1c-1.8-0.1-8.6,0.4-9.6-0.7c-0.8-0.9-1-2.9,0.1-3.7c0.9-0.6,1.9,0.2,2.5-0.1
	c0.7-0.3,0.5-1.8,0.5-2.5c0-1.8,0-3.7,0-5.5c0-0.6,0.2-2.4-0.6-2.4c-0.7,0.1-1.2,0.4-1.9,0.2c-0.8-0.3-1.1-0.9-1.1-1.6
	c-0.2-2,1.2-3.1,3.1-2.9c1,0.1,2,0.3,3,0.2C37.3,32.1,38.1,31.8,38.9,31.8z"/>
</svg>
