<svg xmlns="http://www.w3.org/2000/svg" xmlns:xlink="http://www.w3.org/1999/xlink" width="23" height="28" viewBox="0 0 23 28">
    <defs>
        <path id="a" d="M0 .572h22.922V28H0z"/>
    </defs>
    <g fill="none" fill-rule="evenodd">
        <path fill="#FFF" d="M4.204 26.978c4.722-7.716 12.095-14.344 18.204-21.105C24.306 3.772 21.2.577 19.284 2.698 12.934 9.727 5.248 16.621.33 24.658c-1.477 2.413 2.394 4.74 3.874 2.32"/>
        <g>
            <mask id="b" fill="#fff">
                <use xlink:href="#a"/>
            </mask>
            <path fill="#FFF" d="M.601 4.247a169.852 169.852 0 0 1 18.061 22.724c1.551 2.334 5.465.288 3.896-2.071-5.574-8.391-11.785-16.297-18.72-23.634-1.945-2.06-5.184.922-3.237 2.981" mask="url(#b)"/>
        </g>
    </g>
</svg>
