<?xml version="1.0" encoding="UTF-8"?>
<svg width="18px" height="18px" viewBox="0 0 18 18" version="1.1" xmlns="http://www.w3.org/2000/svg" xmlns:xlink="http://www.w3.org/1999/xlink">
    <!-- Generator: Sketch 63.1 (92452) - https://sketch.com -->
    <title>Shape</title>
    <desc>Created with Sketch.</desc>
    <g id="Lehrer-Version" stroke="none" stroke-width="1" fill="none" fill-rule="evenodd">
        <g id="Desktop-Wahlapps-Übersicht-grey" transform="translate(-1114.000000, -163.000000)" fill="#9B9B9B" fill-rule="nonzero">
            <g id="search-24px-copy" transform="translate(1111.000000, 156.000000)">
                <path d="M15.5,18 L14.71,18 L14.43,17.73 C15.41,16.59 16,15.11 16,13.5 C16,9.91 13.09,7 9.5,7 C5.91,7 3,9.91 3,13.5 C3,17.09 5.91,20 9.5,20 C11.11,20 12.59,19.41 13.73,18.43 L14,18.71 L14,19.5 L19,24.49 L20.49,23 L15.5,18 Z M9.5,18 C7.01,18 5,15.99 5,13.5 C5,11.01 7.01,9 9.5,9 C11.99,9 14,11.01 14,13.5 C14,15.99 11.99,18 9.5,18 Z" id="Shape"></path>
            </g>
        </g>
    </g>
</svg>