<?xml version="1.0" encoding="utf-8"?>
<!-- Generator: Adobe Illustrator 22.0.1, SVG Export Plug-In . SVG Version: 6.00 Build 0)  -->
<svg version="1.1" xmlns="http://www.w3.org/2000/svg" xmlns:xlink="http://www.w3.org/1999/xlink" x="0px" y="0px"
	 viewBox="0 0 368.3 173.1" style="enable-background:new 0 0 368.3 173.1;" xml:space="preserve">
<style type="text/css">
	.st0{display:none;}
	.st1{display:inline;fill:url(#SVGID_1_);}
	.st2{fill:#FFFFFF;stroke:#FFFFFF;stroke-width:0.5;stroke-miterlimit:10;}
	.st3{fill:#E72677;}
	.st4{fill:#FFFFFF;}
</style>
<g id="Ebene_2" class="st0">
	<linearGradient id="SVGID_1_" gradientUnits="userSpaceOnUse" x1="-7.3362" y1="86.0258" x2="373.5169" y2="86.0258">
		<stop  offset="0" style="stop-color:#EE7B5F"/>
		<stop  offset="0.2264" style="stop-color:#F08757"/>
		<stop  offset="0.5446" style="stop-color:#F29051"/>
		<stop  offset="1" style="stop-color:#F2934F"/>
	</linearGradient>
	<rect x="-7.3" y="-5" class="st1" width="380.9" height="182"/>
</g>
<g id="Ebene_1">
	<circle class="st2" cx="278.3" cy="60.3" r="13.6"/>
	<g>
		<path class="st3" d="M68.7,63.2H54.9l-7.7-30c-0.3-1.1-0.8-3.3-1.5-6.6c-0.7-3.3-1.1-5.6-1.2-6.7c-0.2,1.4-0.5,3.7-1.2,6.8
			c-0.6,3.1-1.1,5.3-1.4,6.7l-7.7,29.9H20.5L6,6.1h11.9l7.3,31.1c1.3,5.7,2.2,10.7,2.8,14.9c0.2-1.5,0.5-3.8,1.1-6.9
			c0.6-3.1,1.1-5.5,1.6-7.2l8.3-32h11.4l8.3,32c0.4,1.4,0.8,3.6,1.4,6.6c0.5,2.9,1,5.5,1.2,7.6c0.3-2,0.7-4.6,1.2-7.6
			c0.6-3,1.1-5.5,1.6-7.4l7.3-31.1h11.9L68.7,63.2z"/>
		<path class="st3" d="M125.3,63.2l-4.1-13.6h-20.8l-4.1,13.6h-13l20.1-57.3h14.8l20.2,57.3H125.3z M118.3,39.4
			c-3.8-12.3-6-19.3-6.5-20.9c-0.5-1.6-0.8-2.9-1-3.8c-0.9,3.3-3.3,11.6-7.4,24.7H118.3z"/>
		<path class="st3" d="M192.3,63.2h-12.1V38.5h-22.6v24.6h-12.1v-57h12.1v22.4h22.6V6.1h12.1V63.2z"/>
		<path class="st3" d="M206.7,63.2v-57h12.1v47.1h23.1v10H206.7z"/>
	</g>
	<g>
		<path class="st4" d="M179.4,106.5c0.3,1.8,0,3.5-0.8,5.2c-0.1,0.4-0.4,1.1-0.9,2c-0.4,0.9-0.8,1.8-1.1,2.7c-0.3,0.9-0.4,1.9-0.5,3
			c0,1.5-0.1,3.3-0.3,5.4c-0.3,2.1-0.4,3.5-0.5,4.3c-0.3,1.7-0.6,3.9-0.8,6.7l-0.5,7.4c-0.6,6.1-1.6,10.9-3.1,14.4
			c-1.5,3.5-3.1,6-4.7,7.3c-0.9,0.5-1.7,0.9-2.6,1c-1.6,0.3-3.3,0-5.1-0.8c-1.9-0.8-3.5-2.1-5.1-3.8c-1-1-2.3-3-4.1-6
			c-1.7-3-2.4-4.6-2-4.9c0.1-1.1,1-1.8,2.8-2.1c0.9-0.1,1.6-0.1,2.4,0c0.8,0.1,1.2,0.4,1.3,0.8c1,1.9,2,3.3,3.1,4.2
			c0.7,0.9,1.5,1.6,2.2,2c0.8,0.4,1.5,0.6,2.1,0.5c0.4-0.1,0.7-0.2,0.8-0.4c1-1.1,1.7-2.4,2-3.8c0.4-1.4,0.8-3.9,1.3-7.6
			c0.6-6.4,1.1-10.9,1.6-13.7c0.1-0.9,0.3-1.9,0.6-3l-1.6,1.9c-0.6,0.7-1.3,1.5-2,2.3c-0.7,0.8-1.6,1.5-2.5,2.1
			c-0.4,0.8-1.6,1.3-3.5,1.7c-1.5,0.3-2.9,0.3-4.4,0c-1.5-0.5-2.6-1.2-3.5-2.1c-0.8-0.9-1.8-2.2-2.8-4.1c-0.4-0.6-0.7-1.5-0.9-2.8
			c-0.6-3.3-0.4-6.9,0.3-10.9c0.8-3.2,2.4-6.7,4.8-10.6c2.3-3.8,4.5-6.3,6.5-7.3c1.5-1.2,3.2-2,5.1-2.3c0.8-0.1,1.4-0.2,1.7-0.1
			c1.2,0,2.1,0.1,2.8,0.4c0.7,0.3,1.9,1,3.6,2.1c4,3.1,6.4,5.3,7.3,6.8C179,104.9,179.3,105.6,179.4,106.5z M167.7,111.9
			c0.2-1.6,0.1-3.3-0.4-5.1c-0.4-1.9-1.3-2.7-2.8-2.5c-1.5,0.3-2.7,0.9-3.6,2c-0.9,1.1-2.1,3-3.5,5.7c-0.8,1.7-1.4,3.7-1.7,5.9
			c-0.3,2-0.4,3.7-0.1,5.1c0.3,1.7,0.9,2.6,1.8,2.9c2.3-0.5,4-1.2,5.1-2.2c1.1-1,2.3-3.1,3.5-6.2
			C166.9,115.4,167.5,113.5,167.7,111.9z"/>
		<path class="st4" d="M191.6,133.3c-2.9-2-4.7-5.3-5.5-9.8c-0.3-1.8-0.5-3.7-0.7-5.9c-0.2-1.9,0.1-4.5,0.8-7.9
			c0.7-3.4,1.9-6.8,3.5-10.2c1.6-3.4,3.8-6.1,6.5-8c1.2-0.9,2.3-1.6,3.2-2c0.9-0.4,1.9-0.7,3.1-0.9c2.9-0.5,5.4-0.3,7.4,0.5
			s3.5,1.9,4.5,3.2c1,1.3,1.6,2.5,1.8,3.6l0.1,0.6l0.1,0.3c0.2,0.9-0.1,2.7-0.6,5.3c-0.6,2.6-1.8,5.2-3.6,7.7
			c-1.8,2.5-4.4,4.2-7.7,5c-1.7,0.3-3.4,0.4-5,0.3c-1.7-0.1-2.7-0.1-3.1,0c-1.1,0.2-1.7,0.7-1.8,1.6c-0.1,0.9,0,2.3,0.3,4.3
			c0.6,2.1,1.4,3.5,2.4,4.2c1,0.7,2.4,0.9,4.1,0.6c0.9-0.1,1.8-0.6,2.8-1.3c1-0.8,2.2-2,3.6-3.5c0.7-0.9,1.3-1.6,1.8-1.9
			c0.4-0.4,1-0.6,1.7-0.8c0.6-0.1,1.5,0.2,2.5,1c1,0.8,1.6,1.6,1.8,2.4c0,0.9-0.5,2.4-1.6,4.5c-1.1,2.1-2.7,4-4.7,5.9
			c-2,1.8-4.4,3-7,3.4C198,136,194.5,135.3,191.6,133.3z M203.8,106.2c0.6-0.5,1.6-1.7,2.8-3.5c1.2-1.8,1.8-3,1.7-3.6
			c-0.1-0.8-0.5-1.3-1.2-1.7c-0.7-0.4-1.6-0.6-2.7-0.5l-1.2,0.2c-0.9,0.2-2.1,1.2-3.6,3.1c-1.5,1.9-2.7,4.1-3.6,6.4
			c0.1,0.4,0.7,0.6,1.8,0.7c1,0.1,2.1,0.1,3.3-0.1C202.4,106.9,203.3,106.6,203.8,106.2z"/>
		<path class="st4" d="M259.6,107.7c0,0.7-0.1,2.2-0.2,4.6s-0.1,4.1,0.1,5.2c0.1,0.8,0.4,1.7,0.9,2.5c0.5,0.8,0.7,1.3,0.7,1.5
			c0.1,0.8-0.1,1.6-0.6,2.4c-0.5,0.8-1.3,1.3-2.3,1.5c-1.8,0.3-3.4-0.3-5-1.7c-1.6-1.4-2.6-3.5-3-6.1c-0.4-2.3-0.3-6.7,0.2-13.2
			c0-0.9,0-1.5,0-2c0-0.4,0-0.8,0-1.1c-0.1-0.4-0.2-0.6-0.4-0.5c-0.5,0.1-1.1,0.6-1.9,1.4s-1.7,1.9-2.6,3l-2.3,2.9
			c-1,1-3,3.5-6.1,7.5c-0.4,0.5-1.4,1.7-3,3.8c-1.6,2-2.5,3.1-2.8,3.1c-0.3,0-0.9-0.1-2-0.4c-1-0.3-2-0.8-3-1.4
			c-0.9-0.6-1.5-1.4-1.7-2.4c-0.2-1.1,0-3.9,0.6-8.2c0.6-4.3,1.4-8.6,2.5-12.9c0.1-0.6,0.2-1.8,0.2-3.6c-0.2-2.8,0-4.6,0.5-5.4
			c0.3-0.8,0.8-1.3,1.6-1.4c1.4-0.2,2.9,0.3,4.4,1.6c1.5,1.3,2.4,2.9,2.7,4.7c0.2,1.3,0.2,3.1-0.1,5.3c-0.3,2.2-0.6,3.5-0.8,4
			c0.2-0.2,0.6-0.7,1.1-1.4c0.6-0.8,1.3-1.6,2.4-2.6c2.1-2.4,3.7-4,4.7-5c1.1-0.9,1.8-1.6,2.3-2.1c0.2-0.3,0.4-0.5,0.6-0.6
			c0.2-0.1,0.3-0.2,0.3-0.2c0.2-0.1,0.6-0.4,1.1-0.7c0.6-0.4,1-0.6,1.4-0.6c1.1-0.2,2.2,0,3.6,0.6c1.3,0.6,2,1.3,2.2,2.2
			c0,0.2,0.4,0.6,0.9,1.1c0.6,0.5,1.1,1.1,1.6,1.8c0.5,0.7,0.9,1.9,1.1,3.5C259.9,99.2,259.9,102.4,259.6,107.7z"/>
		<path class="st4" d="M275.9,119.7c-1.6-1.7-2.7-3.9-3.5-6.7c-0.2-2.9-0.3-5-0.4-6.3c0.1-3.9,0.4-8.4,0.7-13.7
			c0.3-5.3,0.5-8.2,0.7-8.8c0.2-0.7,0.7-1.2,1.5-1.3c0.8-0.1,1.7,0,2.8,0.5s2,1.2,2.8,2.3c0.7,0.7,1.2,1.6,1.3,2.7
			c0.3,1.6,0.1,5.1-0.4,10.4c-0.3,4-0.5,6.8-0.5,8.5c0,1.6,0.2,3.4,0.6,5.2c0.3,3.5,0.4,5.9,0.3,7.2c-0.1,1.3-0.4,2-1,2
			C279.1,122.1,277.5,121.4,275.9,119.7z"/>
		<path class="st4" d="M295.4,115.3c-2-1.4-3.2-2.8-3.8-4.2c-0.3-0.7-0.5-1.4-0.5-1.9c-0.5-3-0.2-6.7,0.8-11.3
			c1.1-4.5,2.8-8.9,5.2-13.2c2.4-4.2,5.2-7.5,8.6-9.8c1.3-1.1,2.2-1.7,2.7-1.7c0.4-0.1,1.5,0.2,3.1,0.8c1.5,0.1,2.7,0.4,3.6,0.7
			c0.9,0.3,1.8,0.9,2.7,1.8c1.3,1.8,2.3,4.2,3.3,7c0.7,1.5,1.1,2.6,1.2,3.3c0.1,0.6,0,1.2-0.4,1.7c-0.1,0.1-0.2,0.3-0.3,0.5
			c-0.1,0.3-0.2,0.4-0.2,0.6c0,0.1,0.1,0.2,0.2,0.1c0,0.1,0,0.3,0,0.5c0,0.3-0.1,0.7-0.2,1.2c-0.4,3-0.4,5.4-0.1,7
			c0.1,0.5,0.3,1.2,0.5,1.9c1,1.9,2.1,2.7,3.2,2.5c1-0.2,2-1,3.1-2.6c0.9-0.9,1.9-1.5,3-1.7c0.6-0.1,1,0,1.1,0.4
			c0.1,0.1,0.2,0.2,0.5,0.3c0.2,0.1,0.5,0.2,0.7,0.1c0.3,0,0.5,0.3,0.6,1c0.1,0.6,0.1,1.4,0,2.5c-0.1,1-0.2,1.9-0.5,2.6
			c-0.4,0.6-0.7,1.1-0.9,1.6c-0.2,0.4-0.3,0.8-0.3,1l-1.3,1.9c-1.2,1.1-2.7,1.8-4.6,2.1c-1.9,0.3-3.5,0.2-4.8-0.5
			c-1.3-0.6-2.5-1.5-3.7-2.6c-1.2-1.1-2-2.1-2.5-3.1l-0.7-1.1l-2.7,2.7l-2.2,3.4c-0.4,0.9-0.9,1.3-1.3,1.4l-1.1,0.2
			c0.1,0.5-0.8,1.4-2.6,2.5c-1.9,1.1-3.3,1.7-4.5,1.9C298.9,117.1,297.4,116.7,295.4,115.3z M305,102.9c2.1-2.4,3.5-4.2,4.2-5.5
			c0.2-0.4,0.5-1,0.8-1.9c0.3-0.8,0.6-1.4,0.9-1.9c0.9-1.6,1.5-2.9,1.9-3.9s0.5-1.9,0.4-2.7c-0.1-0.6-0.5-1.4-1.2-2.4
			c-0.4-0.9-0.9-1.3-1.5-1.2c-0.3,0-1.1,0.5-2.3,1.2c-1.2,1.1-2.5,3.1-3.9,6c-1.4,2.9-2.5,5.8-3.4,8.7c-0.9,2.9-1.2,5-1,6.2
			c0,0.2,0.2,0.4,0.3,0.6c0.2,0.2,0.3,0.3,0.4,0.4C301.5,106.5,302.9,105.2,305,102.9z"/>
		<path class="st4" d="M341.7,113.1c-0.7-0.9-1.2-2.3-1.5-4.2c-0.5-3.1-0.8-6.2-0.7-9.3l0-0.9c0-0.5,0-1.2-0.1-2.3
			c0-1.1,0-1.4,0.2-0.9l0.1-3.2c0.1-2.2,0.3-4.3,0.4-6.2s0.3-3.3,0.4-4.2l0.5-4.2c0.9-7.8,2-13.1,3.4-16c0-0.3,0.1-0.6,0.2-0.9
			c0.1-0.3,0.2-0.6,0.2-0.9c-0.2-1.2-0.2-2.2,0.2-3c0.4-1.3,0.8-2.4,1.1-3.4l0.2-1.3l1.9-7c0.1-0.8,0.4-1.7,0.9-2.7
			c0.5-1,1.1-1.8,1.8-2.2l-0.1-0.1c0.3-0.7,0.8-1.3,1.7-1.9s1.7-1,2.4-1.1c0.9-0.2,1.7,0,2.4,0.5c0.7,0.5,1.1,1.3,1.3,2.4l0.2,1.1
			c0.1,0.7,0.2,1.2,0.1,1.6s-0.2,0.9-0.5,1.5l0.1,0c0.1,0.1,0.1,0.3,0,0.8c-0.1,0.4-0.2,0.9-0.3,1.3c-0.3,1.5-0.5,2.3-0.7,2.5
			c-0.4,0.8-1.5,4.3-3.3,10.5s-2.9,10.5-3.3,12.9l-0.1,1.8l-0.1,0.7c-0.5,2-0.7,3-0.8,3.2l-0.5,7.4l0,2.5l-0.5,2.8l-0.3,2.3
			c-0.1,0.4-0.1,0.9-0.1,1.6c0,0.6-0.1,1-0.2,1.2l0,0.6c0,0.3-0.1,1.2-0.3,2.8c-0.3,2.2-0.4,4.1-0.5,5.6c0,1.5,0,3,0.2,4.6l0,0.5
			c0.1,1.7-0.2,3-0.7,4c-0.5,1-1.4,1.4-2.5,1.2C343.3,114.5,342.4,114,341.7,113.1z"/>
	</g>
	<g>
		<g>
			<g>
				<path class="st3" d="M261.1,77.1c11.4-7.4,21.3-16.3,31.9-24.8c1.3-1.1,3.1-3.9,2.2-4.8c-1.2-1.4-5-1.9-7.2-0.1
					c-9.7,7.8-18.9,15.9-29.2,22.8c-0.4,0.3-1.6,1.2-2.1,1.5c-1.3,0.9-1.7,2.2-1.6,3.4C255.5,77.4,259.7,77.7,261.1,77.1L261.1,77.1
					z"/>
			</g>
		</g>
		<path class="st3" d="M286.5,74.2c-2.1-0.5-4.1-1.6-6.2-3.3c-1.7-2.1-2.9-3.6-3.6-4.6c-1.9-3-4.2-6.6-6.7-10.8
			c-2.5-4.2-3.9-6.5-4.1-7c-0.2-0.7-0.1-1.3,0.5-1.8c0.5-0.5,1.3-0.9,2.4-1.1s2.2-0.1,3.4,0.2c0.9,0.2,1.7,0.6,2.4,1.4
			c1,1.1,2.8,3.8,5.2,8.1c1.8,3.2,3.2,5.4,4,6.7c0.9,1.3,1.9,2.5,3.2,3.7c2.1,2.5,3.4,4.3,4.1,5.3c0.7,1.1,0.8,1.7,0.3,2.1
			C290.2,74.4,288.6,74.7,286.5,74.2z"/>
	</g>
</g>
</svg>
